<svg width="359" height="99" viewBox="0 0 359 99" fill="none" xmlns="http://www.w3.org/2000/svg">
<g filter="url(#filter0_d_40_67)">
<rect x="19.7674" y="16" width="319.233" height="59" fill="#C28DEF" fill-opacity="0.72" shape-rendering="crispEdges"/>
</g>
<path d="M19 10.6667C16.0545 10.6667 13.6667 13.0545 13.6667 16C13.6667 18.9455 16.0545 21.3333 19 21.3333C21.9455 21.3333 24.3333 18.9455 24.3333 16C24.3333 13.0545 21.9455 10.6667 19 10.6667ZM18 16L18 75H20L20 16H18Z" fill="white"/>
<path d="M339 69.6667C336.054 69.6667 333.667 72.0545 333.667 75C333.667 77.9455 336.054 80.3333 339 80.3333C341.946 80.3333 344.333 77.9455 344.333 75C344.333 72.0545 341.946 69.6667 339 69.6667ZM338 16V75H340V16H338Z" fill="white"/>
<path d="M93.5371 43L100.245 24.28H103.677L97.5151 43H93.5371ZM107.265 43L101.129 24.28H104.717L111.425 43H107.265ZM97.0731 35.746H107.577V38.866H97.0731V35.746ZM112.339 48.33L116.005 40.218L116.681 39.1L120.113 29.74H124.273L116.239 48.33H112.339ZM115.147 42.74L110.051 29.74H114.263L118.449 41.596L115.147 42.74ZM133.389 43C133.285 42.6187 133.207 42.2113 133.155 41.778C133.121 41.3447 133.103 40.842 133.103 40.27H132.999V34.004C132.999 33.4667 132.817 33.0507 132.453 32.756C132.107 32.444 131.587 32.288 130.893 32.288C130.235 32.288 129.706 32.4007 129.307 32.626C128.926 32.8513 128.675 33.1807 128.553 33.614H124.835C125.009 32.418 125.624 31.43 126.681 30.65C127.739 29.87 129.186 29.48 131.023 29.48C132.93 29.48 134.386 29.9047 135.391 30.754C136.397 31.6033 136.899 32.8253 136.899 34.42V40.27C136.899 40.7033 136.925 41.1453 136.977 41.596C137.047 42.0293 137.151 42.4973 137.289 43H133.389ZM128.761 43.26C127.444 43.26 126.395 42.9307 125.615 42.272C124.835 41.596 124.445 40.7033 124.445 39.594C124.445 38.3633 124.905 37.3753 125.823 36.63C126.759 35.8673 128.059 35.3733 129.723 35.148L133.597 34.602V36.864L130.373 37.358C129.68 37.462 129.169 37.6527 128.839 37.93C128.51 38.2073 128.345 38.5887 128.345 39.074C128.345 39.5073 128.501 39.8367 128.813 40.062C129.125 40.2873 129.541 40.4 130.061 40.4C130.876 40.4 131.569 40.1833 132.141 39.75C132.713 39.2993 132.999 38.7793 132.999 38.19L133.363 40.27C132.982 41.258 132.401 42.0033 131.621 42.506C130.841 43.0087 129.888 43.26 128.761 43.26ZM147.684 43C147.58 42.6187 147.502 42.2113 147.45 41.778C147.416 41.3447 147.398 40.842 147.398 40.27H147.294V34.004C147.294 33.4667 147.112 33.0507 146.748 32.756C146.402 32.444 145.882 32.288 145.188 32.288C144.53 32.288 144.001 32.4007 143.602 32.626C143.221 32.8513 142.97 33.1807 142.848 33.614H139.13C139.304 32.418 139.919 31.43 140.976 30.65C142.034 29.87 143.481 29.48 145.318 29.48C147.225 29.48 148.681 29.9047 149.686 30.754C150.692 31.6033 151.194 32.8253 151.194 34.42V40.27C151.194 40.7033 151.22 41.1453 151.272 41.596C151.342 42.0293 151.446 42.4973 151.584 43H147.684ZM143.056 43.26C141.739 43.26 140.69 42.9307 139.91 42.272C139.13 41.596 138.74 40.7033 138.74 39.594C138.74 38.3633 139.2 37.3753 140.118 36.63C141.054 35.8673 142.354 35.3733 144.018 35.148L147.892 34.602V36.864L144.668 37.358C143.975 37.462 143.464 37.6527 143.134 37.93C142.805 38.2073 142.64 38.5887 142.64 39.074C142.64 39.5073 142.796 39.8367 143.108 40.062C143.42 40.2873 143.836 40.4 144.356 40.4C145.171 40.4 145.864 40.1833 146.436 39.75C147.008 39.2993 147.294 38.7793 147.294 38.19L147.658 40.27C147.277 41.258 146.696 42.0033 145.916 42.506C145.136 43.0087 144.183 43.26 143.056 43.26ZM154.192 43V29.74H158.014V32.86H158.092V43H154.192ZM163.422 43V34.784C163.422 34.056 163.231 33.51 162.85 33.146C162.486 32.782 161.949 32.6 161.238 32.6C160.631 32.6 160.085 32.7387 159.6 33.016C159.132 33.2933 158.759 33.6747 158.482 34.16C158.222 34.6453 158.092 35.2173 158.092 35.876L157.754 32.678C158.187 31.7073 158.82 30.936 159.652 30.364C160.501 29.7747 161.541 29.48 162.772 29.48C164.245 29.48 165.372 29.896 166.152 30.728C166.932 31.5427 167.322 32.6433 167.322 34.03V43H163.422ZM174.305 43L181.013 24.28H184.445L178.283 43H174.305ZM188.033 43L181.897 24.28H185.485L192.193 43H188.033ZM177.841 35.746H188.345V38.866H177.841V35.746ZM194.385 43V24.28H198.285V43H194.385ZM203.615 43V34.784C203.615 34.056 203.425 33.51 203.043 33.146C202.679 32.782 202.142 32.6 201.431 32.6C200.825 32.6 200.279 32.7387 199.793 33.016C199.325 33.2933 198.953 33.6747 198.675 34.16C198.415 34.6453 198.285 35.2173 198.285 35.876L197.947 32.678C198.381 31.7073 199.013 30.936 199.845 30.364C200.695 29.7747 201.735 29.48 202.965 29.48C204.439 29.48 205.565 29.896 206.345 30.728C207.125 31.5427 207.515 32.6433 207.515 34.03V43H203.615ZM210.483 43V29.74H214.305V32.86H214.383V43H210.483ZM219.401 43V34.576C219.401 33.9 219.219 33.406 218.855 33.094C218.508 32.7647 218.014 32.6 217.373 32.6C216.818 32.6 216.307 32.73 215.839 32.99C215.388 33.2327 215.033 33.588 214.773 34.056C214.513 34.5067 214.383 35.044 214.383 35.668L214.045 32.678C214.478 31.7073 215.102 30.936 215.917 30.364C216.749 29.7747 217.746 29.48 218.907 29.48C220.294 29.48 221.368 29.87 222.131 30.65C222.911 31.43 223.301 32.4093 223.301 33.588V43H219.401ZM228.319 43V34.576C228.319 33.9 228.137 33.406 227.773 33.094C227.426 32.7647 226.932 32.6 226.291 32.6C225.736 32.6 225.225 32.73 224.757 32.99C224.306 33.2327 223.951 33.588 223.691 34.056C223.431 34.5067 223.301 35.044 223.301 35.668L222.703 32.678C223.136 31.7073 223.778 30.936 224.627 30.364C225.494 29.7747 226.534 29.48 227.747 29.48C229.186 29.48 230.286 29.8873 231.049 30.702C231.829 31.4993 232.219 32.548 232.219 33.848V43H228.319ZM241.428 43.26C239.955 43.26 238.672 42.974 237.58 42.402C236.488 41.8127 235.639 40.998 235.032 39.958C234.443 38.918 234.148 37.722 234.148 36.37C234.148 35.0007 234.443 33.8047 235.032 32.782C235.639 31.742 236.479 30.936 237.554 30.364C238.629 29.7747 239.877 29.48 241.298 29.48C242.667 29.48 243.855 29.7573 244.86 30.312C245.865 30.8667 246.645 31.638 247.2 32.626C247.755 33.614 248.032 34.7753 248.032 36.11C248.032 36.3873 248.023 36.6473 248.006 36.89C247.989 37.1153 247.963 37.332 247.928 37.54H236.436V34.966H244.782L244.106 35.434C244.106 34.3593 243.846 33.5707 243.326 33.068C242.823 32.548 242.13 32.288 241.246 32.288C240.223 32.288 239.426 32.6347 238.854 33.328C238.299 34.0213 238.022 35.0613 238.022 36.448C238.022 37.8 238.299 38.8053 238.854 39.464C239.426 40.1227 240.275 40.452 241.402 40.452C242.026 40.452 242.563 40.348 243.014 40.14C243.465 39.932 243.803 39.594 244.028 39.126H247.694C247.261 40.4087 246.515 41.4227 245.458 42.168C244.418 42.896 243.075 43.26 241.428 43.26ZM259.707 43V40.062L259.967 40.114C259.793 41.0673 259.273 41.83 258.407 42.402C257.557 42.974 256.535 43.26 255.339 43.26C254.125 43.26 253.068 42.9827 252.167 42.428C251.283 41.856 250.598 41.0587 250.113 40.036C249.627 39.0133 249.385 37.8087 249.385 36.422C249.385 35.018 249.636 33.796 250.139 32.756C250.641 31.716 251.343 30.91 252.245 30.338C253.163 29.766 254.229 29.48 255.443 29.48C256.708 29.48 257.731 29.7747 258.511 30.364C259.308 30.9533 259.776 31.7593 259.915 32.782L259.629 32.808V24.28H263.529V43H259.707ZM256.587 40.14C257.505 40.14 258.251 39.8193 258.823 39.178C259.395 38.5193 259.681 37.5833 259.681 36.37C259.681 35.1567 259.386 34.2293 258.797 33.588C258.225 32.9293 257.471 32.6 256.535 32.6C255.633 32.6 254.888 32.9293 254.299 33.588C253.727 34.2467 253.441 35.1827 253.441 36.396C253.441 37.6093 253.727 38.5367 254.299 39.178C254.888 39.8193 255.651 40.14 256.587 40.14Z" fill="black"/>
<path d="M132.74 66.16C131.908 66.16 131.14 66.016 130.436 65.728C129.732 65.4293 129.119 65.0133 128.596 64.48C128.084 63.9467 127.684 63.3173 127.396 62.592C127.108 61.856 126.964 61.056 126.964 60.192C126.964 59.328 127.103 58.5387 127.38 57.824C127.668 57.1093 128.068 56.4907 128.58 55.968C129.103 55.4347 129.716 55.0293 130.42 54.752C131.124 54.464 131.898 54.32 132.74 54.32C133.69 54.32 134.543 54.5067 135.3 54.88C136.068 55.2427 136.692 55.76 137.172 56.432C137.663 57.0933 137.962 57.872 138.068 58.768H135.668C135.53 57.9467 135.194 57.328 134.66 56.912C134.127 56.4853 133.492 56.272 132.756 56.272C132.106 56.272 131.53 56.4267 131.028 56.736C130.538 57.0453 130.154 57.4933 129.876 58.08C129.599 58.656 129.46 59.3547 129.46 60.176C129.46 61.008 129.599 61.728 129.876 62.336C130.164 62.9333 130.559 63.3973 131.06 63.728C131.562 64.048 132.138 64.208 132.788 64.208C133.482 64.208 134.095 64 134.628 63.584C135.162 63.168 135.508 62.5493 135.668 61.728H138.1C137.962 62.624 137.647 63.408 137.156 64.08C136.666 64.7413 136.042 65.2533 135.284 65.616C134.527 65.9787 133.679 66.16 132.74 66.16ZM143.285 66.16C142.389 66.16 141.6 65.984 140.917 65.632C140.245 65.2693 139.717 64.768 139.333 64.128C138.96 63.4773 138.773 62.7307 138.773 61.888C138.773 61.0453 138.96 60.3093 139.333 59.68C139.717 59.0507 140.245 58.56 140.917 58.208C141.6 57.856 142.389 57.68 143.285 57.68C144.192 57.68 144.981 57.856 145.653 58.208C146.336 58.56 146.864 59.0507 147.237 59.68C147.61 60.3093 147.797 61.0453 147.797 61.888C147.797 62.7307 147.605 63.4773 147.221 64.128C146.848 64.768 146.32 65.2693 145.637 65.632C144.965 65.984 144.181 66.16 143.285 66.16ZM143.285 64.272C143.658 64.272 143.994 64.176 144.293 63.984C144.602 63.792 144.848 63.52 145.029 63.168C145.21 62.8053 145.301 62.3733 145.301 61.872C145.301 61.136 145.104 60.5707 144.709 60.176C144.325 59.7707 143.85 59.568 143.285 59.568C142.72 59.568 142.24 59.7707 141.845 60.176C141.461 60.5813 141.269 61.1467 141.269 61.872C141.269 62.3733 141.36 62.8053 141.541 63.168C141.722 63.52 141.962 63.792 142.261 63.984C142.57 64.176 142.912 64.272 143.285 64.272ZM148.804 62.608V60.688H154.66V62.608H148.804ZM161.49 66.16C160.658 66.16 159.89 66.016 159.186 65.728C158.482 65.4293 157.869 65.0133 157.346 64.48C156.834 63.9467 156.434 63.3173 156.146 62.592C155.858 61.856 155.714 61.056 155.714 60.192C155.714 59.328 155.853 58.5387 156.13 57.824C156.418 57.1093 156.818 56.4907 157.33 55.968C157.853 55.4347 158.466 55.0293 159.17 54.752C159.874 54.464 160.648 54.32 161.49 54.32C162.44 54.32 163.293 54.5067 164.05 54.88C164.818 55.2427 165.442 55.76 165.922 56.432C166.413 57.0933 166.712 57.872 166.818 58.768H164.418C164.28 57.9467 163.944 57.328 163.41 56.912C162.877 56.4853 162.242 56.272 161.506 56.272C160.856 56.272 160.28 56.4267 159.778 56.736C159.288 57.0453 158.904 57.4933 158.626 58.08C158.349 58.656 158.21 59.3547 158.21 60.176C158.21 61.008 158.349 61.728 158.626 62.336C158.914 62.9333 159.309 63.3973 159.81 63.728C160.312 64.048 160.888 64.208 161.538 64.208C162.232 64.208 162.845 64 163.378 63.584C163.912 63.168 164.258 62.5493 164.418 61.728H166.85C166.712 62.624 166.397 63.408 165.906 64.08C165.416 64.7413 164.792 65.2533 164.034 65.616C163.277 65.9787 162.429 66.16 161.49 66.16ZM172.035 66.16C171.139 66.16 170.35 65.984 169.667 65.632C168.995 65.2693 168.467 64.768 168.083 64.128C167.71 63.4773 167.523 62.7307 167.523 61.888C167.523 61.0453 167.71 60.3093 168.083 59.68C168.467 59.0507 168.995 58.56 169.667 58.208C170.35 57.856 171.139 57.68 172.035 57.68C172.942 57.68 173.731 57.856 174.403 58.208C175.086 58.56 175.614 59.0507 175.987 59.68C176.36 60.3093 176.547 61.0453 176.547 61.888C176.547 62.7307 176.355 63.4773 175.971 64.128C175.598 64.768 175.07 65.2693 174.387 65.632C173.715 65.984 172.931 66.16 172.035 66.16ZM172.035 64.272C172.408 64.272 172.744 64.176 173.043 63.984C173.352 63.792 173.598 63.52 173.779 63.168C173.96 62.8053 174.051 62.3733 174.051 61.872C174.051 61.136 173.854 60.5707 173.459 60.176C173.075 59.7707 172.6 59.568 172.035 59.568C171.47 59.568 170.99 59.7707 170.595 60.176C170.211 60.5813 170.019 61.1467 170.019 61.872C170.019 62.3733 170.11 62.8053 170.291 63.168C170.472 63.52 170.712 63.792 171.011 63.984C171.32 64.176 171.662 64.272 172.035 64.272ZM177.819 66V57.84H180.171V59.76H180.219V66H177.819ZM183.499 66V60.944C183.499 60.496 183.382 60.16 183.147 59.936C182.923 59.712 182.593 59.6 182.155 59.6C181.782 59.6 181.446 59.6853 181.147 59.856C180.859 60.0267 180.63 60.2613 180.459 60.56C180.299 60.8587 180.219 61.2107 180.219 61.616L180.011 59.648C180.278 59.0507 180.667 58.576 181.179 58.224C181.702 57.8613 182.342 57.68 183.099 57.68C184.006 57.68 184.699 57.936 185.179 58.448C185.659 58.9493 185.899 59.6267 185.899 60.48V66H183.499ZM189.606 66L186.39 57.84H188.966L191.478 65.456H190.134L192.63 57.84H195.142L191.926 66H189.606ZM199.659 66.16C198.753 66.16 197.963 65.984 197.291 65.632C196.619 65.2693 196.097 64.768 195.723 64.128C195.361 63.488 195.179 62.752 195.179 61.92C195.179 61.0773 195.361 60.3413 195.723 59.712C196.097 59.072 196.614 58.576 197.275 58.224C197.937 57.8613 198.705 57.68 199.579 57.68C200.422 57.68 201.153 57.8507 201.771 58.192C202.39 58.5333 202.87 59.008 203.211 59.616C203.553 60.224 203.723 60.9387 203.723 61.76C203.723 61.9307 203.718 62.0907 203.707 62.24C203.697 62.3787 203.681 62.512 203.659 62.64H196.587V61.056H201.723L201.307 61.344C201.307 60.6827 201.147 60.1973 200.827 59.888C200.518 59.568 200.091 59.408 199.547 59.408C198.918 59.408 198.427 59.6213 198.075 60.048C197.734 60.4747 197.563 61.1147 197.563 61.968C197.563 62.8 197.734 63.4187 198.075 63.824C198.427 64.2293 198.95 64.432 199.643 64.432C200.027 64.432 200.358 64.368 200.635 64.24C200.913 64.112 201.121 63.904 201.259 63.616H203.515C203.249 64.4053 202.79 65.0293 202.139 65.488C201.499 65.936 200.673 66.16 199.659 66.16ZM205.007 66V57.84H207.359V59.76H207.407V66H205.007ZM210.687 66V60.944C210.687 60.496 210.57 60.16 210.335 59.936C210.111 59.712 209.78 59.6 209.343 59.6C208.97 59.6 208.634 59.6853 208.335 59.856C208.047 60.0267 207.818 60.2613 207.647 60.56C207.487 60.8587 207.407 61.2107 207.407 61.616L207.199 59.648C207.466 59.0507 207.855 58.576 208.367 58.224C208.89 57.8613 209.53 57.68 210.287 57.68C211.194 57.68 211.887 57.936 212.367 58.448C212.847 58.9493 213.087 59.6267 213.087 60.48V66H210.687ZM218.753 66.16C217.846 66.16 217.057 65.984 216.385 65.632C215.713 65.2693 215.19 64.768 214.817 64.128C214.454 63.488 214.273 62.752 214.273 61.92C214.273 61.0773 214.454 60.3413 214.817 59.712C215.19 59.072 215.708 58.576 216.369 58.224C217.03 57.8613 217.798 57.68 218.673 57.68C219.516 57.68 220.246 57.8507 220.865 58.192C221.484 58.5333 221.964 59.008 222.305 59.616C222.646 60.224 222.817 60.9387 222.817 61.76C222.817 61.9307 222.812 62.0907 222.801 62.24C222.79 62.3787 222.774 62.512 222.753 62.64H215.681V61.056H220.817L220.401 61.344C220.401 60.6827 220.241 60.1973 219.921 59.888C219.612 59.568 219.185 59.408 218.641 59.408C218.012 59.408 217.521 59.6213 217.169 60.048C216.828 60.4747 216.657 61.1147 216.657 61.968C216.657 62.8 216.828 63.4187 217.169 63.824C217.521 64.2293 218.044 64.432 218.737 64.432C219.121 64.432 219.452 64.368 219.729 64.24C220.006 64.112 220.214 63.904 220.353 63.616H222.609C222.342 64.4053 221.884 65.0293 221.233 65.488C220.593 65.936 219.766 66.16 218.753 66.16ZM224.101 66V57.84H226.453V59.76H226.501V66H224.101ZM226.501 61.744L226.293 59.808C226.485 59.1147 226.799 58.5867 227.237 58.224C227.674 57.8613 228.218 57.68 228.869 57.68C229.071 57.68 229.221 57.7013 229.317 57.744V59.984C229.263 59.9627 229.189 59.952 229.093 59.952C228.997 59.9413 228.879 59.936 228.741 59.936C227.973 59.936 227.407 60.0747 227.045 60.352C226.682 60.6187 226.501 61.0827 226.501 61.744Z" fill="black"/>
<defs>
<filter id="filter0_d_40_67" x="0.667387" y="0.9" width="357.433" height="97.2" filterUnits="userSpaceOnUse" color-interpolation-filters="sRGB">
<feFlood flood-opacity="0" result="BackgroundImageFix"/>
<feColorMatrix in="SourceAlpha" type="matrix" values="0 0 0 0 0 0 0 0 0 0 0 0 0 0 0 0 0 0 127 0" result="hardAlpha"/>
<feOffset dy="4"/>
<feGaussianBlur stdDeviation="9.55"/>
<feComposite in2="hardAlpha" operator="out"/>
<feColorMatrix type="matrix" values="0 0 0 0 0.556863 0 0 0 0 0.411765 0 0 0 0 0.686275 0 0 0 0.7 0"/>
<feBlend mode="normal" in2="BackgroundImageFix" result="effect1_dropShadow_40_67"/>
<feBlend mode="normal" in="SourceGraphic" in2="effect1_dropShadow_40_67" result="shape"/>
</filter>
</defs>
</svg>
