<svg width="359" height="99" viewBox="0 0 359 99" fill="none" xmlns="http://www.w3.org/2000/svg">
<g filter="url(#filter0_d_40_67)">
<rect x="19.7674" y="16" width="319.233" height="59" fill="#C28DEF" fill-opacity="0.72" shape-rendering="crispEdges"/>
</g>
<path d="M19 10.6667C16.0545 10.6667 13.6667 13.0545 13.6667 16C13.6667 18.9455 16.0545 21.3333 19 21.3333C21.9455 21.3333 24.3333 18.9455 24.3333 16C24.3333 13.0545 21.9455 10.6667 19 10.6667ZM18 16L18 75H20L20 16H18Z" fill="white"/>
<path d="M339 69.6667C336.054 69.6667 333.667 72.0545 333.667 75C333.667 77.9455 336.054 80.3333 339 80.3333C341.946 80.3333 344.333 77.9455 344.333 75C344.333 72.0545 341.946 69.6667 339 69.6667ZM338 16V75H340V16H338Z" fill="white"/>
<path d="M95.3271 43L102.035 24.28H105.467L99.3051 43H95.3271ZM109.055 43L102.919 24.28H106.507L113.215 43H109.055ZM98.8631 35.746H109.367V38.866H98.8631V35.746ZM114.129 48.33L117.795 40.218L118.471 39.1L121.903 29.74H126.063L118.029 48.33H114.129ZM116.937 42.74L111.841 29.74H116.053L120.239 41.596L116.937 42.74ZM131.707 43.26C130.771 43.26 129.965 43.0607 129.289 42.662C128.631 42.246 128.128 41.7 127.781 41.024C127.435 40.3307 127.261 39.5593 127.261 38.71V29.74H131.161V37.956C131.161 38.684 131.343 39.23 131.707 39.594C132.071 39.958 132.583 40.14 133.241 40.14C133.831 40.14 134.351 40.0013 134.801 39.724C135.252 39.4467 135.607 39.0653 135.867 38.58C136.145 38.0773 136.283 37.5053 136.283 36.864L136.621 40.062C136.188 41.0153 135.555 41.7867 134.723 42.376C133.891 42.9653 132.886 43.26 131.707 43.26ZM136.361 43V39.88H136.283V29.74H140.183V43H136.361ZM148.49 43.26C146.549 43.26 145.006 42.87 143.862 42.09C142.718 41.31 142.094 40.2353 141.99 38.866H145.474C145.561 39.4553 145.856 39.906 146.358 40.218C146.878 40.5127 147.589 40.66 148.49 40.66C149.305 40.66 149.894 40.5473 150.258 40.322C150.64 40.0793 150.83 39.7413 150.83 39.308C150.83 38.9787 150.718 38.7273 150.492 38.554C150.284 38.3633 149.894 38.2073 149.322 38.086L147.19 37.644C145.613 37.3147 144.452 36.8207 143.706 36.162C142.961 35.486 142.588 34.6193 142.588 33.562C142.588 32.2793 143.082 31.2827 144.07 30.572C145.058 29.844 146.436 29.48 148.204 29.48C149.955 29.48 151.35 29.8353 152.39 30.546C153.43 31.2393 154.002 32.21 154.106 33.458H150.622C150.553 33.0073 150.31 32.6693 149.894 32.444C149.478 32.2013 148.889 32.08 148.126 32.08C147.433 32.08 146.913 32.184 146.566 32.392C146.237 32.5827 146.072 32.86 146.072 33.224C146.072 33.536 146.211 33.7873 146.488 33.978C146.766 34.1513 147.225 34.3073 147.866 34.446L150.258 34.94C151.593 35.2173 152.598 35.7373 153.274 36.5C153.968 37.2453 154.314 38.1293 154.314 39.152C154.314 40.452 153.803 41.466 152.78 42.194C151.775 42.9047 150.345 43.26 148.49 43.26ZM156.236 43V24.28H160.136V43H156.236ZM165.466 43V34.784C165.466 34.056 165.275 33.51 164.894 33.146C164.53 32.782 163.992 32.6 163.282 32.6C162.675 32.6 162.129 32.7387 161.644 33.016C161.176 33.2933 160.803 33.6747 160.526 34.16C160.266 34.6453 160.136 35.2173 160.136 35.876L159.798 32.678C160.231 31.7073 160.864 30.936 161.696 30.364C162.545 29.7747 163.585 29.48 164.816 29.48C166.289 29.48 167.416 29.896 168.196 30.728C168.976 31.5427 169.366 32.6433 169.366 34.03V43H165.466ZM180.301 43V40.14H185.137C186.003 40.14 186.653 39.906 187.087 39.438C187.537 38.9527 187.763 38.2853 187.763 37.436C187.763 36.5693 187.52 35.8847 187.035 35.382C186.567 34.8793 185.891 34.628 185.007 34.628H180.301V31.768H184.799C185.613 31.768 186.229 31.5773 186.645 31.196C187.078 30.7973 187.295 30.2167 187.295 29.454C187.295 28.6913 187.087 28.1193 186.671 27.738C186.272 27.3393 185.674 27.14 184.877 27.14H180.301V24.28H185.735C187.399 24.28 188.742 24.7047 189.765 25.554C190.787 26.4033 191.299 27.556 191.299 29.012C191.299 29.9307 191.082 30.7193 190.649 31.378C190.215 32.0367 189.635 32.5393 188.907 32.886C188.179 33.2327 187.364 33.406 186.463 33.406L186.593 32.86C187.563 32.86 188.439 33.068 189.219 33.484C190.016 33.9 190.649 34.4893 191.117 35.252C191.585 35.9973 191.819 36.8813 191.819 37.904C191.819 38.9267 191.576 39.828 191.091 40.608C190.623 41.3707 189.955 41.96 189.089 42.376C188.239 42.792 187.234 43 186.073 43H180.301ZM177.025 43V24.28H181.029V43H177.025ZM200.409 43.26C198.936 43.26 197.653 42.974 196.561 42.402C195.469 41.8127 194.62 40.998 194.013 39.958C193.424 38.918 193.129 37.722 193.129 36.37C193.129 35.0007 193.424 33.8047 194.013 32.782C194.62 31.742 195.461 30.936 196.535 30.364C197.61 29.7747 198.858 29.48 200.279 29.48C201.649 29.48 202.836 29.7573 203.841 30.312C204.847 30.8667 205.627 31.638 206.181 32.626C206.736 33.614 207.013 34.7753 207.013 36.11C207.013 36.3873 207.005 36.6473 206.987 36.89C206.97 37.1153 206.944 37.332 206.909 37.54H195.417V34.966H203.763L203.087 35.434C203.087 34.3593 202.827 33.5707 202.307 33.068C201.805 32.548 201.111 32.288 200.227 32.288C199.205 32.288 198.407 32.6347 197.835 33.328C197.281 34.0213 197.003 35.0613 197.003 36.448C197.003 37.8 197.281 38.8053 197.835 39.464C198.407 40.1227 199.257 40.452 200.383 40.452C201.007 40.452 201.545 40.348 201.995 40.14C202.446 39.932 202.784 39.594 203.009 39.126H206.675C206.242 40.4087 205.497 41.4227 204.439 42.168C203.399 42.896 202.056 43.26 200.409 43.26ZM209.099 43V24.28H212.999V43H209.099ZM218.329 43V34.784C218.329 34.056 218.138 33.51 217.757 33.146C217.393 32.782 216.856 32.6 216.145 32.6C215.538 32.6 214.992 32.7387 214.507 33.016C214.039 33.2933 213.666 33.6747 213.389 34.16C213.129 34.6453 212.999 35.2173 212.999 35.876L212.661 32.678C213.094 31.7073 213.727 30.936 214.559 30.364C215.408 29.7747 216.448 29.48 217.679 29.48C219.152 29.48 220.279 29.896 221.059 30.728C221.839 31.5427 222.229 32.6433 222.229 34.03V43H218.329ZM231.437 43.26C229.963 43.26 228.681 42.974 227.589 42.402C226.497 41.8127 225.647 40.998 225.041 39.958C224.451 38.918 224.157 37.722 224.157 36.37C224.157 35.0007 224.451 33.8047 225.041 32.782C225.647 31.742 226.488 30.936 227.563 30.364C228.637 29.7747 229.885 29.48 231.307 29.48C232.676 29.48 233.863 29.7573 234.869 30.312C235.874 30.8667 236.654 31.638 237.209 32.626C237.763 33.614 238.041 34.7753 238.041 36.11C238.041 36.3873 238.032 36.6473 238.015 36.89C237.997 37.1153 237.971 37.332 237.937 37.54H226.445V34.966H234.791L234.115 35.434C234.115 34.3593 233.855 33.5707 233.335 33.068C232.832 32.548 232.139 32.288 231.255 32.288C230.232 32.288 229.435 32.6347 228.863 33.328C228.308 34.0213 228.031 35.0613 228.031 36.448C228.031 37.8 228.308 38.8053 228.863 39.464C229.435 40.1227 230.284 40.452 231.411 40.452C232.035 40.452 232.572 40.348 233.023 40.14C233.473 39.932 233.811 39.594 234.037 39.126H237.703C237.269 40.4087 236.524 41.4227 235.467 42.168C234.427 42.896 233.083 43.26 231.437 43.26ZM240.126 43V29.74H243.948V32.86H244.026V43H240.126ZM244.026 36.084L243.688 32.938C244 31.8113 244.512 30.9533 245.222 30.364C245.933 29.7747 246.817 29.48 247.874 29.48C248.204 29.48 248.446 29.5147 248.602 29.584V33.224C248.516 33.1893 248.394 33.172 248.238 33.172C248.082 33.1547 247.892 33.146 247.666 33.146C246.418 33.146 245.5 33.3713 244.91 33.822C244.321 34.2553 244.026 35.0093 244.026 36.084ZM258.349 43C258.245 42.6187 258.167 42.2113 258.115 41.778C258.081 41.3447 258.063 40.842 258.063 40.27H257.959V34.004C257.959 33.4667 257.777 33.0507 257.413 32.756C257.067 32.444 256.547 32.288 255.853 32.288C255.195 32.288 254.666 32.4007 254.267 32.626C253.886 32.8513 253.635 33.1807 253.513 33.614H249.795C249.969 32.418 250.584 31.43 251.641 30.65C252.699 29.87 254.146 29.48 255.983 29.48C257.89 29.48 259.346 29.9047 260.351 30.754C261.357 31.6033 261.859 32.8253 261.859 34.42V40.27C261.859 40.7033 261.885 41.1453 261.937 41.596C262.007 42.0293 262.111 42.4973 262.249 43H258.349ZM253.721 43.26C252.404 43.26 251.355 42.9307 250.575 42.272C249.795 41.596 249.405 40.7033 249.405 39.594C249.405 38.3633 249.865 37.3753 250.783 36.63C251.719 35.8673 253.019 35.3733 254.683 35.148L258.557 34.602V36.864L255.333 37.358C254.64 37.462 254.129 37.6527 253.799 37.93C253.47 38.2073 253.305 38.5887 253.305 39.074C253.305 39.5073 253.461 39.8367 253.773 40.062C254.085 40.2873 254.501 40.4 255.021 40.4C255.836 40.4 256.529 40.1833 257.101 39.75C257.673 39.2993 257.959 38.7793 257.959 38.19L258.323 40.27C257.942 41.258 257.361 42.0033 256.581 42.506C255.801 43.0087 254.848 43.26 253.721 43.26Z" fill="black"/>
<path d="M132.74 66.16C131.908 66.16 131.14 66.016 130.436 65.728C129.732 65.4293 129.119 65.0133 128.596 64.48C128.084 63.9467 127.684 63.3173 127.396 62.592C127.108 61.856 126.964 61.056 126.964 60.192C126.964 59.328 127.103 58.5387 127.38 57.824C127.668 57.1093 128.068 56.4907 128.58 55.968C129.103 55.4347 129.716 55.0293 130.42 54.752C131.124 54.464 131.898 54.32 132.74 54.32C133.69 54.32 134.543 54.5067 135.3 54.88C136.068 55.2427 136.692 55.76 137.172 56.432C137.663 57.0933 137.962 57.872 138.068 58.768H135.668C135.53 57.9467 135.194 57.328 134.66 56.912C134.127 56.4853 133.492 56.272 132.756 56.272C132.106 56.272 131.53 56.4267 131.028 56.736C130.538 57.0453 130.154 57.4933 129.876 58.08C129.599 58.656 129.46 59.3547 129.46 60.176C129.46 61.008 129.599 61.728 129.876 62.336C130.164 62.9333 130.559 63.3973 131.06 63.728C131.562 64.048 132.138 64.208 132.788 64.208C133.482 64.208 134.095 64 134.628 63.584C135.162 63.168 135.508 62.5493 135.668 61.728H138.1C137.962 62.624 137.647 63.408 137.156 64.08C136.666 64.7413 136.042 65.2533 135.284 65.616C134.527 65.9787 133.679 66.16 132.74 66.16ZM143.285 66.16C142.389 66.16 141.6 65.984 140.917 65.632C140.245 65.2693 139.717 64.768 139.333 64.128C138.96 63.4773 138.773 62.7307 138.773 61.888C138.773 61.0453 138.96 60.3093 139.333 59.68C139.717 59.0507 140.245 58.56 140.917 58.208C141.6 57.856 142.389 57.68 143.285 57.68C144.192 57.68 144.981 57.856 145.653 58.208C146.336 58.56 146.864 59.0507 147.237 59.68C147.61 60.3093 147.797 61.0453 147.797 61.888C147.797 62.7307 147.605 63.4773 147.221 64.128C146.848 64.768 146.32 65.2693 145.637 65.632C144.965 65.984 144.181 66.16 143.285 66.16ZM143.285 64.272C143.658 64.272 143.994 64.176 144.293 63.984C144.602 63.792 144.848 63.52 145.029 63.168C145.21 62.8053 145.301 62.3733 145.301 61.872C145.301 61.136 145.104 60.5707 144.709 60.176C144.325 59.7707 143.85 59.568 143.285 59.568C142.72 59.568 142.24 59.7707 141.845 60.176C141.461 60.5813 141.269 61.1467 141.269 61.872C141.269 62.3733 141.36 62.8053 141.541 63.168C141.722 63.52 141.962 63.792 142.261 63.984C142.57 64.176 142.912 64.272 143.285 64.272ZM148.804 62.608V60.688H154.66V62.608H148.804ZM161.49 66.16C160.658 66.16 159.89 66.016 159.186 65.728C158.482 65.4293 157.869 65.0133 157.346 64.48C156.834 63.9467 156.434 63.3173 156.146 62.592C155.858 61.856 155.714 61.056 155.714 60.192C155.714 59.328 155.853 58.5387 156.13 57.824C156.418 57.1093 156.818 56.4907 157.33 55.968C157.853 55.4347 158.466 55.0293 159.17 54.752C159.874 54.464 160.648 54.32 161.49 54.32C162.44 54.32 163.293 54.5067 164.05 54.88C164.818 55.2427 165.442 55.76 165.922 56.432C166.413 57.0933 166.712 57.872 166.818 58.768H164.418C164.28 57.9467 163.944 57.328 163.41 56.912C162.877 56.4853 162.242 56.272 161.506 56.272C160.856 56.272 160.28 56.4267 159.778 56.736C159.288 57.0453 158.904 57.4933 158.626 58.08C158.349 58.656 158.21 59.3547 158.21 60.176C158.21 61.008 158.349 61.728 158.626 62.336C158.914 62.9333 159.309 63.3973 159.81 63.728C160.312 64.048 160.888 64.208 161.538 64.208C162.232 64.208 162.845 64 163.378 63.584C163.912 63.168 164.258 62.5493 164.418 61.728H166.85C166.712 62.624 166.397 63.408 165.906 64.08C165.416 64.7413 164.792 65.2533 164.034 65.616C163.277 65.9787 162.429 66.16 161.49 66.16ZM172.035 66.16C171.139 66.16 170.35 65.984 169.667 65.632C168.995 65.2693 168.467 64.768 168.083 64.128C167.71 63.4773 167.523 62.7307 167.523 61.888C167.523 61.0453 167.71 60.3093 168.083 59.68C168.467 59.0507 168.995 58.56 169.667 58.208C170.35 57.856 171.139 57.68 172.035 57.68C172.942 57.68 173.731 57.856 174.403 58.208C175.086 58.56 175.614 59.0507 175.987 59.68C176.36 60.3093 176.547 61.0453 176.547 61.888C176.547 62.7307 176.355 63.4773 175.971 64.128C175.598 64.768 175.07 65.2693 174.387 65.632C173.715 65.984 172.931 66.16 172.035 66.16ZM172.035 64.272C172.408 64.272 172.744 64.176 173.043 63.984C173.352 63.792 173.598 63.52 173.779 63.168C173.96 62.8053 174.051 62.3733 174.051 61.872C174.051 61.136 173.854 60.5707 173.459 60.176C173.075 59.7707 172.6 59.568 172.035 59.568C171.47 59.568 170.99 59.7707 170.595 60.176C170.211 60.5813 170.019 61.1467 170.019 61.872C170.019 62.3733 170.11 62.8053 170.291 63.168C170.472 63.52 170.712 63.792 171.011 63.984C171.32 64.176 171.662 64.272 172.035 64.272ZM177.819 66V57.84H180.171V59.76H180.219V66H177.819ZM183.499 66V60.944C183.499 60.496 183.382 60.16 183.147 59.936C182.923 59.712 182.593 59.6 182.155 59.6C181.782 59.6 181.446 59.6853 181.147 59.856C180.859 60.0267 180.63 60.2613 180.459 60.56C180.299 60.8587 180.219 61.2107 180.219 61.616L180.011 59.648C180.278 59.0507 180.667 58.576 181.179 58.224C181.702 57.8613 182.342 57.68 183.099 57.68C184.006 57.68 184.699 57.936 185.179 58.448C185.659 58.9493 185.899 59.6267 185.899 60.48V66H183.499ZM189.606 66L186.39 57.84H188.966L191.478 65.456H190.134L192.63 57.84H195.142L191.926 66H189.606ZM199.659 66.16C198.753 66.16 197.963 65.984 197.291 65.632C196.619 65.2693 196.097 64.768 195.723 64.128C195.361 63.488 195.179 62.752 195.179 61.92C195.179 61.0773 195.361 60.3413 195.723 59.712C196.097 59.072 196.614 58.576 197.275 58.224C197.937 57.8613 198.705 57.68 199.579 57.68C200.422 57.68 201.153 57.8507 201.771 58.192C202.39 58.5333 202.87 59.008 203.211 59.616C203.553 60.224 203.723 60.9387 203.723 61.76C203.723 61.9307 203.718 62.0907 203.707 62.24C203.697 62.3787 203.681 62.512 203.659 62.64H196.587V61.056H201.723L201.307 61.344C201.307 60.6827 201.147 60.1973 200.827 59.888C200.518 59.568 200.091 59.408 199.547 59.408C198.918 59.408 198.427 59.6213 198.075 60.048C197.734 60.4747 197.563 61.1147 197.563 61.968C197.563 62.8 197.734 63.4187 198.075 63.824C198.427 64.2293 198.95 64.432 199.643 64.432C200.027 64.432 200.358 64.368 200.635 64.24C200.913 64.112 201.121 63.904 201.259 63.616H203.515C203.249 64.4053 202.79 65.0293 202.139 65.488C201.499 65.936 200.673 66.16 199.659 66.16ZM205.007 66V57.84H207.359V59.76H207.407V66H205.007ZM210.687 66V60.944C210.687 60.496 210.57 60.16 210.335 59.936C210.111 59.712 209.78 59.6 209.343 59.6C208.97 59.6 208.634 59.6853 208.335 59.856C208.047 60.0267 207.818 60.2613 207.647 60.56C207.487 60.8587 207.407 61.2107 207.407 61.616L207.199 59.648C207.466 59.0507 207.855 58.576 208.367 58.224C208.89 57.8613 209.53 57.68 210.287 57.68C211.194 57.68 211.887 57.936 212.367 58.448C212.847 58.9493 213.087 59.6267 213.087 60.48V66H210.687ZM218.753 66.16C217.846 66.16 217.057 65.984 216.385 65.632C215.713 65.2693 215.19 64.768 214.817 64.128C214.454 63.488 214.273 62.752 214.273 61.92C214.273 61.0773 214.454 60.3413 214.817 59.712C215.19 59.072 215.708 58.576 216.369 58.224C217.03 57.8613 217.798 57.68 218.673 57.68C219.516 57.68 220.246 57.8507 220.865 58.192C221.484 58.5333 221.964 59.008 222.305 59.616C222.646 60.224 222.817 60.9387 222.817 61.76C222.817 61.9307 222.812 62.0907 222.801 62.24C222.79 62.3787 222.774 62.512 222.753 62.64H215.681V61.056H220.817L220.401 61.344C220.401 60.6827 220.241 60.1973 219.921 59.888C219.612 59.568 219.185 59.408 218.641 59.408C218.012 59.408 217.521 59.6213 217.169 60.048C216.828 60.4747 216.657 61.1147 216.657 61.968C216.657 62.8 216.828 63.4187 217.169 63.824C217.521 64.2293 218.044 64.432 218.737 64.432C219.121 64.432 219.452 64.368 219.729 64.24C220.006 64.112 220.214 63.904 220.353 63.616H222.609C222.342 64.4053 221.884 65.0293 221.233 65.488C220.593 65.936 219.766 66.16 218.753 66.16ZM224.101 66V57.84H226.453V59.76H226.501V66H224.101ZM226.501 61.744L226.293 59.808C226.485 59.1147 226.799 58.5867 227.237 58.224C227.674 57.8613 228.218 57.68 228.869 57.68C229.071 57.68 229.221 57.7013 229.317 57.744V59.984C229.263 59.9627 229.189 59.952 229.093 59.952C228.997 59.9413 228.879 59.936 228.741 59.936C227.973 59.936 227.407 60.0747 227.045 60.352C226.682 60.6187 226.501 61.0827 226.501 61.744Z" fill="black"/>
<defs>
<filter id="filter0_d_40_67" x="0.667387" y="0.9" width="357.433" height="97.2" filterUnits="userSpaceOnUse" color-interpolation-filters="sRGB">
<feFlood flood-opacity="0" result="BackgroundImageFix"/>
<feColorMatrix in="SourceAlpha" type="matrix" values="0 0 0 0 0 0 0 0 0 0 0 0 0 0 0 0 0 0 127 0" result="hardAlpha"/>
<feOffset dy="4"/>
<feGaussianBlur stdDeviation="9.55"/>
<feComposite in2="hardAlpha" operator="out"/>
<feColorMatrix type="matrix" values="0 0 0 0 0.556863 0 0 0 0 0.411765 0 0 0 0 0.686275 0 0 0 0.7 0"/>
<feBlend mode="normal" in2="BackgroundImageFix" result="effect1_dropShadow_40_67"/>
<feBlend mode="normal" in="SourceGraphic" in2="effect1_dropShadow_40_67" result="shape"/>
</filter>
</defs>
</svg>
