<svg width="359" height="99" viewBox="0 0 359 99" fill="none" xmlns="http://www.w3.org/2000/svg">
<g filter="url(#filter0_d_40_67)">
<rect x="19.7674" y="16" width="319.233" height="59" fill="#C28DEF" fill-opacity="0.72" shape-rendering="crispEdges"/>
</g>
<path d="M19 10.6667C16.0545 10.6667 13.6667 13.0545 13.6667 16C13.6667 18.9455 16.0545 21.3333 19 21.3333C21.9455 21.3333 24.3333 18.9455 24.3333 16C24.3333 13.0545 21.9455 10.6667 19 10.6667ZM18 16L18 75H20L20 16H18Z" fill="white"/>
<path d="M339 69.6667C336.054 69.6667 333.667 72.0545 333.667 75C333.667 77.9455 336.054 80.3333 339 80.3333C341.946 80.3333 344.333 77.9455 344.333 75C344.333 72.0545 341.946 69.6667 339 69.6667ZM338 16V75H340V16H338Z" fill="white"/>
<path d="M84.9963 43V24.28H89.0003V43H84.9963ZM87.7263 33.276L96.1503 24.28H101.48L92.5883 33.276H87.7263ZM96.5663 43L87.6743 33.276H92.5883L102 43H96.5663ZM103.69 43V29.74H107.512V32.86H107.59V43H103.69ZM107.59 36.084L107.252 32.938C107.564 31.8113 108.075 30.9533 108.786 30.364C109.497 29.7747 110.381 29.48 111.438 29.48C111.767 29.48 112.01 29.5147 112.166 29.584V33.224C112.079 33.1893 111.958 33.172 111.802 33.172C111.646 33.1547 111.455 33.146 111.23 33.146C109.982 33.146 109.063 33.3713 108.474 33.822C107.885 34.2553 107.59 35.0093 107.59 36.084ZM113.846 43V29.74H117.746V43H113.846ZM113.716 27.972V23.76H117.876V27.972H113.716ZM126.134 43.26C124.192 43.26 122.65 42.87 121.506 42.09C120.362 41.31 119.738 40.2353 119.634 38.866H123.118C123.204 39.4553 123.499 39.906 124.002 40.218C124.522 40.5127 125.232 40.66 126.134 40.66C126.948 40.66 127.538 40.5473 127.902 40.322C128.283 40.0793 128.474 39.7413 128.474 39.308C128.474 38.9787 128.361 38.7273 128.136 38.554C127.928 38.3633 127.538 38.2073 126.966 38.086L124.834 37.644C123.256 37.3147 122.095 36.8207 121.35 36.162C120.604 35.486 120.232 34.6193 120.232 33.562C120.232 32.2793 120.726 31.2827 121.714 30.572C122.702 29.844 124.08 29.48 125.848 29.48C127.598 29.48 128.994 29.8353 130.034 30.546C131.074 31.2393 131.646 32.21 131.75 33.458H128.266C128.196 33.0073 127.954 32.6693 127.538 32.444C127.122 32.2013 126.532 32.08 125.77 32.08C125.076 32.08 124.556 32.184 124.21 32.392C123.88 32.5827 123.716 32.86 123.716 33.224C123.716 33.536 123.854 33.7873 124.132 33.978C124.409 34.1513 124.868 34.3073 125.51 34.446L127.902 34.94C129.236 35.2173 130.242 35.7373 130.918 36.5C131.611 37.2453 131.958 38.1293 131.958 39.152C131.958 40.452 131.446 41.466 130.424 42.194C129.418 42.9047 127.988 43.26 126.134 43.26ZM133.879 43V24.28H137.779V43H133.879ZM143.109 43V34.784C143.109 34.056 142.919 33.51 142.537 33.146C142.173 32.782 141.636 32.6 140.925 32.6C140.319 32.6 139.773 32.7387 139.287 33.016C138.819 33.2933 138.447 33.6747 138.169 34.16C137.909 34.6453 137.779 35.2173 137.779 35.876L137.441 32.678C137.875 31.7073 138.507 30.936 139.339 30.364C140.189 29.7747 141.229 29.48 142.459 29.48C143.933 29.48 145.059 29.896 145.839 30.728C146.619 31.5427 147.009 32.6433 147.009 34.03V43H143.109ZM149.977 43V29.74H153.799V32.86H153.877V43H149.977ZM159.207 43V34.784C159.207 34.056 159.016 33.51 158.635 33.146C158.271 32.782 157.734 32.6 157.023 32.6C156.416 32.6 155.87 32.7387 155.385 33.016C154.917 33.2933 154.544 33.6747 154.267 34.16C154.007 34.6453 153.877 35.2173 153.877 35.876L153.539 32.678C153.972 31.7073 154.605 30.936 155.437 30.364C156.286 29.7747 157.326 29.48 158.557 29.48C160.03 29.48 161.157 29.896 161.937 30.728C162.717 31.5427 163.107 32.6433 163.107 34.03V43H159.207ZM174.091 43C173.987 42.6187 173.909 42.2113 173.857 41.778C173.822 41.3447 173.805 40.842 173.805 40.27H173.701V34.004C173.701 33.4667 173.519 33.0507 173.155 32.756C172.808 32.444 172.288 32.288 171.595 32.288C170.936 32.288 170.407 32.4007 170.009 32.626C169.627 32.8513 169.376 33.1807 169.255 33.614H165.537C165.71 32.418 166.325 31.43 167.383 30.65C168.44 29.87 169.887 29.48 171.725 29.48C173.631 29.48 175.087 29.9047 176.093 30.754C177.098 31.6033 177.601 32.8253 177.601 34.42V40.27C177.601 40.7033 177.627 41.1453 177.679 41.596C177.748 42.0293 177.852 42.4973 177.991 43H174.091ZM169.463 43.26C168.145 43.26 167.097 42.9307 166.317 42.272C165.537 41.596 165.147 40.7033 165.147 39.594C165.147 38.3633 165.606 37.3753 166.525 36.63C167.461 35.8673 168.761 35.3733 170.425 35.148L174.299 34.602V36.864L171.075 37.358C170.381 37.462 169.87 37.6527 169.541 37.93C169.211 38.2073 169.047 38.5887 169.047 39.074C169.047 39.5073 169.203 39.8367 169.515 40.062C169.827 40.2873 170.243 40.4 170.763 40.4C171.577 40.4 172.271 40.1833 172.843 39.75C173.415 39.2993 173.701 38.7793 173.701 38.19L174.065 40.27C173.683 41.258 173.103 42.0033 172.323 42.506C171.543 43.0087 170.589 43.26 169.463 43.26ZM183.349 43L178.123 29.74H182.309L186.391 42.116H184.207L188.263 29.74H192.345L187.119 43H183.349ZM207.799 43.26C205.771 43.26 204.029 42.8613 202.573 42.064C201.117 41.2667 199.99 40.1487 199.193 38.71C198.413 37.2713 198.023 35.59 198.023 33.666C198.023 31.7593 198.422 30.0867 199.219 28.648C200.016 27.192 201.117 26.0567 202.521 25.242C203.942 24.4273 205.589 24.02 207.461 24.02C209.004 24.02 210.382 24.2973 211.595 24.852C212.826 25.4067 213.814 26.1693 214.559 27.14C215.322 28.0933 215.772 29.2027 215.911 30.468H211.907C211.734 29.4453 211.248 28.648 210.451 28.076C209.671 27.4867 208.692 27.192 207.513 27.192C206.421 27.192 205.468 27.452 204.653 27.972C203.838 28.4747 203.206 29.2027 202.755 30.156C202.304 31.1093 202.079 32.2533 202.079 33.588C202.079 34.9747 202.304 36.162 202.755 37.15C203.206 38.1207 203.864 38.866 204.731 39.386C205.615 39.8887 206.698 40.14 207.981 40.14C209.021 40.14 209.905 40.01 210.633 39.75C211.361 39.49 211.916 39.126 212.297 38.658L216.093 40.166C215.088 41.1713 213.918 41.9427 212.583 42.48C211.266 43 209.671 43.26 207.799 43.26ZM212.089 40.166V35.018L212.895 35.824H207.955V32.756H216.093V40.166H212.089ZM222.746 43.26C221.81 43.26 221.004 43.0607 220.328 42.662C219.669 42.246 219.166 41.7 218.82 41.024C218.473 40.3307 218.3 39.5593 218.3 38.71V29.74H222.2V37.956C222.2 38.684 222.382 39.23 222.746 39.594C223.11 39.958 223.621 40.14 224.28 40.14C224.869 40.14 225.389 40.0013 225.84 39.724C226.29 39.4467 226.646 39.0653 226.906 38.58C227.183 38.0773 227.322 37.5053 227.322 36.864L227.66 40.062C227.226 41.0153 226.594 41.7867 225.762 42.376C224.93 42.9653 223.924 43.26 222.746 43.26ZM227.4 43V39.88H227.322V29.74H231.222V43H227.4ZM242.436 43.26C241.171 43.26 240.157 42.9653 239.394 42.376C238.631 41.7867 238.181 40.9807 238.042 39.958L238.25 39.932V48.33H234.35V29.74H238.172V32.678L237.938 32.626C238.129 31.6553 238.649 30.8927 239.498 30.338C240.347 29.766 241.396 29.48 242.644 29.48C243.84 29.48 244.871 29.766 245.738 30.338C246.622 30.8927 247.298 31.6813 247.766 32.704C248.251 33.7267 248.494 34.9313 248.494 36.318C248.494 37.722 248.243 38.944 247.74 39.984C247.237 41.024 246.535 41.83 245.634 42.402C244.733 42.974 243.667 43.26 242.436 43.26ZM241.344 40.14C242.263 40.14 243.008 39.8107 243.58 39.152C244.152 38.4933 244.438 37.5573 244.438 36.344C244.438 35.1307 244.143 34.2033 243.554 33.562C242.982 32.9207 242.228 32.6 241.292 32.6C240.391 32.6 239.645 32.9293 239.056 33.588C238.484 34.2293 238.198 35.1567 238.198 36.37C238.198 37.5833 238.484 38.5193 239.056 39.178C239.645 39.8193 240.408 40.14 241.344 40.14ZM256.613 43.286C254.914 43.286 253.649 42.8787 252.817 42.064C252.002 41.232 251.595 39.9753 251.595 38.294V26.776L255.495 25.32V38.424C255.495 39.0133 255.659 39.4553 255.989 39.75C256.318 40.0447 256.829 40.192 257.523 40.192C257.783 40.192 258.025 40.166 258.251 40.114C258.476 40.062 258.701 40.0013 258.927 39.932V42.896C258.701 43.0173 258.381 43.1127 257.965 43.182C257.566 43.2513 257.115 43.286 256.613 43.286ZM249.125 32.704V29.74H258.927V32.704H249.125ZM269.356 43C269.252 42.6187 269.174 42.2113 269.122 41.778C269.088 41.3447 269.07 40.842 269.07 40.27H268.966V34.004C268.966 33.4667 268.784 33.0507 268.42 32.756C268.074 32.444 267.554 32.288 266.86 32.288C266.202 32.288 265.673 32.4007 265.274 32.626C264.893 32.8513 264.642 33.1807 264.52 33.614H260.802C260.976 32.418 261.591 31.43 262.648 30.65C263.706 29.87 265.153 29.48 266.99 29.48C268.897 29.48 270.353 29.9047 271.358 30.754C272.364 31.6033 272.866 32.8253 272.866 34.42V40.27C272.866 40.7033 272.892 41.1453 272.944 41.596C273.014 42.0293 273.118 42.4973 273.256 43H269.356ZM264.728 43.26C263.411 43.26 262.362 42.9307 261.582 42.272C260.802 41.596 260.412 40.7033 260.412 39.594C260.412 38.3633 260.872 37.3753 261.79 36.63C262.726 35.8673 264.026 35.3733 265.69 35.148L269.564 34.602V36.864L266.34 37.358C265.647 37.462 265.136 37.6527 264.806 37.93C264.477 38.2073 264.312 38.5887 264.312 39.074C264.312 39.5073 264.468 39.8367 264.78 40.062C265.092 40.2873 265.508 40.4 266.028 40.4C266.843 40.4 267.536 40.1833 268.108 39.75C268.68 39.2993 268.966 38.7793 268.966 38.19L269.33 40.27C268.949 41.258 268.368 42.0033 267.588 42.506C266.808 43.0087 265.855 43.26 264.728 43.26Z" fill="black"/>
<path d="M107.472 66V54.48H111.312L114.512 65.584H113.12L116.32 54.48H120.176V66H117.744V55.168H118.16L115.04 66H112.496L109.408 55.264H109.808V66H107.472ZM127.065 66C127.001 65.7653 126.953 65.5147 126.921 65.248C126.899 64.9813 126.889 64.672 126.889 64.32H126.825V60.464C126.825 60.1333 126.713 59.8773 126.489 59.696C126.275 59.504 125.955 59.408 125.529 59.408C125.123 59.408 124.798 59.4773 124.553 59.616C124.318 59.7547 124.163 59.9573 124.089 60.224H121.801C121.907 59.488 122.286 58.88 122.937 58.4C123.587 57.92 124.478 57.68 125.609 57.68C126.782 57.68 127.678 57.9413 128.297 58.464C128.915 58.9867 129.225 59.7387 129.225 60.72V64.32C129.225 64.5867 129.241 64.8587 129.273 65.136C129.315 65.4027 129.379 65.6907 129.465 66H127.065ZM124.217 66.16C123.406 66.16 122.761 65.9573 122.281 65.552C121.801 65.136 121.561 64.5867 121.561 63.904C121.561 63.1467 121.843 62.5387 122.409 62.08C122.985 61.6107 123.785 61.3067 124.809 61.168L127.193 60.832V62.224L125.209 62.528C124.782 62.592 124.467 62.7093 124.265 62.88C124.062 63.0507 123.961 63.2853 123.961 63.584C123.961 63.8507 124.057 64.0533 124.249 64.192C124.441 64.3307 124.697 64.4 125.017 64.4C125.518 64.4 125.945 64.2667 126.297 64C126.649 63.7227 126.825 63.4027 126.825 63.04L127.049 64.32C126.814 64.928 126.457 65.3867 125.977 65.696C125.497 66.0053 124.91 66.16 124.217 66.16ZM131.069 66V57.84H133.421V59.76H133.469V66H131.069ZM136.749 66V60.944C136.749 60.496 136.632 60.16 136.397 59.936C136.173 59.712 135.843 59.6 135.405 59.6C135.032 59.6 134.696 59.6853 134.397 59.856C134.109 60.0267 133.88 60.2613 133.709 60.56C133.549 60.8587 133.469 61.2107 133.469 61.616L133.261 59.648C133.528 59.0507 133.917 58.576 134.429 58.224C134.952 57.8613 135.592 57.68 136.349 57.68C137.256 57.68 137.949 57.936 138.429 58.448C138.909 58.9493 139.149 59.6267 139.149 60.48V66H136.749ZM145.909 66C145.845 65.7653 145.797 65.5147 145.765 65.248C145.743 64.9813 145.733 64.672 145.733 64.32H145.669V60.464C145.669 60.1333 145.557 59.8773 145.333 59.696C145.119 59.504 144.799 59.408 144.373 59.408C143.967 59.408 143.642 59.4773 143.397 59.616C143.162 59.7547 143.007 59.9573 142.933 60.224H140.645C140.751 59.488 141.13 58.88 141.781 58.4C142.431 57.92 143.322 57.68 144.453 57.68C145.626 57.68 146.522 57.9413 147.141 58.464C147.759 58.9867 148.069 59.7387 148.069 60.72V64.32C148.069 64.5867 148.085 64.8587 148.117 65.136C148.159 65.4027 148.223 65.6907 148.309 66H145.909ZM143.061 66.16C142.25 66.16 141.605 65.9573 141.125 65.552C140.645 65.136 140.405 64.5867 140.405 63.904C140.405 63.1467 140.687 62.5387 141.253 62.08C141.829 61.6107 142.629 61.3067 143.653 61.168L146.037 60.832V62.224L144.053 62.528C143.626 62.592 143.311 62.7093 143.109 62.88C142.906 63.0507 142.805 63.2853 142.805 63.584C142.805 63.8507 142.901 64.0533 143.093 64.192C143.285 64.3307 143.541 64.4 143.861 64.4C144.362 64.4 144.789 64.2667 145.141 64C145.493 63.7227 145.669 63.4027 145.669 63.04L145.893 64.32C145.658 64.928 145.301 65.3867 144.821 65.696C144.341 66.0053 143.754 66.16 143.061 66.16ZM153.486 69.44C152.355 69.44 151.432 69.2 150.718 68.72C150.014 68.24 149.598 67.5893 149.47 66.768H151.742C151.827 66.9707 152.008 67.1253 152.286 67.232C152.574 67.3387 152.936 67.392 153.374 67.392C154.099 67.392 154.627 67.2533 154.958 66.976C155.288 66.6987 155.454 66.2667 155.454 65.68V63.904L155.582 63.936C155.475 64.5333 155.166 65.008 154.654 65.36C154.142 65.7013 153.507 65.872 152.75 65.872C152.024 65.872 151.39 65.7067 150.846 65.376C150.312 65.0347 149.896 64.56 149.598 63.952C149.299 63.344 149.15 62.6293 149.15 61.808C149.15 60.976 149.304 60.2507 149.614 59.632C149.923 59.0133 150.355 58.5333 150.91 58.192C151.475 57.8507 152.131 57.68 152.878 57.68C153.646 57.68 154.27 57.8613 154.75 58.224C155.24 58.5867 155.528 59.0827 155.614 59.712L155.502 59.728V57.84H157.854V65.648C157.854 66.8213 157.464 67.744 156.686 68.416C155.907 69.0987 154.84 69.44 153.486 69.44ZM153.582 64.032C154.147 64.032 154.606 63.84 154.958 63.456C155.31 63.0613 155.486 62.5013 155.486 61.776C155.486 61.0507 155.304 60.496 154.942 60.112C154.59 59.7173 154.126 59.52 153.55 59.52C152.995 59.52 152.536 59.7173 152.174 60.112C151.822 60.5067 151.646 61.0667 151.646 61.792C151.646 62.5173 151.822 63.072 152.174 63.456C152.536 63.84 153.006 64.032 153.582 64.032ZM159.773 66V57.84H162.173V66H159.773ZM159.693 56.752V54.16H162.253V56.752H159.693ZM164.085 66V57.84H166.437V59.76H166.485V66H164.085ZM169.765 66V60.944C169.765 60.496 169.648 60.16 169.413 59.936C169.189 59.712 168.858 59.6 168.421 59.6C168.048 59.6 167.712 59.6853 167.413 59.856C167.125 60.0267 166.896 60.2613 166.725 60.56C166.565 60.8587 166.485 61.2107 166.485 61.616L166.277 59.648C166.544 59.0507 166.933 58.576 167.445 58.224C167.968 57.8613 168.608 57.68 169.365 57.68C170.272 57.68 170.965 57.936 171.445 58.448C171.925 58.9493 172.165 59.6267 172.165 60.48V66H169.765ZM177.72 69.44C176.589 69.44 175.667 69.2 174.952 68.72C174.248 68.24 173.832 67.5893 173.704 66.768H175.976C176.061 66.9707 176.243 67.1253 176.52 67.232C176.808 67.3387 177.171 67.392 177.608 67.392C178.333 67.392 178.861 67.2533 179.192 66.976C179.523 66.6987 179.688 66.2667 179.688 65.68V63.904L179.816 63.936C179.709 64.5333 179.4 65.008 178.888 65.36C178.376 65.7013 177.741 65.872 176.984 65.872C176.259 65.872 175.624 65.7067 175.08 65.376C174.547 65.0347 174.131 64.56 173.832 63.952C173.533 63.344 173.384 62.6293 173.384 61.808C173.384 60.976 173.539 60.2507 173.848 59.632C174.157 59.0133 174.589 58.5333 175.144 58.192C175.709 57.8507 176.365 57.68 177.112 57.68C177.88 57.68 178.504 57.8613 178.984 58.224C179.475 58.5867 179.763 59.0827 179.848 59.712L179.736 59.728V57.84H182.088V65.648C182.088 66.8213 181.699 67.744 180.92 68.416C180.141 69.0987 179.075 69.44 177.72 69.44ZM177.816 64.032C178.381 64.032 178.84 63.84 179.192 63.456C179.544 63.0613 179.72 62.5013 179.72 61.776C179.72 61.0507 179.539 60.496 179.176 60.112C178.824 59.7173 178.36 59.52 177.784 59.52C177.229 59.52 176.771 59.7173 176.408 60.112C176.056 60.5067 175.88 61.0667 175.88 61.792C175.88 62.5173 176.056 63.072 176.408 63.456C176.771 63.84 177.24 64.032 177.816 64.032ZM188.398 66V64.08H191.31C192.142 64.08 192.846 63.9147 193.422 63.584C194.008 63.2427 194.451 62.7787 194.75 62.192C195.059 61.6053 195.214 60.9333 195.214 60.176C195.214 59.4293 195.064 58.7733 194.766 58.208C194.467 57.6427 194.024 57.2 193.438 56.88C192.862 56.56 192.152 56.4 191.31 56.4H188.446V54.48H191.31C192.6 54.48 193.726 54.7147 194.686 55.184C195.646 55.6427 196.387 56.304 196.91 57.168C197.443 58.0213 197.71 59.0347 197.71 60.208C197.71 61.3813 197.443 62.4053 196.91 63.28C196.376 64.144 195.63 64.816 194.67 65.296C193.72 65.7653 192.606 66 191.326 66H188.398ZM186.894 66V54.48H189.358V66H186.894ZM199.023 66V57.84H201.423V66H199.023ZM198.943 56.752V54.16H201.503V56.752H198.943ZM203.335 66V57.84H205.687V59.76H205.735V66H203.335ZM205.735 61.744L205.527 59.808C205.719 59.1147 206.034 58.5867 206.471 58.224C206.908 57.8613 207.452 57.68 208.103 57.68C208.306 57.68 208.455 57.7013 208.551 57.744V59.984C208.498 59.9627 208.423 59.952 208.327 59.952C208.231 59.9413 208.114 59.936 207.975 59.936C207.207 59.936 206.642 60.0747 206.279 60.352C205.916 60.6187 205.735 61.0827 205.735 61.744ZM213.425 66.16C212.518 66.16 211.729 65.984 211.057 65.632C210.385 65.2693 209.862 64.768 209.489 64.128C209.126 63.488 208.945 62.752 208.945 61.92C208.945 61.0773 209.126 60.3413 209.489 59.712C209.862 59.072 210.38 58.576 211.041 58.224C211.702 57.8613 212.47 57.68 213.345 57.68C214.188 57.68 214.918 57.8507 215.537 58.192C216.156 58.5333 216.636 59.008 216.977 59.616C217.318 60.224 217.489 60.9387 217.489 61.76C217.489 61.9307 217.484 62.0907 217.473 62.24C217.462 62.3787 217.446 62.512 217.425 62.64H210.353V61.056H215.489L215.073 61.344C215.073 60.6827 214.913 60.1973 214.593 59.888C214.284 59.568 213.857 59.408 213.313 59.408C212.684 59.408 212.193 59.6213 211.841 60.048C211.5 60.4747 211.329 61.1147 211.329 61.968C211.329 62.8 211.5 63.4187 211.841 63.824C212.193 64.2293 212.716 64.432 213.409 64.432C213.793 64.432 214.124 64.368 214.401 64.24C214.678 64.112 214.886 63.904 215.025 63.616H217.281C217.014 64.4053 216.556 65.0293 215.905 65.488C215.265 65.936 214.438 66.16 213.425 66.16ZM222.625 66.16C221.771 66.16 221.019 65.9787 220.369 65.616C219.718 65.2533 219.206 64.752 218.833 64.112C218.47 63.472 218.289 62.7413 218.289 61.92C218.289 61.0987 218.47 60.368 218.833 59.728C219.206 59.088 219.718 58.5867 220.369 58.224C221.019 57.8613 221.771 57.68 222.625 57.68C223.339 57.68 223.979 57.8133 224.545 58.08C225.121 58.336 225.59 58.6933 225.953 59.152C226.326 59.6107 226.566 60.1493 226.673 60.768H224.353C224.235 60.3733 224.022 60.0747 223.713 59.872C223.414 59.6693 223.062 59.568 222.657 59.568C222.273 59.568 221.937 59.664 221.649 59.856C221.371 60.048 221.158 60.32 221.009 60.672C220.859 61.024 220.785 61.44 220.785 61.92C220.785 62.4 220.859 62.816 221.009 63.168C221.158 63.52 221.371 63.792 221.649 63.984C221.937 64.176 222.273 64.272 222.657 64.272C223.062 64.272 223.414 64.1707 223.713 63.968C224.022 63.7653 224.235 63.4667 224.353 63.072H226.673C226.566 63.6907 226.326 64.2293 225.953 64.688C225.59 65.1467 225.121 65.5093 224.545 65.776C223.979 66.032 223.339 66.16 222.625 66.16ZM231.676 66.176C230.63 66.176 229.852 65.9253 229.34 65.424C228.838 64.912 228.588 64.1387 228.588 63.104V56.016L230.988 55.12V63.184C230.988 63.5467 231.089 63.8187 231.292 64C231.494 64.1813 231.809 64.272 232.236 64.272C232.396 64.272 232.545 64.256 232.684 64.224C232.822 64.192 232.961 64.1547 233.1 64.112V65.936C232.961 66.0107 232.764 66.0693 232.508 66.112C232.262 66.1547 231.985 66.176 231.676 66.176ZM227.068 59.664V57.84H233.1V59.664H227.068ZM238.129 66.16C237.233 66.16 236.444 65.984 235.761 65.632C235.089 65.2693 234.561 64.768 234.177 64.128C233.804 63.4773 233.617 62.7307 233.617 61.888C233.617 61.0453 233.804 60.3093 234.177 59.68C234.561 59.0507 235.089 58.56 235.761 58.208C236.444 57.856 237.233 57.68 238.129 57.68C239.036 57.68 239.825 57.856 240.497 58.208C241.18 58.56 241.708 59.0507 242.081 59.68C242.454 60.3093 242.641 61.0453 242.641 61.888C242.641 62.7307 242.449 63.4773 242.065 64.128C241.692 64.768 241.164 65.2693 240.481 65.632C239.809 65.984 239.025 66.16 238.129 66.16ZM238.129 64.272C238.502 64.272 238.838 64.176 239.137 63.984C239.446 63.792 239.692 63.52 239.873 63.168C240.054 62.8053 240.145 62.3733 240.145 61.872C240.145 61.136 239.948 60.5707 239.553 60.176C239.169 59.7707 238.694 59.568 238.129 59.568C237.564 59.568 237.084 59.7707 236.689 60.176C236.305 60.5813 236.113 61.1467 236.113 61.872C236.113 62.3733 236.204 62.8053 236.385 63.168C236.566 63.52 236.806 63.792 237.105 63.984C237.414 64.176 237.756 64.272 238.129 64.272ZM243.913 66V57.84H246.265V59.76H246.313V66H243.913ZM246.313 61.744L246.105 59.808C246.297 59.1147 246.612 58.5867 247.049 58.224C247.486 57.8613 248.03 57.68 248.681 57.68C248.884 57.68 249.033 57.7013 249.129 57.744V59.984C249.076 59.9627 249.001 59.952 248.905 59.952C248.809 59.9413 248.692 59.936 248.553 59.936C247.785 59.936 247.22 60.0747 246.857 60.352C246.494 60.6187 246.313 61.0827 246.313 61.744Z" fill="black"/>
<defs>
<filter id="filter0_d_40_67" x="0.667387" y="0.9" width="357.433" height="97.2" filterUnits="userSpaceOnUse" color-interpolation-filters="sRGB">
<feFlood flood-opacity="0" result="BackgroundImageFix"/>
<feColorMatrix in="SourceAlpha" type="matrix" values="0 0 0 0 0 0 0 0 0 0 0 0 0 0 0 0 0 0 127 0" result="hardAlpha"/>
<feOffset dy="4"/>
<feGaussianBlur stdDeviation="9.55"/>
<feComposite in2="hardAlpha" operator="out"/>
<feColorMatrix type="matrix" values="0 0 0 0 0.556863 0 0 0 0 0.411765 0 0 0 0 0.686275 0 0 0 0.7 0"/>
<feBlend mode="normal" in2="BackgroundImageFix" result="effect1_dropShadow_40_67"/>
<feBlend mode="normal" in="SourceGraphic" in2="effect1_dropShadow_40_67" result="shape"/>
</filter>
</defs>
</svg>
