<svg width="359" height="99" viewBox="0 0 359 99" fill="none" xmlns="http://www.w3.org/2000/svg">
<g filter="url(#filter0_d_40_67)">
<rect x="19.7674" y="16" width="319.233" height="59" fill="#C28DEF" fill-opacity="0.72" shape-rendering="crispEdges"/>
</g>
<path d="M19 10.6667C16.0545 10.6667 13.6667 13.0545 13.6667 16C13.6667 18.9455 16.0545 21.3333 19 21.3333C21.9455 21.3333 24.3333 18.9455 24.3333 16C24.3333 13.0545 21.9455 10.6667 19 10.6667ZM18 16L18 75H20L20 16H18Z" fill="white"/>
<path d="M339 69.6667C336.054 69.6667 333.667 72.0545 333.667 75C333.667 77.9455 336.054 80.3333 339 80.3333C341.946 80.3333 344.333 77.9455 344.333 75C344.333 72.0545 341.946 69.6667 339 69.6667ZM338 16V75H340V16H338Z" fill="white"/>
<path d="M26.2424 43V24.28H30.2464V43H26.2424ZM28.9724 33.276L37.3964 24.28H42.7264L33.8344 33.276H28.9724ZM37.8124 43L28.9204 33.276H33.8344L43.2464 43H37.8124ZM48.1342 43.26C47.1982 43.26 46.3922 43.0607 45.7162 42.662C45.0575 42.246 44.5548 41.7 44.2082 41.024C43.8615 40.3307 43.6882 39.5593 43.6882 38.71V29.74H47.5882V37.956C47.5882 38.684 47.7702 39.23 48.1342 39.594C48.4982 39.958 49.0095 40.14 49.6682 40.14C50.2575 40.14 50.7775 40.0013 51.2282 39.724C51.6788 39.4467 52.0342 39.0653 52.2942 38.58C52.5715 38.0773 52.7102 37.5053 52.7102 36.864L53.0482 40.062C52.6148 41.0153 51.9822 41.7867 51.1502 42.376C50.3182 42.9653 49.3128 43.26 48.1342 43.26ZM52.7882 43V39.88H52.7102V29.74H56.6102V43H52.7882ZM59.7387 43V24.28H63.6387V43H59.7387ZM66.0185 48.59C65.7239 48.59 65.4465 48.564 65.1865 48.512C64.9265 48.4773 64.6665 48.4253 64.4065 48.356V45.366C64.5452 45.418 64.6925 45.4527 64.8485 45.47C65.0045 45.5047 65.1692 45.522 65.3425 45.522C65.7932 45.522 66.1399 45.4093 66.3825 45.184C66.6252 44.976 66.7465 44.6553 66.7465 44.222V29.74H70.6465V44.274C70.6465 45.6087 70.2652 46.6573 69.5025 47.42C68.7572 48.2 67.5959 48.59 66.0185 48.59ZM66.6165 27.972V23.76H70.7765V27.972H66.6165ZM79.9182 43.26C78.4448 43.26 77.1622 42.974 76.0702 42.402C74.9782 41.8127 74.1288 40.998 73.5222 39.958C72.9328 38.918 72.6382 37.722 72.6382 36.37C72.6382 35.0007 72.9328 33.8047 73.5222 32.782C74.1288 31.742 74.9695 30.936 76.0442 30.364C77.1188 29.7747 78.3668 29.48 79.7882 29.48C81.1575 29.48 82.3448 29.7573 83.3502 30.312C84.3555 30.8667 85.1355 31.638 85.6902 32.626C86.2448 33.614 86.5222 34.7753 86.5222 36.11C86.5222 36.3873 86.5135 36.6473 86.4962 36.89C86.4788 37.1153 86.4528 37.332 86.4182 37.54H74.9262V34.966H83.2722L82.5962 35.434C82.5962 34.3593 82.3362 33.5707 81.8162 33.068C81.3135 32.548 80.6202 32.288 79.7362 32.288C78.7135 32.288 77.9162 32.6347 77.3442 33.328C76.7895 34.0213 76.5122 35.0613 76.5122 36.448C76.5122 37.8 76.7895 38.8053 77.3442 39.464C77.9162 40.1227 78.7655 40.452 79.8922 40.452C80.5162 40.452 81.0535 40.348 81.5042 40.14C81.9548 39.932 82.2928 39.594 82.5182 39.126H86.1842C85.7508 40.4087 85.0055 41.4227 83.9482 42.168C82.9082 42.896 81.5648 43.26 79.9182 43.26ZM95.1018 43.26C93.6284 43.26 92.3458 42.974 91.2538 42.402C90.1618 41.8127 89.3124 40.998 88.7058 39.958C88.1164 38.918 87.8218 37.722 87.8218 36.37C87.8218 35.0007 88.1164 33.8047 88.7058 32.782C89.3124 31.742 90.1531 30.936 91.2278 30.364C92.3024 29.7747 93.5504 29.48 94.9718 29.48C96.3411 29.48 97.5284 29.7573 98.5338 30.312C99.5391 30.8667 100.319 31.638 100.874 32.626C101.428 33.614 101.706 34.7753 101.706 36.11C101.706 36.3873 101.697 36.6473 101.68 36.89C101.662 37.1153 101.636 37.332 101.602 37.54H90.1098V34.966H98.4558L97.7798 35.434C97.7798 34.3593 97.5198 33.5707 96.9998 33.068C96.4971 32.548 95.8038 32.288 94.9198 32.288C93.8971 32.288 93.0998 32.6347 92.5278 33.328C91.9731 34.0213 91.6958 35.0613 91.6958 36.448C91.6958 37.8 91.9731 38.8053 92.5278 39.464C93.0998 40.1227 93.9491 40.452 95.0758 40.452C95.6998 40.452 96.2371 40.348 96.6878 40.14C97.1384 39.932 97.4764 39.594 97.7018 39.126H101.368C100.934 40.4087 100.189 41.4227 99.1318 42.168C98.0918 42.896 96.7484 43.26 95.1018 43.26ZM109.728 43.286C108.029 43.286 106.764 42.8787 105.932 42.064C105.117 41.232 104.71 39.9753 104.71 38.294V26.776L108.61 25.32V38.424C108.61 39.0133 108.775 39.4553 109.104 39.75C109.433 40.0447 109.945 40.192 110.638 40.192C110.898 40.192 111.141 40.166 111.366 40.114C111.591 40.062 111.817 40.0013 112.042 39.932V42.896C111.817 43.0173 111.496 43.1127 111.08 43.182C110.681 43.2513 110.231 43.286 109.728 43.286ZM102.24 32.704V29.74H112.042V32.704H102.24ZM126.767 43.234C124.34 43.234 122.399 42.6967 120.943 41.622C119.487 40.53 118.637 38.996 118.395 37.02H122.243C122.364 38.0253 122.849 38.8227 123.699 39.412C124.548 39.984 125.631 40.27 126.949 40.27C128.023 40.27 128.847 40.0793 129.419 39.698C130.008 39.3167 130.303 38.8053 130.303 38.164C130.303 37.5573 130.129 37.072 129.783 36.708C129.436 36.3267 128.838 36.0233 127.989 35.798L124.505 34.836C122.719 34.3333 121.411 33.6487 120.579 32.782C119.764 31.898 119.357 30.7973 119.357 29.48C119.357 28.3533 119.643 27.3827 120.215 26.568C120.804 25.736 121.627 25.1033 122.685 24.67C123.742 24.2193 124.981 23.994 126.403 23.994C128.587 23.994 130.329 24.514 131.629 25.554C132.929 26.5767 133.665 27.9373 133.839 29.636H129.991C129.817 28.7173 129.393 28.0413 128.717 27.608C128.058 27.1747 127.209 26.958 126.169 26.958C125.267 26.958 124.548 27.1313 124.011 27.478C123.473 27.8247 123.205 28.2927 123.205 28.882C123.205 29.3327 123.352 29.7487 123.647 30.13C123.941 30.494 124.557 30.806 125.493 31.066L128.977 32.028C130.814 32.5307 132.131 33.224 132.929 34.108C133.743 34.9747 134.151 36.0753 134.151 37.41C134.151 39.282 133.501 40.7207 132.201 41.726C130.901 42.7313 129.089 43.234 126.767 43.234ZM136.164 43V29.74H140.064V43H136.164ZM136.034 27.972V23.76H140.194V27.972H136.034ZM143.172 43V29.74H146.994V32.86H147.072V43H143.172ZM152.402 43V34.784C152.402 34.056 152.212 33.51 151.83 33.146C151.466 32.782 150.929 32.6 150.218 32.6C149.612 32.6 149.066 32.7387 148.58 33.016C148.112 33.2933 147.74 33.6747 147.462 34.16C147.202 34.6453 147.072 35.2173 147.072 35.876L146.734 32.678C147.168 31.7073 147.8 30.936 148.632 30.364C149.482 29.7747 150.522 29.48 151.752 29.48C153.226 29.48 154.352 29.896 155.132 30.728C155.912 31.5427 156.302 32.6433 156.302 34.03V43H152.402ZM165.329 48.59C163.492 48.59 161.993 48.2 160.831 47.42C159.687 46.64 159.011 45.5827 158.803 44.248H162.495C162.634 44.5773 162.929 44.8287 163.379 45.002C163.847 45.1753 164.437 45.262 165.147 45.262C166.326 45.262 167.184 45.0367 167.721 44.586C168.259 44.1353 168.527 43.4333 168.527 42.48V39.594L168.735 39.646C168.562 40.6167 168.059 41.388 167.227 41.96C166.395 42.5147 165.364 42.792 164.133 42.792C162.955 42.792 161.923 42.5233 161.039 41.986C160.173 41.4313 159.497 40.66 159.011 39.672C158.526 38.684 158.283 37.5227 158.283 36.188C158.283 34.836 158.535 33.6573 159.037 32.652C159.54 31.6467 160.242 30.8667 161.143 30.312C162.062 29.7573 163.128 29.48 164.341 29.48C165.589 29.48 166.603 29.7747 167.383 30.364C168.181 30.9533 168.649 31.7593 168.787 32.782L168.605 32.808V29.74H172.427V42.428C172.427 44.3347 171.795 45.834 170.529 46.926C169.264 48.0353 167.531 48.59 165.329 48.59ZM165.485 39.802C166.404 39.802 167.149 39.49 167.721 38.866C168.293 38.2247 168.579 37.3147 168.579 36.136C168.579 34.9573 168.285 34.056 167.695 33.432C167.123 32.7907 166.369 32.47 165.433 32.47C164.532 32.47 163.787 32.7907 163.197 33.432C162.625 34.0733 162.339 34.9833 162.339 36.162C162.339 37.3407 162.625 38.242 163.197 38.866C163.787 39.49 164.549 39.802 165.485 39.802ZM175.545 43V24.28H179.445V43H175.545ZM184.775 43V34.784C184.775 34.056 184.585 33.51 184.203 33.146C183.839 32.782 183.302 32.6 182.591 32.6C181.985 32.6 181.439 32.7387 180.953 33.016C180.485 33.2933 180.113 33.6747 179.835 34.16C179.575 34.6453 179.445 35.2173 179.445 35.876L179.107 32.678C179.541 31.7073 180.173 30.936 181.005 30.364C181.855 29.7747 182.895 29.48 184.125 29.48C185.599 29.48 186.725 29.896 187.505 30.728C188.285 31.5427 188.675 32.6433 188.675 34.03V43H184.775ZM204.03 43.234C201.604 43.234 199.662 42.6967 198.206 41.622C196.75 40.53 195.901 38.996 195.658 37.02H199.506C199.628 38.0253 200.113 38.8227 200.962 39.412C201.812 39.984 202.895 40.27 204.212 40.27C205.287 40.27 206.11 40.0793 206.682 39.698C207.272 39.3167 207.566 38.8053 207.566 38.164C207.566 37.5573 207.393 37.072 207.046 36.708C206.7 36.3267 206.102 36.0233 205.252 35.798L201.768 34.836C199.983 34.3333 198.674 33.6487 197.842 32.782C197.028 31.898 196.62 30.7973 196.62 29.48C196.62 28.3533 196.906 27.3827 197.478 26.568C198.068 25.736 198.891 25.1033 199.948 24.67C201.006 24.2193 202.245 23.994 203.666 23.994C205.85 23.994 207.592 24.514 208.892 25.554C210.192 26.5767 210.929 27.9373 211.102 29.636H207.254C207.081 28.7173 206.656 28.0413 205.98 27.608C205.322 27.1747 204.472 26.958 203.432 26.958C202.531 26.958 201.812 27.1313 201.274 27.478C200.737 27.8247 200.468 28.2927 200.468 28.882C200.468 29.3327 200.616 29.7487 200.91 30.13C201.205 30.494 201.82 30.806 202.756 31.066L206.24 32.028C208.078 32.5307 209.395 33.224 210.192 34.108C211.007 34.9747 211.414 36.0753 211.414 37.41C211.414 39.282 210.764 40.7207 209.464 41.726C208.164 42.7313 206.353 43.234 204.03 43.234ZM213.555 43V24.28H217.455V43H213.555ZM222.785 43V34.784C222.785 34.056 222.594 33.51 222.213 33.146C221.849 32.782 221.312 32.6 220.601 32.6C219.994 32.6 219.448 32.7387 218.963 33.016C218.495 33.2933 218.122 33.6747 217.845 34.16C217.585 34.6453 217.455 35.2173 217.455 35.876L217.117 32.678C217.55 31.7073 218.183 30.936 219.015 30.364C219.864 29.7747 220.904 29.48 222.135 29.48C223.608 29.48 224.735 29.896 225.515 30.728C226.295 31.5427 226.685 32.6433 226.685 34.03V43H222.785ZM235.893 43.26C234.419 43.26 233.137 42.974 232.045 42.402C230.953 41.8127 230.103 40.998 229.497 39.958C228.907 38.918 228.613 37.722 228.613 36.37C228.613 35.0007 228.907 33.8047 229.497 32.782C230.103 31.742 230.944 30.936 232.019 30.364C233.093 29.7747 234.341 29.48 235.763 29.48C237.132 29.48 238.319 29.7573 239.325 30.312C240.33 30.8667 241.11 31.638 241.665 32.626C242.219 33.614 242.497 34.7753 242.497 36.11C242.497 36.3873 242.488 36.6473 242.471 36.89C242.453 37.1153 242.427 37.332 242.393 37.54H230.901V34.966H239.247L238.571 35.434C238.571 34.3593 238.311 33.5707 237.791 33.068C237.288 32.548 236.595 32.288 235.711 32.288C234.688 32.288 233.891 32.6347 233.319 33.328C232.764 34.0213 232.487 35.0613 232.487 36.448C232.487 37.8 232.764 38.8053 233.319 39.464C233.891 40.1227 234.74 40.452 235.867 40.452C236.491 40.452 237.028 40.348 237.479 40.14C237.929 39.932 238.267 39.594 238.493 39.126H242.159C241.725 40.4087 240.98 41.4227 239.923 42.168C238.883 42.896 237.539 43.26 235.893 43.26ZM244.582 43V24.28H248.482V43H244.582ZM253.084 43L247.572 36.11L252.954 29.74H257.452L251.134 36.708L251.316 35.486L257.712 43H253.084ZM259.385 43V24.28H263.285V43H259.385ZM268.615 43V34.784C268.615 34.056 268.425 33.51 268.043 33.146C267.679 32.782 267.142 32.6 266.431 32.6C265.825 32.6 265.279 32.7387 264.793 33.016C264.325 33.2933 263.953 33.6747 263.675 34.16C263.415 34.6453 263.285 35.2173 263.285 35.876L262.947 32.678C263.381 31.7073 264.013 30.936 264.845 30.364C265.695 29.7747 266.735 29.48 267.965 29.48C269.439 29.48 270.565 29.896 271.345 30.728C272.125 31.5427 272.515 32.6433 272.515 34.03V43H268.615ZM283.499 43C283.395 42.6187 283.317 42.2113 283.265 41.778C283.23 41.3447 283.213 40.842 283.213 40.27H283.109V34.004C283.109 33.4667 282.927 33.0507 282.563 32.756C282.216 32.444 281.696 32.288 281.003 32.288C280.344 32.288 279.815 32.4007 279.417 32.626C279.035 32.8513 278.784 33.1807 278.663 33.614H274.945C275.118 32.418 275.733 31.43 276.791 30.65C277.848 29.87 279.295 29.48 281.133 29.48C283.039 29.48 284.495 29.9047 285.501 30.754C286.506 31.6033 287.009 32.8253 287.009 34.42V40.27C287.009 40.7033 287.035 41.1453 287.087 41.596C287.156 42.0293 287.26 42.4973 287.399 43H283.499ZM278.871 43.26C277.553 43.26 276.505 42.9307 275.725 42.272C274.945 41.596 274.555 40.7033 274.555 39.594C274.555 38.3633 275.014 37.3753 275.933 36.63C276.869 35.8673 278.169 35.3733 279.833 35.148L283.707 34.602V36.864L280.483 37.358C279.789 37.462 279.278 37.6527 278.949 37.93C278.619 38.2073 278.455 38.5887 278.455 39.074C278.455 39.5073 278.611 39.8367 278.923 40.062C279.235 40.2873 279.651 40.4 280.171 40.4C280.985 40.4 281.679 40.1833 282.251 39.75C282.823 39.2993 283.109 38.7793 283.109 38.19L283.473 40.27C283.091 41.258 282.511 42.0033 281.731 42.506C280.951 43.0087 279.997 43.26 278.871 43.26ZM291.924 43L287.868 29.74H291.976L294.004 38.996H293.9L296.448 29.74H300.088L302.662 38.996H302.558L304.56 29.74H308.564L304.508 43H300.764L298.164 33.77H298.268L295.668 43H291.924ZM318.081 43C317.977 42.6187 317.899 42.2113 317.847 41.778C317.812 41.3447 317.795 40.842 317.795 40.27H317.691V34.004C317.691 33.4667 317.509 33.0507 317.145 32.756C316.798 32.444 316.278 32.288 315.585 32.288C314.926 32.288 314.397 32.4007 313.999 32.626C313.617 32.8513 313.366 33.1807 313.245 33.614H309.527C309.7 32.418 310.315 31.43 311.373 30.65C312.43 29.87 313.877 29.48 315.715 29.48C317.621 29.48 319.077 29.9047 320.083 30.754C321.088 31.6033 321.591 32.8253 321.591 34.42V40.27C321.591 40.7033 321.617 41.1453 321.669 41.596C321.738 42.0293 321.842 42.4973 321.981 43H318.081ZM313.453 43.26C312.135 43.26 311.087 42.9307 310.307 42.272C309.527 41.596 309.137 40.7033 309.137 39.594C309.137 38.3633 309.596 37.3753 310.515 36.63C311.451 35.8673 312.751 35.3733 314.415 35.148L318.289 34.602V36.864L315.065 37.358C314.371 37.462 313.86 37.6527 313.531 37.93C313.201 38.2073 313.037 38.5887 313.037 39.074C313.037 39.5073 313.193 39.8367 313.505 40.062C313.817 40.2873 314.233 40.4 314.753 40.4C315.567 40.4 316.261 40.1833 316.833 39.75C317.405 39.2993 317.691 38.7793 317.691 38.19L318.055 40.27C317.673 41.258 317.093 42.0033 316.313 42.506C315.533 43.0087 314.579 43.26 313.453 43.26ZM329.966 43.286C328.268 43.286 327.002 42.8787 326.17 42.064C325.356 41.232 324.948 39.9753 324.948 38.294V26.776L328.848 25.32V38.424C328.848 39.0133 329.013 39.4553 329.342 39.75C329.672 40.0447 330.183 40.192 330.876 40.192C331.136 40.192 331.379 40.166 331.604 40.114C331.83 40.062 332.055 40.0013 332.28 39.932V42.896C332.055 43.0173 331.734 43.1127 331.318 43.182C330.92 43.2513 330.469 43.286 329.966 43.286ZM322.478 32.704V29.74H332.28V32.704H322.478Z" fill="black"/>
<path d="M132.74 66.16C131.908 66.16 131.14 66.016 130.436 65.728C129.732 65.4293 129.119 65.0133 128.596 64.48C128.084 63.9467 127.684 63.3173 127.396 62.592C127.108 61.856 126.964 61.056 126.964 60.192C126.964 59.328 127.103 58.5387 127.38 57.824C127.668 57.1093 128.068 56.4907 128.58 55.968C129.103 55.4347 129.716 55.0293 130.42 54.752C131.124 54.464 131.898 54.32 132.74 54.32C133.69 54.32 134.543 54.5067 135.3 54.88C136.068 55.2427 136.692 55.76 137.172 56.432C137.663 57.0933 137.962 57.872 138.068 58.768H135.668C135.53 57.9467 135.194 57.328 134.66 56.912C134.127 56.4853 133.492 56.272 132.756 56.272C132.106 56.272 131.53 56.4267 131.028 56.736C130.538 57.0453 130.154 57.4933 129.876 58.08C129.599 58.656 129.46 59.3547 129.46 60.176C129.46 61.008 129.599 61.728 129.876 62.336C130.164 62.9333 130.559 63.3973 131.06 63.728C131.562 64.048 132.138 64.208 132.788 64.208C133.482 64.208 134.095 64 134.628 63.584C135.162 63.168 135.508 62.5493 135.668 61.728H138.1C137.962 62.624 137.647 63.408 137.156 64.08C136.666 64.7413 136.042 65.2533 135.284 65.616C134.527 65.9787 133.679 66.16 132.74 66.16ZM143.285 66.16C142.389 66.16 141.6 65.984 140.917 65.632C140.245 65.2693 139.717 64.768 139.333 64.128C138.96 63.4773 138.773 62.7307 138.773 61.888C138.773 61.0453 138.96 60.3093 139.333 59.68C139.717 59.0507 140.245 58.56 140.917 58.208C141.6 57.856 142.389 57.68 143.285 57.68C144.192 57.68 144.981 57.856 145.653 58.208C146.336 58.56 146.864 59.0507 147.237 59.68C147.61 60.3093 147.797 61.0453 147.797 61.888C147.797 62.7307 147.605 63.4773 147.221 64.128C146.848 64.768 146.32 65.2693 145.637 65.632C144.965 65.984 144.181 66.16 143.285 66.16ZM143.285 64.272C143.658 64.272 143.994 64.176 144.293 63.984C144.602 63.792 144.848 63.52 145.029 63.168C145.21 62.8053 145.301 62.3733 145.301 61.872C145.301 61.136 145.104 60.5707 144.709 60.176C144.325 59.7707 143.85 59.568 143.285 59.568C142.72 59.568 142.24 59.7707 141.845 60.176C141.461 60.5813 141.269 61.1467 141.269 61.872C141.269 62.3733 141.36 62.8053 141.541 63.168C141.722 63.52 141.962 63.792 142.261 63.984C142.57 64.176 142.912 64.272 143.285 64.272ZM148.804 62.608V60.688H154.66V62.608H148.804ZM161.49 66.16C160.658 66.16 159.89 66.016 159.186 65.728C158.482 65.4293 157.869 65.0133 157.346 64.48C156.834 63.9467 156.434 63.3173 156.146 62.592C155.858 61.856 155.714 61.056 155.714 60.192C155.714 59.328 155.853 58.5387 156.13 57.824C156.418 57.1093 156.818 56.4907 157.33 55.968C157.853 55.4347 158.466 55.0293 159.17 54.752C159.874 54.464 160.648 54.32 161.49 54.32C162.44 54.32 163.293 54.5067 164.05 54.88C164.818 55.2427 165.442 55.76 165.922 56.432C166.413 57.0933 166.712 57.872 166.818 58.768H164.418C164.28 57.9467 163.944 57.328 163.41 56.912C162.877 56.4853 162.242 56.272 161.506 56.272C160.856 56.272 160.28 56.4267 159.778 56.736C159.288 57.0453 158.904 57.4933 158.626 58.08C158.349 58.656 158.21 59.3547 158.21 60.176C158.21 61.008 158.349 61.728 158.626 62.336C158.914 62.9333 159.309 63.3973 159.81 63.728C160.312 64.048 160.888 64.208 161.538 64.208C162.232 64.208 162.845 64 163.378 63.584C163.912 63.168 164.258 62.5493 164.418 61.728H166.85C166.712 62.624 166.397 63.408 165.906 64.08C165.416 64.7413 164.792 65.2533 164.034 65.616C163.277 65.9787 162.429 66.16 161.49 66.16ZM172.035 66.16C171.139 66.16 170.35 65.984 169.667 65.632C168.995 65.2693 168.467 64.768 168.083 64.128C167.71 63.4773 167.523 62.7307 167.523 61.888C167.523 61.0453 167.71 60.3093 168.083 59.68C168.467 59.0507 168.995 58.56 169.667 58.208C170.35 57.856 171.139 57.68 172.035 57.68C172.942 57.68 173.731 57.856 174.403 58.208C175.086 58.56 175.614 59.0507 175.987 59.68C176.36 60.3093 176.547 61.0453 176.547 61.888C176.547 62.7307 176.355 63.4773 175.971 64.128C175.598 64.768 175.07 65.2693 174.387 65.632C173.715 65.984 172.931 66.16 172.035 66.16ZM172.035 64.272C172.408 64.272 172.744 64.176 173.043 63.984C173.352 63.792 173.598 63.52 173.779 63.168C173.96 62.8053 174.051 62.3733 174.051 61.872C174.051 61.136 173.854 60.5707 173.459 60.176C173.075 59.7707 172.6 59.568 172.035 59.568C171.47 59.568 170.99 59.7707 170.595 60.176C170.211 60.5813 170.019 61.1467 170.019 61.872C170.019 62.3733 170.11 62.8053 170.291 63.168C170.472 63.52 170.712 63.792 171.011 63.984C171.32 64.176 171.662 64.272 172.035 64.272ZM177.819 66V57.84H180.171V59.76H180.219V66H177.819ZM183.499 66V60.944C183.499 60.496 183.382 60.16 183.147 59.936C182.923 59.712 182.593 59.6 182.155 59.6C181.782 59.6 181.446 59.6853 181.147 59.856C180.859 60.0267 180.63 60.2613 180.459 60.56C180.299 60.8587 180.219 61.2107 180.219 61.616L180.011 59.648C180.278 59.0507 180.667 58.576 181.179 58.224C181.702 57.8613 182.342 57.68 183.099 57.68C184.006 57.68 184.699 57.936 185.179 58.448C185.659 58.9493 185.899 59.6267 185.899 60.48V66H183.499ZM189.606 66L186.39 57.84H188.966L191.478 65.456H190.134L192.63 57.84H195.142L191.926 66H189.606ZM199.659 66.16C198.753 66.16 197.963 65.984 197.291 65.632C196.619 65.2693 196.097 64.768 195.723 64.128C195.361 63.488 195.179 62.752 195.179 61.92C195.179 61.0773 195.361 60.3413 195.723 59.712C196.097 59.072 196.614 58.576 197.275 58.224C197.937 57.8613 198.705 57.68 199.579 57.68C200.422 57.68 201.153 57.8507 201.771 58.192C202.39 58.5333 202.87 59.008 203.211 59.616C203.553 60.224 203.723 60.9387 203.723 61.76C203.723 61.9307 203.718 62.0907 203.707 62.24C203.697 62.3787 203.681 62.512 203.659 62.64H196.587V61.056H201.723L201.307 61.344C201.307 60.6827 201.147 60.1973 200.827 59.888C200.518 59.568 200.091 59.408 199.547 59.408C198.918 59.408 198.427 59.6213 198.075 60.048C197.734 60.4747 197.563 61.1147 197.563 61.968C197.563 62.8 197.734 63.4187 198.075 63.824C198.427 64.2293 198.95 64.432 199.643 64.432C200.027 64.432 200.358 64.368 200.635 64.24C200.913 64.112 201.121 63.904 201.259 63.616H203.515C203.249 64.4053 202.79 65.0293 202.139 65.488C201.499 65.936 200.673 66.16 199.659 66.16ZM205.007 66V57.84H207.359V59.76H207.407V66H205.007ZM210.687 66V60.944C210.687 60.496 210.57 60.16 210.335 59.936C210.111 59.712 209.78 59.6 209.343 59.6C208.97 59.6 208.634 59.6853 208.335 59.856C208.047 60.0267 207.818 60.2613 207.647 60.56C207.487 60.8587 207.407 61.2107 207.407 61.616L207.199 59.648C207.466 59.0507 207.855 58.576 208.367 58.224C208.89 57.8613 209.53 57.68 210.287 57.68C211.194 57.68 211.887 57.936 212.367 58.448C212.847 58.9493 213.087 59.6267 213.087 60.48V66H210.687ZM218.753 66.16C217.846 66.16 217.057 65.984 216.385 65.632C215.713 65.2693 215.19 64.768 214.817 64.128C214.454 63.488 214.273 62.752 214.273 61.92C214.273 61.0773 214.454 60.3413 214.817 59.712C215.19 59.072 215.708 58.576 216.369 58.224C217.03 57.8613 217.798 57.68 218.673 57.68C219.516 57.68 220.246 57.8507 220.865 58.192C221.484 58.5333 221.964 59.008 222.305 59.616C222.646 60.224 222.817 60.9387 222.817 61.76C222.817 61.9307 222.812 62.0907 222.801 62.24C222.79 62.3787 222.774 62.512 222.753 62.64H215.681V61.056H220.817L220.401 61.344C220.401 60.6827 220.241 60.1973 219.921 59.888C219.612 59.568 219.185 59.408 218.641 59.408C218.012 59.408 217.521 59.6213 217.169 60.048C216.828 60.4747 216.657 61.1147 216.657 61.968C216.657 62.8 216.828 63.4187 217.169 63.824C217.521 64.2293 218.044 64.432 218.737 64.432C219.121 64.432 219.452 64.368 219.729 64.24C220.006 64.112 220.214 63.904 220.353 63.616H222.609C222.342 64.4053 221.884 65.0293 221.233 65.488C220.593 65.936 219.766 66.16 218.753 66.16ZM224.101 66V57.84H226.453V59.76H226.501V66H224.101ZM226.501 61.744L226.293 59.808C226.485 59.1147 226.799 58.5867 227.237 58.224C227.674 57.8613 228.218 57.68 228.869 57.68C229.071 57.68 229.221 57.7013 229.317 57.744V59.984C229.263 59.9627 229.189 59.952 229.093 59.952C228.997 59.9413 228.879 59.936 228.741 59.936C227.973 59.936 227.407 60.0747 227.045 60.352C226.682 60.6187 226.501 61.0827 226.501 61.744Z" fill="black"/>
<defs>
<filter id="filter0_d_40_67" x="0.667387" y="0.9" width="357.433" height="97.2" filterUnits="userSpaceOnUse" color-interpolation-filters="sRGB">
<feFlood flood-opacity="0" result="BackgroundImageFix"/>
<feColorMatrix in="SourceAlpha" type="matrix" values="0 0 0 0 0 0 0 0 0 0 0 0 0 0 0 0 0 0 127 0" result="hardAlpha"/>
<feOffset dy="4"/>
<feGaussianBlur stdDeviation="9.55"/>
<feComposite in2="hardAlpha" operator="out"/>
<feColorMatrix type="matrix" values="0 0 0 0 0.556863 0 0 0 0 0.411765 0 0 0 0 0.686275 0 0 0 0.7 0"/>
<feBlend mode="normal" in2="BackgroundImageFix" result="effect1_dropShadow_40_67"/>
<feBlend mode="normal" in="SourceGraphic" in2="effect1_dropShadow_40_67" result="shape"/>
</filter>
</defs>
</svg>
