<svg width="359" height="99" viewBox="0 0 359 99" fill="none" xmlns="http://www.w3.org/2000/svg">
<g filter="url(#filter0_d_40_67)">
<rect x="19.7674" y="16" width="319.233" height="59" fill="#C28DEF" fill-opacity="0.72" shape-rendering="crispEdges"/>
</g>
<path d="M19 10.6667C16.0545 10.6667 13.6667 13.0545 13.6667 16C13.6667 18.9455 16.0545 21.3333 19 21.3333C21.9455 21.3333 24.3333 18.9455 24.3333 16C24.3333 13.0545 21.9455 10.6667 19 10.6667ZM18 16L18 75H20L20 16H18Z" fill="white"/>
<path d="M339 69.6667C336.054 69.6667 333.667 72.0545 333.667 75C333.667 77.9455 336.054 80.3333 339 80.3333C341.946 80.3333 344.333 77.9455 344.333 75C344.333 72.0545 341.946 69.6667 339 69.6667ZM338 16V75H340V16H338Z" fill="white"/>
<path d="M26.2424 43V24.28H30.2464V43H26.2424ZM28.9724 33.276L37.3964 24.28H42.7264L33.8344 33.276H28.9724ZM37.8124 43L28.9204 33.276H33.8344L43.2464 43H37.8124ZM48.1342 43.26C47.1982 43.26 46.3922 43.0607 45.7162 42.662C45.0575 42.246 44.5548 41.7 44.2082 41.024C43.8615 40.3307 43.6882 39.5593 43.6882 38.71V29.74H47.5882V37.956C47.5882 38.684 47.7702 39.23 48.1342 39.594C48.4982 39.958 49.0095 40.14 49.6682 40.14C50.2575 40.14 50.7775 40.0013 51.2282 39.724C51.6788 39.4467 52.0342 39.0653 52.2942 38.58C52.5715 38.0773 52.7102 37.5053 52.7102 36.864L53.0482 40.062C52.6148 41.0153 51.9822 41.7867 51.1502 42.376C50.3182 42.9653 49.3128 43.26 48.1342 43.26ZM52.7882 43V39.88H52.7102V29.74H56.6102V43H52.7882ZM59.7387 43V24.28H63.6387V43H59.7387ZM66.0185 48.59C65.7239 48.59 65.4465 48.564 65.1865 48.512C64.9265 48.4773 64.6665 48.4253 64.4065 48.356V45.366C64.5452 45.418 64.6925 45.4527 64.8485 45.47C65.0045 45.5047 65.1692 45.522 65.3425 45.522C65.7932 45.522 66.1399 45.4093 66.3825 45.184C66.6252 44.976 66.7465 44.6553 66.7465 44.222V29.74H70.6465V44.274C70.6465 45.6087 70.2652 46.6573 69.5025 47.42C68.7572 48.2 67.5959 48.59 66.0185 48.59ZM66.6165 27.972V23.76H70.7765V27.972H66.6165ZM79.9182 43.26C78.4448 43.26 77.1622 42.974 76.0702 42.402C74.9782 41.8127 74.1288 40.998 73.5222 39.958C72.9328 38.918 72.6382 37.722 72.6382 36.37C72.6382 35.0007 72.9328 33.8047 73.5222 32.782C74.1288 31.742 74.9695 30.936 76.0442 30.364C77.1188 29.7747 78.3668 29.48 79.7882 29.48C81.1575 29.48 82.3448 29.7573 83.3502 30.312C84.3555 30.8667 85.1355 31.638 85.6902 32.626C86.2448 33.614 86.5222 34.7753 86.5222 36.11C86.5222 36.3873 86.5135 36.6473 86.4962 36.89C86.4788 37.1153 86.4528 37.332 86.4182 37.54H74.9262V34.966H83.2722L82.5962 35.434C82.5962 34.3593 82.3362 33.5707 81.8162 33.068C81.3135 32.548 80.6202 32.288 79.7362 32.288C78.7135 32.288 77.9162 32.6347 77.3442 33.328C76.7895 34.0213 76.5122 35.0613 76.5122 36.448C76.5122 37.8 76.7895 38.8053 77.3442 39.464C77.9162 40.1227 78.7655 40.452 79.8922 40.452C80.5162 40.452 81.0535 40.348 81.5042 40.14C81.9548 39.932 82.2928 39.594 82.5182 39.126H86.1842C85.7508 40.4087 85.0055 41.4227 83.9482 42.168C82.9082 42.896 81.5648 43.26 79.9182 43.26ZM95.1018 43.26C93.6284 43.26 92.3458 42.974 91.2538 42.402C90.1618 41.8127 89.3124 40.998 88.7058 39.958C88.1164 38.918 87.8218 37.722 87.8218 36.37C87.8218 35.0007 88.1164 33.8047 88.7058 32.782C89.3124 31.742 90.1531 30.936 91.2278 30.364C92.3024 29.7747 93.5504 29.48 94.9718 29.48C96.3411 29.48 97.5284 29.7573 98.5338 30.312C99.5391 30.8667 100.319 31.638 100.874 32.626C101.428 33.614 101.706 34.7753 101.706 36.11C101.706 36.3873 101.697 36.6473 101.68 36.89C101.662 37.1153 101.636 37.332 101.602 37.54H90.1098V34.966H98.4558L97.7798 35.434C97.7798 34.3593 97.5198 33.5707 96.9998 33.068C96.4971 32.548 95.8038 32.288 94.9198 32.288C93.8971 32.288 93.0998 32.6347 92.5278 33.328C91.9731 34.0213 91.6958 35.0613 91.6958 36.448C91.6958 37.8 91.9731 38.8053 92.5278 39.464C93.0998 40.1227 93.9491 40.452 95.0758 40.452C95.6998 40.452 96.2371 40.348 96.6878 40.14C97.1384 39.932 97.4764 39.594 97.7018 39.126H101.368C100.934 40.4087 100.189 41.4227 99.1318 42.168C98.0918 42.896 96.7484 43.26 95.1018 43.26ZM109.728 43.286C108.029 43.286 106.764 42.8787 105.932 42.064C105.117 41.232 104.71 39.9753 104.71 38.294V26.776L108.61 25.32V38.424C108.61 39.0133 108.775 39.4553 109.104 39.75C109.433 40.0447 109.945 40.192 110.638 40.192C110.898 40.192 111.141 40.166 111.366 40.114C111.591 40.062 111.817 40.0013 112.042 39.932V42.896C111.817 43.0173 111.496 43.1127 111.08 43.182C110.681 43.2513 110.231 43.286 109.728 43.286ZM102.24 32.704V29.74H112.042V32.704H102.24ZM126.767 43.234C124.34 43.234 122.399 42.6967 120.943 41.622C119.487 40.53 118.637 38.996 118.395 37.02H122.243C122.364 38.0253 122.849 38.8227 123.699 39.412C124.548 39.984 125.631 40.27 126.949 40.27C128.023 40.27 128.847 40.0793 129.419 39.698C130.008 39.3167 130.303 38.8053 130.303 38.164C130.303 37.5573 130.129 37.072 129.783 36.708C129.436 36.3267 128.838 36.0233 127.989 35.798L124.505 34.836C122.719 34.3333 121.411 33.6487 120.579 32.782C119.764 31.898 119.357 30.7973 119.357 29.48C119.357 28.3533 119.643 27.3827 120.215 26.568C120.804 25.736 121.627 25.1033 122.685 24.67C123.742 24.2193 124.981 23.994 126.403 23.994C128.587 23.994 130.329 24.514 131.629 25.554C132.929 26.5767 133.665 27.9373 133.839 29.636H129.991C129.817 28.7173 129.393 28.0413 128.717 27.608C128.058 27.1747 127.209 26.958 126.169 26.958C125.267 26.958 124.548 27.1313 124.011 27.478C123.473 27.8247 123.205 28.2927 123.205 28.882C123.205 29.3327 123.352 29.7487 123.647 30.13C123.941 30.494 124.557 30.806 125.493 31.066L128.977 32.028C130.814 32.5307 132.131 33.224 132.929 34.108C133.743 34.9747 134.151 36.0753 134.151 37.41C134.151 39.282 133.501 40.7207 132.201 41.726C130.901 42.7313 129.089 43.234 126.767 43.234ZM136.164 43V29.74H140.064V43H136.164ZM136.034 27.972V23.76H140.194V27.972H136.034ZM143.172 43V29.74H146.994V32.86H147.072V43H143.172ZM152.402 43V34.784C152.402 34.056 152.212 33.51 151.83 33.146C151.466 32.782 150.929 32.6 150.218 32.6C149.612 32.6 149.066 32.7387 148.58 33.016C148.112 33.2933 147.74 33.6747 147.462 34.16C147.202 34.6453 147.072 35.2173 147.072 35.876L146.734 32.678C147.168 31.7073 147.8 30.936 148.632 30.364C149.482 29.7747 150.522 29.48 151.752 29.48C153.226 29.48 154.352 29.896 155.132 30.728C155.912 31.5427 156.302 32.6433 156.302 34.03V43H152.402ZM165.329 48.59C163.492 48.59 161.993 48.2 160.831 47.42C159.687 46.64 159.011 45.5827 158.803 44.248H162.495C162.634 44.5773 162.929 44.8287 163.379 45.002C163.847 45.1753 164.437 45.262 165.147 45.262C166.326 45.262 167.184 45.0367 167.721 44.586C168.259 44.1353 168.527 43.4333 168.527 42.48V39.594L168.735 39.646C168.562 40.6167 168.059 41.388 167.227 41.96C166.395 42.5147 165.364 42.792 164.133 42.792C162.955 42.792 161.923 42.5233 161.039 41.986C160.173 41.4313 159.497 40.66 159.011 39.672C158.526 38.684 158.283 37.5227 158.283 36.188C158.283 34.836 158.535 33.6573 159.037 32.652C159.54 31.6467 160.242 30.8667 161.143 30.312C162.062 29.7573 163.128 29.48 164.341 29.48C165.589 29.48 166.603 29.7747 167.383 30.364C168.181 30.9533 168.649 31.7593 168.787 32.782L168.605 32.808V29.74H172.427V42.428C172.427 44.3347 171.795 45.834 170.529 46.926C169.264 48.0353 167.531 48.59 165.329 48.59ZM165.485 39.802C166.404 39.802 167.149 39.49 167.721 38.866C168.293 38.2247 168.579 37.3147 168.579 36.136C168.579 34.9573 168.285 34.056 167.695 33.432C167.123 32.7907 166.369 32.47 165.433 32.47C164.532 32.47 163.787 32.7907 163.197 33.432C162.625 34.0733 162.339 34.9833 162.339 36.162C162.339 37.3407 162.625 38.242 163.197 38.866C163.787 39.49 164.549 39.802 165.485 39.802ZM175.545 43V24.28H179.445V43H175.545ZM184.775 43V34.784C184.775 34.056 184.585 33.51 184.203 33.146C183.839 32.782 183.302 32.6 182.591 32.6C181.985 32.6 181.439 32.7387 180.953 33.016C180.485 33.2933 180.113 33.6747 179.835 34.16C179.575 34.6453 179.445 35.2173 179.445 35.876L179.107 32.678C179.541 31.7073 180.173 30.936 181.005 30.364C181.855 29.7747 182.895 29.48 184.125 29.48C185.599 29.48 186.725 29.896 187.505 30.728C188.285 31.5427 188.675 32.6433 188.675 34.03V43H184.775ZM204.03 43.234C201.604 43.234 199.662 42.6967 198.206 41.622C196.75 40.53 195.901 38.996 195.658 37.02H199.506C199.628 38.0253 200.113 38.8227 200.962 39.412C201.812 39.984 202.895 40.27 204.212 40.27C205.287 40.27 206.11 40.0793 206.682 39.698C207.272 39.3167 207.566 38.8053 207.566 38.164C207.566 37.5573 207.393 37.072 207.046 36.708C206.7 36.3267 206.102 36.0233 205.252 35.798L201.768 34.836C199.983 34.3333 198.674 33.6487 197.842 32.782C197.028 31.898 196.62 30.7973 196.62 29.48C196.62 28.3533 196.906 27.3827 197.478 26.568C198.068 25.736 198.891 25.1033 199.948 24.67C201.006 24.2193 202.245 23.994 203.666 23.994C205.85 23.994 207.592 24.514 208.892 25.554C210.192 26.5767 210.929 27.9373 211.102 29.636H207.254C207.081 28.7173 206.656 28.0413 205.98 27.608C205.322 27.1747 204.472 26.958 203.432 26.958C202.531 26.958 201.812 27.1313 201.274 27.478C200.737 27.8247 200.468 28.2927 200.468 28.882C200.468 29.3327 200.616 29.7487 200.91 30.13C201.205 30.494 201.82 30.806 202.756 31.066L206.24 32.028C208.078 32.5307 209.395 33.224 210.192 34.108C211.007 34.9747 211.414 36.0753 211.414 37.41C211.414 39.282 210.764 40.7207 209.464 41.726C208.164 42.7313 206.353 43.234 204.03 43.234ZM213.555 43V24.28H217.455V43H213.555ZM222.785 43V34.784C222.785 34.056 222.594 33.51 222.213 33.146C221.849 32.782 221.312 32.6 220.601 32.6C219.994 32.6 219.448 32.7387 218.963 33.016C218.495 33.2933 218.122 33.6747 217.845 34.16C217.585 34.6453 217.455 35.2173 217.455 35.876L217.117 32.678C217.55 31.7073 218.183 30.936 219.015 30.364C219.864 29.7747 220.904 29.48 222.135 29.48C223.608 29.48 224.735 29.896 225.515 30.728C226.295 31.5427 226.685 32.6433 226.685 34.03V43H222.785ZM235.893 43.26C234.419 43.26 233.137 42.974 232.045 42.402C230.953 41.8127 230.103 40.998 229.497 39.958C228.907 38.918 228.613 37.722 228.613 36.37C228.613 35.0007 228.907 33.8047 229.497 32.782C230.103 31.742 230.944 30.936 232.019 30.364C233.093 29.7747 234.341 29.48 235.763 29.48C237.132 29.48 238.319 29.7573 239.325 30.312C240.33 30.8667 241.11 31.638 241.665 32.626C242.219 33.614 242.497 34.7753 242.497 36.11C242.497 36.3873 242.488 36.6473 242.471 36.89C242.453 37.1153 242.427 37.332 242.393 37.54H230.901V34.966H239.247L238.571 35.434C238.571 34.3593 238.311 33.5707 237.791 33.068C237.288 32.548 236.595 32.288 235.711 32.288C234.688 32.288 233.891 32.6347 233.319 33.328C232.764 34.0213 232.487 35.0613 232.487 36.448C232.487 37.8 232.764 38.8053 233.319 39.464C233.891 40.1227 234.74 40.452 235.867 40.452C236.491 40.452 237.028 40.348 237.479 40.14C237.929 39.932 238.267 39.594 238.493 39.126H242.159C241.725 40.4087 240.98 41.4227 239.923 42.168C238.883 42.896 237.539 43.26 235.893 43.26ZM244.582 43V24.28H248.482V43H244.582ZM253.084 43L247.572 36.11L252.954 29.74H257.452L251.134 36.708L251.316 35.486L257.712 43H253.084ZM259.385 43V24.28H263.285V43H259.385ZM268.615 43V34.784C268.615 34.056 268.425 33.51 268.043 33.146C267.679 32.782 267.142 32.6 266.431 32.6C265.825 32.6 265.279 32.7387 264.793 33.016C264.325 33.2933 263.953 33.6747 263.675 34.16C263.415 34.6453 263.285 35.2173 263.285 35.876L262.947 32.678C263.381 31.7073 264.013 30.936 264.845 30.364C265.695 29.7747 266.735 29.48 267.965 29.48C269.439 29.48 270.565 29.896 271.345 30.728C272.125 31.5427 272.515 32.6433 272.515 34.03V43H268.615ZM283.499 43C283.395 42.6187 283.317 42.2113 283.265 41.778C283.23 41.3447 283.213 40.842 283.213 40.27H283.109V34.004C283.109 33.4667 282.927 33.0507 282.563 32.756C282.216 32.444 281.696 32.288 281.003 32.288C280.344 32.288 279.815 32.4007 279.417 32.626C279.035 32.8513 278.784 33.1807 278.663 33.614H274.945C275.118 32.418 275.733 31.43 276.791 30.65C277.848 29.87 279.295 29.48 281.133 29.48C283.039 29.48 284.495 29.9047 285.501 30.754C286.506 31.6033 287.009 32.8253 287.009 34.42V40.27C287.009 40.7033 287.035 41.1453 287.087 41.596C287.156 42.0293 287.26 42.4973 287.399 43H283.499ZM278.871 43.26C277.553 43.26 276.505 42.9307 275.725 42.272C274.945 41.596 274.555 40.7033 274.555 39.594C274.555 38.3633 275.014 37.3753 275.933 36.63C276.869 35.8673 278.169 35.3733 279.833 35.148L283.707 34.602V36.864L280.483 37.358C279.789 37.462 279.278 37.6527 278.949 37.93C278.619 38.2073 278.455 38.5887 278.455 39.074C278.455 39.5073 278.611 39.8367 278.923 40.062C279.235 40.2873 279.651 40.4 280.171 40.4C280.985 40.4 281.679 40.1833 282.251 39.75C282.823 39.2993 283.109 38.7793 283.109 38.19L283.473 40.27C283.091 41.258 282.511 42.0033 281.731 42.506C280.951 43.0087 279.997 43.26 278.871 43.26ZM291.924 43L287.868 29.74H291.976L294.004 38.996H293.9L296.448 29.74H300.088L302.662 38.996H302.558L304.56 29.74H308.564L304.508 43H300.764L298.164 33.77H298.268L295.668 43H291.924ZM318.081 43C317.977 42.6187 317.899 42.2113 317.847 41.778C317.812 41.3447 317.795 40.842 317.795 40.27H317.691V34.004C317.691 33.4667 317.509 33.0507 317.145 32.756C316.798 32.444 316.278 32.288 315.585 32.288C314.926 32.288 314.397 32.4007 313.999 32.626C313.617 32.8513 313.366 33.1807 313.245 33.614H309.527C309.7 32.418 310.315 31.43 311.373 30.65C312.43 29.87 313.877 29.48 315.715 29.48C317.621 29.48 319.077 29.9047 320.083 30.754C321.088 31.6033 321.591 32.8253 321.591 34.42V40.27C321.591 40.7033 321.617 41.1453 321.669 41.596C321.738 42.0293 321.842 42.4973 321.981 43H318.081ZM313.453 43.26C312.135 43.26 311.087 42.9307 310.307 42.272C309.527 41.596 309.137 40.7033 309.137 39.594C309.137 38.3633 309.596 37.3753 310.515 36.63C311.451 35.8673 312.751 35.3733 314.415 35.148L318.289 34.602V36.864L315.065 37.358C314.371 37.462 313.86 37.6527 313.531 37.93C313.201 38.2073 313.037 38.5887 313.037 39.074C313.037 39.5073 313.193 39.8367 313.505 40.062C313.817 40.2873 314.233 40.4 314.753 40.4C315.567 40.4 316.261 40.1833 316.833 39.75C317.405 39.2993 317.691 38.7793 317.691 38.19L318.055 40.27C317.673 41.258 317.093 42.0033 316.313 42.506C315.533 43.0087 314.579 43.26 313.453 43.26ZM329.966 43.286C328.268 43.286 327.002 42.8787 326.17 42.064C325.356 41.232 324.948 39.9753 324.948 38.294V26.776L328.848 25.32V38.424C328.848 39.0133 329.013 39.4553 329.342 39.75C329.672 40.0447 330.183 40.192 330.876 40.192C331.136 40.192 331.379 40.166 331.604 40.114C331.83 40.062 332.055 40.0013 332.28 39.932V42.896C332.055 43.0173 331.734 43.1127 331.318 43.182C330.92 43.2513 330.469 43.286 329.966 43.286ZM322.478 32.704V29.74H332.28V32.704H322.478Z" fill="black"/>
<path d="M147.115 66.16C146.283 66.16 145.515 66.016 144.811 65.728C144.107 65.4293 143.494 65.0133 142.971 64.48C142.459 63.9467 142.059 63.3173 141.771 62.592C141.483 61.856 141.339 61.056 141.339 60.192C141.339 59.328 141.478 58.5387 141.755 57.824C142.043 57.1093 142.443 56.4907 142.955 55.968C143.478 55.4347 144.091 55.0293 144.795 54.752C145.499 54.464 146.273 54.32 147.115 54.32C148.065 54.32 148.918 54.5067 149.675 54.88C150.443 55.2427 151.067 55.76 151.547 56.432C152.038 57.0933 152.337 57.872 152.443 58.768H150.043C149.905 57.9467 149.569 57.328 149.035 56.912C148.502 56.4853 147.867 56.272 147.131 56.272C146.481 56.272 145.905 56.4267 145.403 56.736C144.913 57.0453 144.529 57.4933 144.251 58.08C143.974 58.656 143.835 59.3547 143.835 60.176C143.835 61.008 143.974 61.728 144.251 62.336C144.539 62.9333 144.934 63.3973 145.435 63.728C145.937 64.048 146.513 64.208 147.163 64.208C147.857 64.208 148.47 64 149.003 63.584C149.537 63.168 149.883 62.5493 150.043 61.728H152.475C152.337 62.624 152.022 63.408 151.531 64.08C151.041 64.7413 150.417 65.2533 149.659 65.616C148.902 65.9787 148.054 66.16 147.115 66.16ZM157.66 66.16C156.764 66.16 155.975 65.984 155.292 65.632C154.62 65.2693 154.092 64.768 153.708 64.128C153.335 63.4773 153.148 62.7307 153.148 61.888C153.148 61.0453 153.335 60.3093 153.708 59.68C154.092 59.0507 154.62 58.56 155.292 58.208C155.975 57.856 156.764 57.68 157.66 57.68C158.567 57.68 159.356 57.856 160.028 58.208C160.711 58.56 161.239 59.0507 161.612 59.68C161.985 60.3093 162.172 61.0453 162.172 61.888C162.172 62.7307 161.98 63.4773 161.596 64.128C161.223 64.768 160.695 65.2693 160.012 65.632C159.34 65.984 158.556 66.16 157.66 66.16ZM157.66 64.272C158.033 64.272 158.369 64.176 158.668 63.984C158.977 63.792 159.223 63.52 159.404 63.168C159.585 62.8053 159.676 62.3733 159.676 61.872C159.676 61.136 159.479 60.5707 159.084 60.176C158.7 59.7707 158.225 59.568 157.66 59.568C157.095 59.568 156.615 59.7707 156.22 60.176C155.836 60.5813 155.644 61.1467 155.644 61.872C155.644 62.3733 155.735 62.8053 155.916 63.168C156.097 63.52 156.337 63.792 156.636 63.984C156.945 64.176 157.287 64.272 157.66 64.272ZM163.444 66V57.84H165.796V59.76H165.844V66H163.444ZM169.124 66V60.944C169.124 60.496 169.007 60.16 168.772 59.936C168.548 59.712 168.218 59.6 167.78 59.6C167.407 59.6 167.071 59.6853 166.772 59.856C166.484 60.0267 166.255 60.2613 166.084 60.56C165.924 60.8587 165.844 61.2107 165.844 61.616L165.636 59.648C165.903 59.0507 166.292 58.576 166.804 58.224C167.327 57.8613 167.967 57.68 168.724 57.68C169.631 57.68 170.324 57.936 170.804 58.448C171.284 58.9493 171.524 59.6267 171.524 60.48V66H169.124ZM175.231 66L172.015 57.84H174.591L177.103 65.456H175.759L178.255 57.84H180.767L177.551 66H175.231ZM185.284 66.16C184.378 66.16 183.588 65.984 182.916 65.632C182.244 65.2693 181.722 64.768 181.348 64.128C180.986 63.488 180.804 62.752 180.804 61.92C180.804 61.0773 180.986 60.3413 181.348 59.712C181.722 59.072 182.239 58.576 182.9 58.224C183.562 57.8613 184.33 57.68 185.204 57.68C186.047 57.68 186.778 57.8507 187.396 58.192C188.015 58.5333 188.495 59.008 188.836 59.616C189.178 60.224 189.348 60.9387 189.348 61.76C189.348 61.9307 189.343 62.0907 189.332 62.24C189.322 62.3787 189.306 62.512 189.284 62.64H182.212V61.056H187.348L186.932 61.344C186.932 60.6827 186.772 60.1973 186.452 59.888C186.143 59.568 185.716 59.408 185.172 59.408C184.543 59.408 184.052 59.6213 183.7 60.048C183.359 60.4747 183.188 61.1147 183.188 61.968C183.188 62.8 183.359 63.4187 183.7 63.824C184.052 64.2293 184.575 64.432 185.268 64.432C185.652 64.432 185.983 64.368 186.26 64.24C186.538 64.112 186.746 63.904 186.884 63.616H189.14C188.874 64.4053 188.415 65.0293 187.764 65.488C187.124 65.936 186.298 66.16 185.284 66.16ZM190.632 66V57.84H192.984V59.76H193.032V66H190.632ZM196.312 66V60.944C196.312 60.496 196.195 60.16 195.96 59.936C195.736 59.712 195.405 59.6 194.968 59.6C194.595 59.6 194.259 59.6853 193.96 59.856C193.672 60.0267 193.443 60.2613 193.272 60.56C193.112 60.8587 193.032 61.2107 193.032 61.616L192.824 59.648C193.091 59.0507 193.48 58.576 193.992 58.224C194.515 57.8613 195.155 57.68 195.912 57.68C196.819 57.68 197.512 57.936 197.992 58.448C198.472 58.9493 198.712 59.6267 198.712 60.48V66H196.312ZM204.378 66.16C203.471 66.16 202.682 65.984 202.01 65.632C201.338 65.2693 200.815 64.768 200.442 64.128C200.079 63.488 199.898 62.752 199.898 61.92C199.898 61.0773 200.079 60.3413 200.442 59.712C200.815 59.072 201.333 58.576 201.994 58.224C202.655 57.8613 203.423 57.68 204.298 57.68C205.141 57.68 205.871 57.8507 206.49 58.192C207.109 58.5333 207.589 59.008 207.93 59.616C208.271 60.224 208.442 60.9387 208.442 61.76C208.442 61.9307 208.437 62.0907 208.426 62.24C208.415 62.3787 208.399 62.512 208.378 62.64H201.306V61.056H206.442L206.026 61.344C206.026 60.6827 205.866 60.1973 205.546 59.888C205.237 59.568 204.81 59.408 204.266 59.408C203.637 59.408 203.146 59.6213 202.794 60.048C202.453 60.4747 202.282 61.1147 202.282 61.968C202.282 62.8 202.453 63.4187 202.794 63.824C203.146 64.2293 203.669 64.432 204.362 64.432C204.746 64.432 205.077 64.368 205.354 64.24C205.631 64.112 205.839 63.904 205.978 63.616H208.234C207.967 64.4053 207.509 65.0293 206.858 65.488C206.218 65.936 205.391 66.16 204.378 66.16ZM209.726 66V57.84H212.078V59.76H212.126V66H209.726ZM212.126 61.744L211.918 59.808C212.11 59.1147 212.424 58.5867 212.862 58.224C213.299 57.8613 213.843 57.68 214.494 57.68C214.696 57.68 214.846 57.7013 214.942 57.744V59.984C214.888 59.9627 214.814 59.952 214.718 59.952C214.622 59.9413 214.504 59.936 214.366 59.936C213.598 59.936 213.032 60.0747 212.67 60.352C212.307 60.6187 212.126 61.0827 212.126 61.744Z" fill="black"/>
<defs>
<filter id="filter0_d_40_67" x="0.667387" y="0.9" width="357.433" height="97.2" filterUnits="userSpaceOnUse" color-interpolation-filters="sRGB">
<feFlood flood-opacity="0" result="BackgroundImageFix"/>
<feColorMatrix in="SourceAlpha" type="matrix" values="0 0 0 0 0 0 0 0 0 0 0 0 0 0 0 0 0 0 127 0" result="hardAlpha"/>
<feOffset dy="4"/>
<feGaussianBlur stdDeviation="9.55"/>
<feComposite in2="hardAlpha" operator="out"/>
<feColorMatrix type="matrix" values="0 0 0 0 0.556863 0 0 0 0 0.411765 0 0 0 0 0.686275 0 0 0 0.7 0"/>
<feBlend mode="normal" in2="BackgroundImageFix" result="effect1_dropShadow_40_67"/>
<feBlend mode="normal" in="SourceGraphic" in2="effect1_dropShadow_40_67" result="shape"/>
</filter>
</defs>
</svg>
