<svg width="359" height="99" viewBox="0 0 359 99" fill="none" xmlns="http://www.w3.org/2000/svg">
<g filter="url(#filter0_d_40_67)">
<rect x="19.7674" y="16" width="319.233" height="59" fill="#C28DEF" fill-opacity="0.72" shape-rendering="crispEdges"/>
</g>
<path d="M19 10.6667C16.0545 10.6667 13.6667 13.0545 13.6667 16C13.6667 18.9455 16.0545 21.3333 19 21.3333C21.9455 21.3333 24.3333 18.9455 24.3333 16C24.3333 13.0545 21.9455 10.6667 19 10.6667ZM18 16L18 75H20L20 16H18Z" fill="white"/>
<path d="M339 69.6667C336.054 69.6667 333.667 72.0545 333.667 75C333.667 77.9455 336.054 80.3333 339 80.3333C341.946 80.3333 344.333 77.9455 344.333 75C344.333 72.0545 341.946 69.6667 339 69.6667ZM338 16V75H340V16H338Z" fill="white"/>
<path d="M124.187 43V24.28H129.361L137.681 40.816L136.407 41.128V24.28H140.307V43H135.133L126.813 26.464L128.087 26.152V43H124.187ZM149.4 43.26C147.926 43.26 146.644 42.974 145.552 42.402C144.46 41.8127 143.61 40.998 143.004 39.958C142.414 38.918 142.12 37.722 142.12 36.37C142.12 35.0007 142.414 33.8047 143.004 32.782C143.61 31.742 144.451 30.936 145.526 30.364C146.6 29.7747 147.848 29.48 149.27 29.48C150.639 29.48 151.826 29.7573 152.832 30.312C153.837 30.8667 154.617 31.638 155.172 32.626C155.726 33.614 156.004 34.7753 156.004 36.11C156.004 36.3873 155.995 36.6473 155.978 36.89C155.96 37.1153 155.934 37.332 155.9 37.54H144.408V34.966H152.754L152.078 35.434C152.078 34.3593 151.818 33.5707 151.298 33.068C150.795 32.548 150.102 32.288 149.218 32.288C148.195 32.288 147.398 32.6347 146.826 33.328C146.271 34.0213 145.994 35.0613 145.994 36.448C145.994 37.8 146.271 38.8053 146.826 39.464C147.398 40.1227 148.247 40.452 149.374 40.452C149.998 40.452 150.535 40.348 150.986 40.14C151.436 39.932 151.774 39.594 152 39.126H155.666C155.232 40.4087 154.487 41.4227 153.43 42.168C152.39 42.896 151.046 43.26 149.4 43.26ZM164.583 43.26C163.11 43.26 161.827 42.974 160.735 42.402C159.643 41.8127 158.794 40.998 158.187 39.958C157.598 38.918 157.303 37.722 157.303 36.37C157.303 35.0007 157.598 33.8047 158.187 32.782C158.794 31.742 159.635 30.936 160.709 30.364C161.784 29.7747 163.032 29.48 164.453 29.48C165.823 29.48 167.01 29.7573 168.015 30.312C169.021 30.8667 169.801 31.638 170.355 32.626C170.91 33.614 171.187 34.7753 171.187 36.11C171.187 36.3873 171.179 36.6473 171.161 36.89C171.144 37.1153 171.118 37.332 171.083 37.54H159.591V34.966H167.937L167.261 35.434C167.261 34.3593 167.001 33.5707 166.481 33.068C165.979 32.548 165.285 32.288 164.401 32.288C163.379 32.288 162.581 32.6347 162.009 33.328C161.455 34.0213 161.177 35.0613 161.177 36.448C161.177 37.8 161.455 38.8053 162.009 39.464C162.581 40.1227 163.431 40.452 164.557 40.452C165.181 40.452 165.719 40.348 166.169 40.14C166.62 39.932 166.958 39.594 167.183 39.126H170.849C170.416 40.4087 169.671 41.4227 168.613 42.168C167.573 42.896 166.23 43.26 164.583 43.26ZM179.209 43.286C177.511 43.286 176.245 42.8787 175.413 42.064C174.599 41.232 174.191 39.9753 174.191 38.294V26.776L178.091 25.32V38.424C178.091 39.0133 178.256 39.4553 178.585 39.75C178.915 40.0447 179.426 40.192 180.119 40.192C180.379 40.192 180.622 40.166 180.847 40.114C181.073 40.062 181.298 40.0013 181.523 39.932V42.896C181.298 43.0173 180.977 43.1127 180.561 43.182C180.163 43.2513 179.712 43.286 179.209 43.286ZM171.721 32.704V29.74H181.523V32.704H171.721ZM190.736 43.26C190.077 43.26 189.445 43.208 188.838 43.104C188.231 43.0173 187.789 42.9047 187.512 42.766V39.698C187.824 39.8193 188.197 39.9233 188.63 40.01C189.063 40.0967 189.505 40.14 189.956 40.14C190.927 40.14 191.629 39.984 192.062 39.672C192.513 39.3427 192.738 38.7533 192.738 37.904V24.28H196.742V38.086C196.742 39.8193 196.231 41.1193 195.208 41.986C194.185 42.8353 192.695 43.26 190.736 43.26ZM207.619 43C207.515 42.6187 207.437 42.2113 207.385 41.778C207.35 41.3447 207.333 40.842 207.333 40.27H207.229V34.004C207.229 33.4667 207.047 33.0507 206.683 32.756C206.336 32.444 205.816 32.288 205.123 32.288C204.464 32.288 203.936 32.4007 203.537 32.626C203.156 32.8513 202.904 33.1807 202.783 33.614H199.065C199.238 32.418 199.854 31.43 200.911 30.65C201.968 29.87 203.416 29.48 205.253 29.48C207.16 29.48 208.616 29.9047 209.621 30.754C210.626 31.6033 211.129 32.8253 211.129 34.42V40.27C211.129 40.7033 211.155 41.1453 211.207 41.596C211.276 42.0293 211.38 42.4973 211.519 43H207.619ZM202.991 43.26C201.674 43.26 200.625 42.9307 199.845 42.272C199.065 41.596 198.675 40.7033 198.675 39.594C198.675 38.3633 199.134 37.3753 200.053 36.63C200.989 35.8673 202.289 35.3733 203.953 35.148L207.827 34.602V36.864L204.603 37.358C203.91 37.462 203.398 37.6527 203.069 37.93C202.74 38.2073 202.575 38.5887 202.575 39.074C202.575 39.5073 202.731 39.8367 203.043 40.062C203.355 40.2873 203.771 40.4 204.291 40.4C205.106 40.4 205.799 40.1833 206.371 39.75C206.943 39.2993 207.229 38.7793 207.229 38.19L207.593 40.27C207.212 41.258 206.631 42.0033 205.851 42.506C205.071 43.0087 204.118 43.26 202.991 43.26ZM213.568 43V29.74H217.468V43H213.568ZM213.438 27.972V23.76H217.598V27.972H213.438ZM220.576 43V29.74H224.398V32.86H224.476V43H220.576ZM229.806 43V34.784C229.806 34.056 229.615 33.51 229.234 33.146C228.87 32.782 228.332 32.6 227.622 32.6C227.015 32.6 226.469 32.7387 225.984 33.016C225.516 33.2933 225.143 33.6747 224.866 34.16C224.606 34.6453 224.476 35.2173 224.476 35.876L224.138 32.678C224.571 31.7073 225.204 30.936 226.036 30.364C226.885 29.7747 227.925 29.48 229.156 29.48C230.629 29.48 231.756 29.896 232.536 30.728C233.316 31.5427 233.706 32.6433 233.706 34.03V43H229.806Z" fill="black"/>
<path d="M107.472 66V54.48H111.312L114.512 65.584H113.12L116.32 54.48H120.176V66H117.744V55.168H118.16L115.04 66H112.496L109.408 55.264H109.808V66H107.472ZM127.065 66C127.001 65.7653 126.953 65.5147 126.921 65.248C126.899 64.9813 126.889 64.672 126.889 64.32H126.825V60.464C126.825 60.1333 126.713 59.8773 126.489 59.696C126.275 59.504 125.955 59.408 125.529 59.408C125.123 59.408 124.798 59.4773 124.553 59.616C124.318 59.7547 124.163 59.9573 124.089 60.224H121.801C121.907 59.488 122.286 58.88 122.937 58.4C123.587 57.92 124.478 57.68 125.609 57.68C126.782 57.68 127.678 57.9413 128.297 58.464C128.915 58.9867 129.225 59.7387 129.225 60.72V64.32C129.225 64.5867 129.241 64.8587 129.273 65.136C129.315 65.4027 129.379 65.6907 129.465 66H127.065ZM124.217 66.16C123.406 66.16 122.761 65.9573 122.281 65.552C121.801 65.136 121.561 64.5867 121.561 63.904C121.561 63.1467 121.843 62.5387 122.409 62.08C122.985 61.6107 123.785 61.3067 124.809 61.168L127.193 60.832V62.224L125.209 62.528C124.782 62.592 124.467 62.7093 124.265 62.88C124.062 63.0507 123.961 63.2853 123.961 63.584C123.961 63.8507 124.057 64.0533 124.249 64.192C124.441 64.3307 124.697 64.4 125.017 64.4C125.518 64.4 125.945 64.2667 126.297 64C126.649 63.7227 126.825 63.4027 126.825 63.04L127.049 64.32C126.814 64.928 126.457 65.3867 125.977 65.696C125.497 66.0053 124.91 66.16 124.217 66.16ZM131.069 66V57.84H133.421V59.76H133.469V66H131.069ZM136.749 66V60.944C136.749 60.496 136.632 60.16 136.397 59.936C136.173 59.712 135.843 59.6 135.405 59.6C135.032 59.6 134.696 59.6853 134.397 59.856C134.109 60.0267 133.88 60.2613 133.709 60.56C133.549 60.8587 133.469 61.2107 133.469 61.616L133.261 59.648C133.528 59.0507 133.917 58.576 134.429 58.224C134.952 57.8613 135.592 57.68 136.349 57.68C137.256 57.68 137.949 57.936 138.429 58.448C138.909 58.9493 139.149 59.6267 139.149 60.48V66H136.749ZM145.909 66C145.845 65.7653 145.797 65.5147 145.765 65.248C145.743 64.9813 145.733 64.672 145.733 64.32H145.669V60.464C145.669 60.1333 145.557 59.8773 145.333 59.696C145.119 59.504 144.799 59.408 144.373 59.408C143.967 59.408 143.642 59.4773 143.397 59.616C143.162 59.7547 143.007 59.9573 142.933 60.224H140.645C140.751 59.488 141.13 58.88 141.781 58.4C142.431 57.92 143.322 57.68 144.453 57.68C145.626 57.68 146.522 57.9413 147.141 58.464C147.759 58.9867 148.069 59.7387 148.069 60.72V64.32C148.069 64.5867 148.085 64.8587 148.117 65.136C148.159 65.4027 148.223 65.6907 148.309 66H145.909ZM143.061 66.16C142.25 66.16 141.605 65.9573 141.125 65.552C140.645 65.136 140.405 64.5867 140.405 63.904C140.405 63.1467 140.687 62.5387 141.253 62.08C141.829 61.6107 142.629 61.3067 143.653 61.168L146.037 60.832V62.224L144.053 62.528C143.626 62.592 143.311 62.7093 143.109 62.88C142.906 63.0507 142.805 63.2853 142.805 63.584C142.805 63.8507 142.901 64.0533 143.093 64.192C143.285 64.3307 143.541 64.4 143.861 64.4C144.362 64.4 144.789 64.2667 145.141 64C145.493 63.7227 145.669 63.4027 145.669 63.04L145.893 64.32C145.658 64.928 145.301 65.3867 144.821 65.696C144.341 66.0053 143.754 66.16 143.061 66.16ZM153.486 69.44C152.355 69.44 151.432 69.2 150.718 68.72C150.014 68.24 149.598 67.5893 149.47 66.768H151.742C151.827 66.9707 152.008 67.1253 152.286 67.232C152.574 67.3387 152.936 67.392 153.374 67.392C154.099 67.392 154.627 67.2533 154.958 66.976C155.288 66.6987 155.454 66.2667 155.454 65.68V63.904L155.582 63.936C155.475 64.5333 155.166 65.008 154.654 65.36C154.142 65.7013 153.507 65.872 152.75 65.872C152.024 65.872 151.39 65.7067 150.846 65.376C150.312 65.0347 149.896 64.56 149.598 63.952C149.299 63.344 149.15 62.6293 149.15 61.808C149.15 60.976 149.304 60.2507 149.614 59.632C149.923 59.0133 150.355 58.5333 150.91 58.192C151.475 57.8507 152.131 57.68 152.878 57.68C153.646 57.68 154.27 57.8613 154.75 58.224C155.24 58.5867 155.528 59.0827 155.614 59.712L155.502 59.728V57.84H157.854V65.648C157.854 66.8213 157.464 67.744 156.686 68.416C155.907 69.0987 154.84 69.44 153.486 69.44ZM153.582 64.032C154.147 64.032 154.606 63.84 154.958 63.456C155.31 63.0613 155.486 62.5013 155.486 61.776C155.486 61.0507 155.304 60.496 154.942 60.112C154.59 59.7173 154.126 59.52 153.55 59.52C152.995 59.52 152.536 59.7173 152.174 60.112C151.822 60.5067 151.646 61.0667 151.646 61.792C151.646 62.5173 151.822 63.072 152.174 63.456C152.536 63.84 153.006 64.032 153.582 64.032ZM159.773 66V57.84H162.173V66H159.773ZM159.693 56.752V54.16H162.253V56.752H159.693ZM164.085 66V57.84H166.437V59.76H166.485V66H164.085ZM169.765 66V60.944C169.765 60.496 169.648 60.16 169.413 59.936C169.189 59.712 168.858 59.6 168.421 59.6C168.048 59.6 167.712 59.6853 167.413 59.856C167.125 60.0267 166.896 60.2613 166.725 60.56C166.565 60.8587 166.485 61.2107 166.485 61.616L166.277 59.648C166.544 59.0507 166.933 58.576 167.445 58.224C167.968 57.8613 168.608 57.68 169.365 57.68C170.272 57.68 170.965 57.936 171.445 58.448C171.925 58.9493 172.165 59.6267 172.165 60.48V66H169.765ZM177.72 69.44C176.589 69.44 175.667 69.2 174.952 68.72C174.248 68.24 173.832 67.5893 173.704 66.768H175.976C176.061 66.9707 176.243 67.1253 176.52 67.232C176.808 67.3387 177.171 67.392 177.608 67.392C178.333 67.392 178.861 67.2533 179.192 66.976C179.523 66.6987 179.688 66.2667 179.688 65.68V63.904L179.816 63.936C179.709 64.5333 179.4 65.008 178.888 65.36C178.376 65.7013 177.741 65.872 176.984 65.872C176.259 65.872 175.624 65.7067 175.08 65.376C174.547 65.0347 174.131 64.56 173.832 63.952C173.533 63.344 173.384 62.6293 173.384 61.808C173.384 60.976 173.539 60.2507 173.848 59.632C174.157 59.0133 174.589 58.5333 175.144 58.192C175.709 57.8507 176.365 57.68 177.112 57.68C177.88 57.68 178.504 57.8613 178.984 58.224C179.475 58.5867 179.763 59.0827 179.848 59.712L179.736 59.728V57.84H182.088V65.648C182.088 66.8213 181.699 67.744 180.92 68.416C180.141 69.0987 179.075 69.44 177.72 69.44ZM177.816 64.032C178.381 64.032 178.84 63.84 179.192 63.456C179.544 63.0613 179.72 62.5013 179.72 61.776C179.72 61.0507 179.539 60.496 179.176 60.112C178.824 59.7173 178.36 59.52 177.784 59.52C177.229 59.52 176.771 59.7173 176.408 60.112C176.056 60.5067 175.88 61.0667 175.88 61.792C175.88 62.5173 176.056 63.072 176.408 63.456C176.771 63.84 177.24 64.032 177.816 64.032ZM188.398 66V64.08H191.31C192.142 64.08 192.846 63.9147 193.422 63.584C194.008 63.2427 194.451 62.7787 194.75 62.192C195.059 61.6053 195.214 60.9333 195.214 60.176C195.214 59.4293 195.064 58.7733 194.766 58.208C194.467 57.6427 194.024 57.2 193.438 56.88C192.862 56.56 192.152 56.4 191.31 56.4H188.446V54.48H191.31C192.6 54.48 193.726 54.7147 194.686 55.184C195.646 55.6427 196.387 56.304 196.91 57.168C197.443 58.0213 197.71 59.0347 197.71 60.208C197.71 61.3813 197.443 62.4053 196.91 63.28C196.376 64.144 195.63 64.816 194.67 65.296C193.72 65.7653 192.606 66 191.326 66H188.398ZM186.894 66V54.48H189.358V66H186.894ZM199.023 66V57.84H201.423V66H199.023ZM198.943 56.752V54.16H201.503V56.752H198.943ZM203.335 66V57.84H205.687V59.76H205.735V66H203.335ZM205.735 61.744L205.527 59.808C205.719 59.1147 206.034 58.5867 206.471 58.224C206.908 57.8613 207.452 57.68 208.103 57.68C208.306 57.68 208.455 57.7013 208.551 57.744V59.984C208.498 59.9627 208.423 59.952 208.327 59.952C208.231 59.9413 208.114 59.936 207.975 59.936C207.207 59.936 206.642 60.0747 206.279 60.352C205.916 60.6187 205.735 61.0827 205.735 61.744ZM213.425 66.16C212.518 66.16 211.729 65.984 211.057 65.632C210.385 65.2693 209.862 64.768 209.489 64.128C209.126 63.488 208.945 62.752 208.945 61.92C208.945 61.0773 209.126 60.3413 209.489 59.712C209.862 59.072 210.38 58.576 211.041 58.224C211.702 57.8613 212.47 57.68 213.345 57.68C214.188 57.68 214.918 57.8507 215.537 58.192C216.156 58.5333 216.636 59.008 216.977 59.616C217.318 60.224 217.489 60.9387 217.489 61.76C217.489 61.9307 217.484 62.0907 217.473 62.24C217.462 62.3787 217.446 62.512 217.425 62.64H210.353V61.056H215.489L215.073 61.344C215.073 60.6827 214.913 60.1973 214.593 59.888C214.284 59.568 213.857 59.408 213.313 59.408C212.684 59.408 212.193 59.6213 211.841 60.048C211.5 60.4747 211.329 61.1147 211.329 61.968C211.329 62.8 211.5 63.4187 211.841 63.824C212.193 64.2293 212.716 64.432 213.409 64.432C213.793 64.432 214.124 64.368 214.401 64.24C214.678 64.112 214.886 63.904 215.025 63.616H217.281C217.014 64.4053 216.556 65.0293 215.905 65.488C215.265 65.936 214.438 66.16 213.425 66.16ZM222.625 66.16C221.771 66.16 221.019 65.9787 220.369 65.616C219.718 65.2533 219.206 64.752 218.833 64.112C218.47 63.472 218.289 62.7413 218.289 61.92C218.289 61.0987 218.47 60.368 218.833 59.728C219.206 59.088 219.718 58.5867 220.369 58.224C221.019 57.8613 221.771 57.68 222.625 57.68C223.339 57.68 223.979 57.8133 224.545 58.08C225.121 58.336 225.59 58.6933 225.953 59.152C226.326 59.6107 226.566 60.1493 226.673 60.768H224.353C224.235 60.3733 224.022 60.0747 223.713 59.872C223.414 59.6693 223.062 59.568 222.657 59.568C222.273 59.568 221.937 59.664 221.649 59.856C221.371 60.048 221.158 60.32 221.009 60.672C220.859 61.024 220.785 61.44 220.785 61.92C220.785 62.4 220.859 62.816 221.009 63.168C221.158 63.52 221.371 63.792 221.649 63.984C221.937 64.176 222.273 64.272 222.657 64.272C223.062 64.272 223.414 64.1707 223.713 63.968C224.022 63.7653 224.235 63.4667 224.353 63.072H226.673C226.566 63.6907 226.326 64.2293 225.953 64.688C225.59 65.1467 225.121 65.5093 224.545 65.776C223.979 66.032 223.339 66.16 222.625 66.16ZM231.676 66.176C230.63 66.176 229.852 65.9253 229.34 65.424C228.838 64.912 228.588 64.1387 228.588 63.104V56.016L230.988 55.12V63.184C230.988 63.5467 231.089 63.8187 231.292 64C231.494 64.1813 231.809 64.272 232.236 64.272C232.396 64.272 232.545 64.256 232.684 64.224C232.822 64.192 232.961 64.1547 233.1 64.112V65.936C232.961 66.0107 232.764 66.0693 232.508 66.112C232.262 66.1547 231.985 66.176 231.676 66.176ZM227.068 59.664V57.84H233.1V59.664H227.068ZM238.129 66.16C237.233 66.16 236.444 65.984 235.761 65.632C235.089 65.2693 234.561 64.768 234.177 64.128C233.804 63.4773 233.617 62.7307 233.617 61.888C233.617 61.0453 233.804 60.3093 234.177 59.68C234.561 59.0507 235.089 58.56 235.761 58.208C236.444 57.856 237.233 57.68 238.129 57.68C239.036 57.68 239.825 57.856 240.497 58.208C241.18 58.56 241.708 59.0507 242.081 59.68C242.454 60.3093 242.641 61.0453 242.641 61.888C242.641 62.7307 242.449 63.4773 242.065 64.128C241.692 64.768 241.164 65.2693 240.481 65.632C239.809 65.984 239.025 66.16 238.129 66.16ZM238.129 64.272C238.502 64.272 238.838 64.176 239.137 63.984C239.446 63.792 239.692 63.52 239.873 63.168C240.054 62.8053 240.145 62.3733 240.145 61.872C240.145 61.136 239.948 60.5707 239.553 60.176C239.169 59.7707 238.694 59.568 238.129 59.568C237.564 59.568 237.084 59.7707 236.689 60.176C236.305 60.5813 236.113 61.1467 236.113 61.872C236.113 62.3733 236.204 62.8053 236.385 63.168C236.566 63.52 236.806 63.792 237.105 63.984C237.414 64.176 237.756 64.272 238.129 64.272ZM243.913 66V57.84H246.265V59.76H246.313V66H243.913ZM246.313 61.744L246.105 59.808C246.297 59.1147 246.612 58.5867 247.049 58.224C247.486 57.8613 248.03 57.68 248.681 57.68C248.884 57.68 249.033 57.7013 249.129 57.744V59.984C249.076 59.9627 249.001 59.952 248.905 59.952C248.809 59.9413 248.692 59.936 248.553 59.936C247.785 59.936 247.22 60.0747 246.857 60.352C246.494 60.6187 246.313 61.0827 246.313 61.744Z" fill="black"/>
<defs>
<filter id="filter0_d_40_67" x="0.667387" y="0.9" width="357.433" height="97.2" filterUnits="userSpaceOnUse" color-interpolation-filters="sRGB">
<feFlood flood-opacity="0" result="BackgroundImageFix"/>
<feColorMatrix in="SourceAlpha" type="matrix" values="0 0 0 0 0 0 0 0 0 0 0 0 0 0 0 0 0 0 127 0" result="hardAlpha"/>
<feOffset dy="4"/>
<feGaussianBlur stdDeviation="9.55"/>
<feComposite in2="hardAlpha" operator="out"/>
<feColorMatrix type="matrix" values="0 0 0 0 0.556863 0 0 0 0 0.411765 0 0 0 0 0.686275 0 0 0 0.7 0"/>
<feBlend mode="normal" in2="BackgroundImageFix" result="effect1_dropShadow_40_67"/>
<feBlend mode="normal" in="SourceGraphic" in2="effect1_dropShadow_40_67" result="shape"/>
</filter>
</defs>
</svg>
