<svg width="359" height="99" viewBox="0 0 359 99" fill="none" xmlns="http://www.w3.org/2000/svg">
<g filter="url(#filter0_d_40_67)">
<rect x="19.7674" y="16" width="319.233" height="59" fill="#C28DEF" fill-opacity="0.72" shape-rendering="crispEdges"/>
</g>
<path d="M19 10.6667C16.0545 10.6667 13.6667 13.0545 13.6667 16C13.6667 18.9455 16.0545 21.3333 19 21.3333C21.9455 21.3333 24.3333 18.9455 24.3333 16C24.3333 13.0545 21.9455 10.6667 19 10.6667ZM18 16L18 75H20L20 16H18Z" fill="white"/>
<path d="M339 69.6667C336.054 69.6667 333.667 72.0545 333.667 75C333.667 77.9455 336.054 80.3333 339 80.3333C341.946 80.3333 344.333 77.9455 344.333 75C344.333 72.0545 341.946 69.6667 339 69.6667ZM338 16V75H340V16H338Z" fill="white"/>
<path d="M78.4582 43V24.28H83.6322L91.9522 40.816L90.6782 41.128V24.28H94.5782V43H89.4042L81.0842 26.464L82.3582 26.152V43H78.4582ZM97.4311 43V29.74H101.331V43H97.4311ZM97.3011 27.972V23.76H101.461V27.972H97.3011ZM109.719 43.26C107.777 43.26 106.235 42.87 105.091 42.09C103.947 41.31 103.323 40.2353 103.219 38.866H106.703C106.789 39.4553 107.084 39.906 107.587 40.218C108.107 40.5127 108.817 40.66 109.719 40.66C110.533 40.66 111.123 40.5473 111.487 40.322C111.868 40.0793 112.059 39.7413 112.059 39.308C112.059 38.9787 111.946 38.7273 111.721 38.554C111.513 38.3633 111.123 38.2073 110.551 38.086L108.419 37.644C106.841 37.3147 105.68 36.8207 104.935 36.162C104.189 35.486 103.817 34.6193 103.817 33.562C103.817 32.2793 104.311 31.2827 105.299 30.572C106.287 29.844 107.665 29.48 109.433 29.48C111.183 29.48 112.579 29.8353 113.619 30.546C114.659 31.2393 115.231 32.21 115.335 33.458H111.851C111.781 33.0073 111.539 32.6693 111.123 32.444C110.707 32.2013 110.117 32.08 109.355 32.08C108.661 32.08 108.141 32.184 107.795 32.392C107.465 32.5827 107.301 32.86 107.301 33.224C107.301 33.536 107.439 33.7873 107.717 33.978C107.994 34.1513 108.453 34.3073 109.095 34.446L111.487 34.94C112.821 35.2173 113.827 35.7373 114.503 36.5C115.196 37.2453 115.543 38.1293 115.543 39.152C115.543 40.452 115.031 41.466 114.009 42.194C113.003 42.9047 111.573 43.26 109.719 43.26ZM117.464 43V24.28H121.364V43H117.464ZM126.694 43V34.784C126.694 34.056 126.504 33.51 126.122 33.146C125.758 32.782 125.221 32.6 124.51 32.6C123.904 32.6 123.358 32.7387 122.872 33.016C122.404 33.2933 122.032 33.6747 121.754 34.16C121.494 34.6453 121.364 35.2173 121.364 35.876L121.026 32.678C121.46 31.7073 122.092 30.936 122.924 30.364C123.774 29.7747 124.814 29.48 126.044 29.48C127.518 29.48 128.644 29.896 129.424 30.728C130.204 31.5427 130.594 32.6433 130.594 34.03V43H126.694ZM139.568 43.26C138.181 43.26 136.959 42.9653 135.902 42.376C134.845 41.7867 134.013 40.972 133.406 39.932C132.817 38.892 132.522 37.7047 132.522 36.37C132.522 35.0353 132.817 33.848 133.406 32.808C134.013 31.768 134.845 30.9533 135.902 30.364C136.959 29.7747 138.181 29.48 139.568 29.48C140.729 29.48 141.769 29.6967 142.688 30.13C143.624 30.546 144.387 31.1267 144.976 31.872C145.583 32.6173 145.973 33.4927 146.146 34.498H142.376C142.185 33.8567 141.839 33.3713 141.336 33.042C140.851 32.7127 140.279 32.548 139.62 32.548C138.996 32.548 138.45 32.704 137.982 33.016C137.531 33.328 137.185 33.77 136.942 34.342C136.699 34.914 136.578 35.59 136.578 36.37C136.578 37.15 136.699 37.826 136.942 38.398C137.185 38.97 137.531 39.412 137.982 39.724C138.45 40.036 138.996 40.192 139.62 40.192C140.279 40.192 140.851 40.0273 141.336 39.698C141.839 39.3687 142.185 38.8833 142.376 38.242H146.146C145.973 39.2473 145.583 40.1227 144.976 40.868C144.387 41.6133 143.624 42.2027 142.688 42.636C141.769 43.052 140.729 43.26 139.568 43.26ZM148.162 43V24.28H152.062V43H148.162ZM157.392 43V34.784C157.392 34.056 157.201 33.51 156.82 33.146C156.456 32.782 155.918 32.6 155.208 32.6C154.601 32.6 154.055 32.7387 153.57 33.016C153.102 33.2933 152.729 33.6747 152.452 34.16C152.192 34.6453 152.062 35.2173 152.062 35.876L151.724 32.678C152.157 31.7073 152.79 30.936 153.622 30.364C154.471 29.7747 155.511 29.48 156.742 29.48C158.215 29.48 159.342 29.896 160.122 30.728C160.902 31.5427 161.292 32.6433 161.292 34.03V43H157.392ZM172.275 43C172.171 42.6187 172.093 42.2113 172.041 41.778C172.006 41.3447 171.989 40.842 171.989 40.27H171.885V34.004C171.885 33.4667 171.703 33.0507 171.339 32.756C170.992 32.444 170.472 32.288 169.779 32.288C169.12 32.288 168.592 32.4007 168.193 32.626C167.812 32.8513 167.56 33.1807 167.439 33.614H163.721C163.894 32.418 164.51 31.43 165.567 30.65C166.624 29.87 168.072 29.48 169.909 29.48C171.816 29.48 173.272 29.9047 174.277 30.754C175.282 31.6033 175.785 32.8253 175.785 34.42V40.27C175.785 40.7033 175.811 41.1453 175.863 41.596C175.932 42.0293 176.036 42.4973 176.175 43H172.275ZM167.647 43.26C166.33 43.26 165.281 42.9307 164.501 42.272C163.721 41.596 163.331 40.7033 163.331 39.594C163.331 38.3633 163.79 37.3753 164.709 36.63C165.645 35.8673 166.945 35.3733 168.609 35.148L172.483 34.602V36.864L169.259 37.358C168.566 37.462 168.054 37.6527 167.725 37.93C167.396 38.2073 167.231 38.5887 167.231 39.074C167.231 39.5073 167.387 39.8367 167.699 40.062C168.011 40.2873 168.427 40.4 168.947 40.4C169.762 40.4 170.455 40.1833 171.027 39.75C171.599 39.2993 171.885 38.7793 171.885 38.19L172.249 40.27C171.868 41.258 171.287 42.0033 170.507 42.506C169.727 43.0087 168.774 43.26 167.647 43.26ZM178.595 48.33L182.261 40.218L182.937 39.1L186.369 29.74H190.529L182.495 48.33H178.595ZM181.403 42.74L176.307 29.74H180.519L184.705 41.596L181.403 42.74ZM196.728 43V24.28H200.732V43H196.728ZM198.6 43V39.932H209.728V43H198.6ZM220.06 43C219.956 42.6187 219.878 42.2113 219.826 41.778C219.792 41.3447 219.774 40.842 219.774 40.27H219.67V34.004C219.67 33.4667 219.488 33.0507 219.124 32.756C218.778 32.444 218.258 32.288 217.564 32.288C216.906 32.288 216.377 32.4007 215.978 32.626C215.597 32.8513 215.346 33.1807 215.224 33.614H211.506C211.68 32.418 212.295 31.43 213.352 30.65C214.41 29.87 215.857 29.48 217.694 29.48C219.601 29.48 221.057 29.9047 222.062 30.754C223.068 31.6033 223.57 32.8253 223.57 34.42V40.27C223.57 40.7033 223.596 41.1453 223.648 41.596C223.718 42.0293 223.822 42.4973 223.96 43H220.06ZM215.432 43.26C214.115 43.26 213.066 42.9307 212.286 42.272C211.506 41.596 211.116 40.7033 211.116 39.594C211.116 38.3633 211.576 37.3753 212.494 36.63C213.43 35.8673 214.73 35.3733 216.394 35.148L220.268 34.602V36.864L217.044 37.358C216.351 37.462 215.84 37.6527 215.51 37.93C215.181 38.2073 215.016 38.5887 215.016 39.074C215.016 39.5073 215.172 39.8367 215.484 40.062C215.796 40.2873 216.212 40.4 216.732 40.4C217.547 40.4 218.24 40.1833 218.812 39.75C219.384 39.2993 219.67 38.7793 219.67 38.19L220.034 40.27C219.653 41.258 219.072 42.0033 218.292 42.506C217.512 43.0087 216.559 43.26 215.432 43.26ZM226.568 43V29.74H230.39V32.86H230.468V43H226.568ZM235.486 43V34.576C235.486 33.9 235.304 33.406 234.94 33.094C234.593 32.7647 234.099 32.6 233.458 32.6C232.903 32.6 232.392 32.73 231.924 32.99C231.473 33.2327 231.118 33.588 230.858 34.056C230.598 34.5067 230.468 35.044 230.468 35.668L230.13 32.678C230.563 31.7073 231.187 30.936 232.002 30.364C232.834 29.7747 233.83 29.48 234.992 29.48C236.378 29.48 237.453 29.87 238.216 30.65C238.996 31.43 239.386 32.4093 239.386 33.588V43H235.486ZM244.404 43V34.576C244.404 33.9 244.222 33.406 243.858 33.094C243.511 32.7647 243.017 32.6 242.376 32.6C241.821 32.6 241.31 32.73 240.842 32.99C240.391 33.2327 240.036 33.588 239.776 34.056C239.516 34.5067 239.386 35.044 239.386 35.668L238.788 32.678C239.221 31.7073 239.862 30.936 240.712 30.364C241.578 29.7747 242.618 29.48 243.832 29.48C245.27 29.48 246.371 29.8873 247.134 30.702C247.914 31.4993 248.304 32.548 248.304 33.848V43H244.404ZM259.359 43.26C258.094 43.26 257.062 42.9653 256.265 42.376C255.485 41.7867 255.026 40.9807 254.887 39.958L255.095 39.932V43H251.273V24.28H255.173V32.678L254.939 32.626C255.13 31.6553 255.632 30.8927 256.447 30.338C257.279 29.766 258.319 29.48 259.567 29.48C260.763 29.48 261.794 29.766 262.661 30.338C263.545 30.8927 264.221 31.6813 264.689 32.704C265.174 33.7267 265.417 34.9313 265.417 36.318C265.417 37.722 265.166 38.944 264.663 39.984C264.16 41.024 263.458 41.83 262.557 42.402C261.656 42.974 260.59 43.26 259.359 43.26ZM258.267 40.14C259.186 40.14 259.931 39.8107 260.503 39.152C261.075 38.4933 261.361 37.5573 261.361 36.344C261.361 35.1307 261.066 34.2033 260.477 33.562C259.905 32.9207 259.151 32.6 258.215 32.6C257.314 32.6 256.568 32.9293 255.979 33.588C255.407 34.2293 255.121 35.1567 255.121 36.37C255.121 37.5833 255.407 38.5193 255.979 39.178C256.568 39.8193 257.331 40.14 258.267 40.14ZM275.894 43C275.79 42.6187 275.712 42.2113 275.66 41.778C275.626 41.3447 275.608 40.842 275.608 40.27H275.504V34.004C275.504 33.4667 275.322 33.0507 274.958 32.756C274.612 32.444 274.092 32.288 273.398 32.288C272.74 32.288 272.211 32.4007 271.812 32.626C271.431 32.8513 271.18 33.1807 271.058 33.614H267.34C267.514 32.418 268.129 31.43 269.186 30.65C270.244 29.87 271.691 29.48 273.528 29.48C275.435 29.48 276.891 29.9047 277.896 30.754C278.902 31.6033 279.404 32.8253 279.404 34.42V40.27C279.404 40.7033 279.43 41.1453 279.482 41.596C279.552 42.0293 279.656 42.4973 279.794 43H275.894ZM271.266 43.26C269.949 43.26 268.9 42.9307 268.12 42.272C267.34 41.596 266.95 40.7033 266.95 39.594C266.95 38.3633 267.41 37.3753 268.328 36.63C269.264 35.8673 270.564 35.3733 272.228 35.148L276.102 34.602V36.864L272.878 37.358C272.185 37.462 271.674 37.6527 271.344 37.93C271.015 38.2073 270.85 38.5887 270.85 39.074C270.85 39.5073 271.006 39.8367 271.318 40.062C271.63 40.2873 272.046 40.4 272.566 40.4C273.381 40.4 274.074 40.1833 274.646 39.75C275.218 39.2993 275.504 38.7793 275.504 38.19L275.868 40.27C275.487 41.258 274.906 42.0033 274.126 42.506C273.346 43.0087 272.393 43.26 271.266 43.26Z" fill="black"/>
<path d="M147.115 66.16C146.283 66.16 145.515 66.016 144.811 65.728C144.107 65.4293 143.494 65.0133 142.971 64.48C142.459 63.9467 142.059 63.3173 141.771 62.592C141.483 61.856 141.339 61.056 141.339 60.192C141.339 59.328 141.478 58.5387 141.755 57.824C142.043 57.1093 142.443 56.4907 142.955 55.968C143.478 55.4347 144.091 55.0293 144.795 54.752C145.499 54.464 146.273 54.32 147.115 54.32C148.065 54.32 148.918 54.5067 149.675 54.88C150.443 55.2427 151.067 55.76 151.547 56.432C152.038 57.0933 152.337 57.872 152.443 58.768H150.043C149.905 57.9467 149.569 57.328 149.035 56.912C148.502 56.4853 147.867 56.272 147.131 56.272C146.481 56.272 145.905 56.4267 145.403 56.736C144.913 57.0453 144.529 57.4933 144.251 58.08C143.974 58.656 143.835 59.3547 143.835 60.176C143.835 61.008 143.974 61.728 144.251 62.336C144.539 62.9333 144.934 63.3973 145.435 63.728C145.937 64.048 146.513 64.208 147.163 64.208C147.857 64.208 148.47 64 149.003 63.584C149.537 63.168 149.883 62.5493 150.043 61.728H152.475C152.337 62.624 152.022 63.408 151.531 64.08C151.041 64.7413 150.417 65.2533 149.659 65.616C148.902 65.9787 148.054 66.16 147.115 66.16ZM157.66 66.16C156.764 66.16 155.975 65.984 155.292 65.632C154.62 65.2693 154.092 64.768 153.708 64.128C153.335 63.4773 153.148 62.7307 153.148 61.888C153.148 61.0453 153.335 60.3093 153.708 59.68C154.092 59.0507 154.62 58.56 155.292 58.208C155.975 57.856 156.764 57.68 157.66 57.68C158.567 57.68 159.356 57.856 160.028 58.208C160.711 58.56 161.239 59.0507 161.612 59.68C161.985 60.3093 162.172 61.0453 162.172 61.888C162.172 62.7307 161.98 63.4773 161.596 64.128C161.223 64.768 160.695 65.2693 160.012 65.632C159.34 65.984 158.556 66.16 157.66 66.16ZM157.66 64.272C158.033 64.272 158.369 64.176 158.668 63.984C158.977 63.792 159.223 63.52 159.404 63.168C159.585 62.8053 159.676 62.3733 159.676 61.872C159.676 61.136 159.479 60.5707 159.084 60.176C158.7 59.7707 158.225 59.568 157.66 59.568C157.095 59.568 156.615 59.7707 156.22 60.176C155.836 60.5813 155.644 61.1467 155.644 61.872C155.644 62.3733 155.735 62.8053 155.916 63.168C156.097 63.52 156.337 63.792 156.636 63.984C156.945 64.176 157.287 64.272 157.66 64.272ZM163.444 66V57.84H165.796V59.76H165.844V66H163.444ZM169.124 66V60.944C169.124 60.496 169.007 60.16 168.772 59.936C168.548 59.712 168.218 59.6 167.78 59.6C167.407 59.6 167.071 59.6853 166.772 59.856C166.484 60.0267 166.255 60.2613 166.084 60.56C165.924 60.8587 165.844 61.2107 165.844 61.616L165.636 59.648C165.903 59.0507 166.292 58.576 166.804 58.224C167.327 57.8613 167.967 57.68 168.724 57.68C169.631 57.68 170.324 57.936 170.804 58.448C171.284 58.9493 171.524 59.6267 171.524 60.48V66H169.124ZM175.231 66L172.015 57.84H174.591L177.103 65.456H175.759L178.255 57.84H180.767L177.551 66H175.231ZM185.284 66.16C184.378 66.16 183.588 65.984 182.916 65.632C182.244 65.2693 181.722 64.768 181.348 64.128C180.986 63.488 180.804 62.752 180.804 61.92C180.804 61.0773 180.986 60.3413 181.348 59.712C181.722 59.072 182.239 58.576 182.9 58.224C183.562 57.8613 184.33 57.68 185.204 57.68C186.047 57.68 186.778 57.8507 187.396 58.192C188.015 58.5333 188.495 59.008 188.836 59.616C189.178 60.224 189.348 60.9387 189.348 61.76C189.348 61.9307 189.343 62.0907 189.332 62.24C189.322 62.3787 189.306 62.512 189.284 62.64H182.212V61.056H187.348L186.932 61.344C186.932 60.6827 186.772 60.1973 186.452 59.888C186.143 59.568 185.716 59.408 185.172 59.408C184.543 59.408 184.052 59.6213 183.7 60.048C183.359 60.4747 183.188 61.1147 183.188 61.968C183.188 62.8 183.359 63.4187 183.7 63.824C184.052 64.2293 184.575 64.432 185.268 64.432C185.652 64.432 185.983 64.368 186.26 64.24C186.538 64.112 186.746 63.904 186.884 63.616H189.14C188.874 64.4053 188.415 65.0293 187.764 65.488C187.124 65.936 186.298 66.16 185.284 66.16ZM190.632 66V57.84H192.984V59.76H193.032V66H190.632ZM196.312 66V60.944C196.312 60.496 196.195 60.16 195.96 59.936C195.736 59.712 195.405 59.6 194.968 59.6C194.595 59.6 194.259 59.6853 193.96 59.856C193.672 60.0267 193.443 60.2613 193.272 60.56C193.112 60.8587 193.032 61.2107 193.032 61.616L192.824 59.648C193.091 59.0507 193.48 58.576 193.992 58.224C194.515 57.8613 195.155 57.68 195.912 57.68C196.819 57.68 197.512 57.936 197.992 58.448C198.472 58.9493 198.712 59.6267 198.712 60.48V66H196.312ZM204.378 66.16C203.471 66.16 202.682 65.984 202.01 65.632C201.338 65.2693 200.815 64.768 200.442 64.128C200.079 63.488 199.898 62.752 199.898 61.92C199.898 61.0773 200.079 60.3413 200.442 59.712C200.815 59.072 201.333 58.576 201.994 58.224C202.655 57.8613 203.423 57.68 204.298 57.68C205.141 57.68 205.871 57.8507 206.49 58.192C207.109 58.5333 207.589 59.008 207.93 59.616C208.271 60.224 208.442 60.9387 208.442 61.76C208.442 61.9307 208.437 62.0907 208.426 62.24C208.415 62.3787 208.399 62.512 208.378 62.64H201.306V61.056H206.442L206.026 61.344C206.026 60.6827 205.866 60.1973 205.546 59.888C205.237 59.568 204.81 59.408 204.266 59.408C203.637 59.408 203.146 59.6213 202.794 60.048C202.453 60.4747 202.282 61.1147 202.282 61.968C202.282 62.8 202.453 63.4187 202.794 63.824C203.146 64.2293 203.669 64.432 204.362 64.432C204.746 64.432 205.077 64.368 205.354 64.24C205.631 64.112 205.839 63.904 205.978 63.616H208.234C207.967 64.4053 207.509 65.0293 206.858 65.488C206.218 65.936 205.391 66.16 204.378 66.16ZM209.726 66V57.84H212.078V59.76H212.126V66H209.726ZM212.126 61.744L211.918 59.808C212.11 59.1147 212.424 58.5867 212.862 58.224C213.299 57.8613 213.843 57.68 214.494 57.68C214.696 57.68 214.846 57.7013 214.942 57.744V59.984C214.888 59.9627 214.814 59.952 214.718 59.952C214.622 59.9413 214.504 59.936 214.366 59.936C213.598 59.936 213.032 60.0747 212.67 60.352C212.307 60.6187 212.126 61.0827 212.126 61.744Z" fill="black"/>
<defs>
<filter id="filter0_d_40_67" x="0.667387" y="0.9" width="357.433" height="97.2" filterUnits="userSpaceOnUse" color-interpolation-filters="sRGB">
<feFlood flood-opacity="0" result="BackgroundImageFix"/>
<feColorMatrix in="SourceAlpha" type="matrix" values="0 0 0 0 0 0 0 0 0 0 0 0 0 0 0 0 0 0 127 0" result="hardAlpha"/>
<feOffset dy="4"/>
<feGaussianBlur stdDeviation="9.55"/>
<feComposite in2="hardAlpha" operator="out"/>
<feColorMatrix type="matrix" values="0 0 0 0 0.556863 0 0 0 0 0.411765 0 0 0 0 0.686275 0 0 0 0.7 0"/>
<feBlend mode="normal" in2="BackgroundImageFix" result="effect1_dropShadow_40_67"/>
<feBlend mode="normal" in="SourceGraphic" in2="effect1_dropShadow_40_67" result="shape"/>
</filter>
</defs>
</svg>
