<svg width="359" height="99" viewBox="0 0 359 99" fill="none" xmlns="http://www.w3.org/2000/svg">
<g filter="url(#filter0_d_40_67)">
<rect x="19.7674" y="16" width="319.233" height="59" fill="#C28DEF" fill-opacity="0.72" shape-rendering="crispEdges"/>
</g>
<path d="M19 10.6667C16.0545 10.6667 13.6667 13.0545 13.6667 16C13.6667 18.9455 16.0545 21.3333 19 21.3333C21.9455 21.3333 24.3333 18.9455 24.3333 16C24.3333 13.0545 21.9455 10.6667 19 10.6667ZM18 16L18 75H20L20 16H18Z" fill="white"/>
<path d="M339 69.6667C336.054 69.6667 333.667 72.0545 333.667 75C333.667 77.9455 336.054 80.3333 339 80.3333C341.946 80.3333 344.333 77.9455 344.333 75C344.333 72.0545 341.946 69.6667 339 69.6667ZM338 16V75H340V16H338Z" fill="white"/>
<path d="M78.4582 43V24.28H83.6322L91.9522 40.816L90.6782 41.128V24.28H94.5782V43H89.4042L81.0842 26.464L82.3582 26.152V43H78.4582ZM97.4311 43V29.74H101.331V43H97.4311ZM97.3011 27.972V23.76H101.461V27.972H97.3011ZM109.719 43.26C107.777 43.26 106.235 42.87 105.091 42.09C103.947 41.31 103.323 40.2353 103.219 38.866H106.703C106.789 39.4553 107.084 39.906 107.587 40.218C108.107 40.5127 108.817 40.66 109.719 40.66C110.533 40.66 111.123 40.5473 111.487 40.322C111.868 40.0793 112.059 39.7413 112.059 39.308C112.059 38.9787 111.946 38.7273 111.721 38.554C111.513 38.3633 111.123 38.2073 110.551 38.086L108.419 37.644C106.841 37.3147 105.68 36.8207 104.935 36.162C104.189 35.486 103.817 34.6193 103.817 33.562C103.817 32.2793 104.311 31.2827 105.299 30.572C106.287 29.844 107.665 29.48 109.433 29.48C111.183 29.48 112.579 29.8353 113.619 30.546C114.659 31.2393 115.231 32.21 115.335 33.458H111.851C111.781 33.0073 111.539 32.6693 111.123 32.444C110.707 32.2013 110.117 32.08 109.355 32.08C108.661 32.08 108.141 32.184 107.795 32.392C107.465 32.5827 107.301 32.86 107.301 33.224C107.301 33.536 107.439 33.7873 107.717 33.978C107.994 34.1513 108.453 34.3073 109.095 34.446L111.487 34.94C112.821 35.2173 113.827 35.7373 114.503 36.5C115.196 37.2453 115.543 38.1293 115.543 39.152C115.543 40.452 115.031 41.466 114.009 42.194C113.003 42.9047 111.573 43.26 109.719 43.26ZM117.464 43V24.28H121.364V43H117.464ZM126.694 43V34.784C126.694 34.056 126.504 33.51 126.122 33.146C125.758 32.782 125.221 32.6 124.51 32.6C123.904 32.6 123.358 32.7387 122.872 33.016C122.404 33.2933 122.032 33.6747 121.754 34.16C121.494 34.6453 121.364 35.2173 121.364 35.876L121.026 32.678C121.46 31.7073 122.092 30.936 122.924 30.364C123.774 29.7747 124.814 29.48 126.044 29.48C127.518 29.48 128.644 29.896 129.424 30.728C130.204 31.5427 130.594 32.6433 130.594 34.03V43H126.694ZM139.568 43.26C138.181 43.26 136.959 42.9653 135.902 42.376C134.845 41.7867 134.013 40.972 133.406 39.932C132.817 38.892 132.522 37.7047 132.522 36.37C132.522 35.0353 132.817 33.848 133.406 32.808C134.013 31.768 134.845 30.9533 135.902 30.364C136.959 29.7747 138.181 29.48 139.568 29.48C140.729 29.48 141.769 29.6967 142.688 30.13C143.624 30.546 144.387 31.1267 144.976 31.872C145.583 32.6173 145.973 33.4927 146.146 34.498H142.376C142.185 33.8567 141.839 33.3713 141.336 33.042C140.851 32.7127 140.279 32.548 139.62 32.548C138.996 32.548 138.45 32.704 137.982 33.016C137.531 33.328 137.185 33.77 136.942 34.342C136.699 34.914 136.578 35.59 136.578 36.37C136.578 37.15 136.699 37.826 136.942 38.398C137.185 38.97 137.531 39.412 137.982 39.724C138.45 40.036 138.996 40.192 139.62 40.192C140.279 40.192 140.851 40.0273 141.336 39.698C141.839 39.3687 142.185 38.8833 142.376 38.242H146.146C145.973 39.2473 145.583 40.1227 144.976 40.868C144.387 41.6133 143.624 42.2027 142.688 42.636C141.769 43.052 140.729 43.26 139.568 43.26ZM148.162 43V24.28H152.062V43H148.162ZM157.392 43V34.784C157.392 34.056 157.201 33.51 156.82 33.146C156.456 32.782 155.918 32.6 155.208 32.6C154.601 32.6 154.055 32.7387 153.57 33.016C153.102 33.2933 152.729 33.6747 152.452 34.16C152.192 34.6453 152.062 35.2173 152.062 35.876L151.724 32.678C152.157 31.7073 152.79 30.936 153.622 30.364C154.471 29.7747 155.511 29.48 156.742 29.48C158.215 29.48 159.342 29.896 160.122 30.728C160.902 31.5427 161.292 32.6433 161.292 34.03V43H157.392ZM172.275 43C172.171 42.6187 172.093 42.2113 172.041 41.778C172.006 41.3447 171.989 40.842 171.989 40.27H171.885V34.004C171.885 33.4667 171.703 33.0507 171.339 32.756C170.992 32.444 170.472 32.288 169.779 32.288C169.12 32.288 168.592 32.4007 168.193 32.626C167.812 32.8513 167.56 33.1807 167.439 33.614H163.721C163.894 32.418 164.51 31.43 165.567 30.65C166.624 29.87 168.072 29.48 169.909 29.48C171.816 29.48 173.272 29.9047 174.277 30.754C175.282 31.6033 175.785 32.8253 175.785 34.42V40.27C175.785 40.7033 175.811 41.1453 175.863 41.596C175.932 42.0293 176.036 42.4973 176.175 43H172.275ZM167.647 43.26C166.33 43.26 165.281 42.9307 164.501 42.272C163.721 41.596 163.331 40.7033 163.331 39.594C163.331 38.3633 163.79 37.3753 164.709 36.63C165.645 35.8673 166.945 35.3733 168.609 35.148L172.483 34.602V36.864L169.259 37.358C168.566 37.462 168.054 37.6527 167.725 37.93C167.396 38.2073 167.231 38.5887 167.231 39.074C167.231 39.5073 167.387 39.8367 167.699 40.062C168.011 40.2873 168.427 40.4 168.947 40.4C169.762 40.4 170.455 40.1833 171.027 39.75C171.599 39.2993 171.885 38.7793 171.885 38.19L172.249 40.27C171.868 41.258 171.287 42.0033 170.507 42.506C169.727 43.0087 168.774 43.26 167.647 43.26ZM178.595 48.33L182.261 40.218L182.937 39.1L186.369 29.74H190.529L182.495 48.33H178.595ZM181.403 42.74L176.307 29.74H180.519L184.705 41.596L181.403 42.74ZM196.728 43V24.28H200.732V43H196.728ZM198.6 43V39.932H209.728V43H198.6ZM220.06 43C219.956 42.6187 219.878 42.2113 219.826 41.778C219.792 41.3447 219.774 40.842 219.774 40.27H219.67V34.004C219.67 33.4667 219.488 33.0507 219.124 32.756C218.778 32.444 218.258 32.288 217.564 32.288C216.906 32.288 216.377 32.4007 215.978 32.626C215.597 32.8513 215.346 33.1807 215.224 33.614H211.506C211.68 32.418 212.295 31.43 213.352 30.65C214.41 29.87 215.857 29.48 217.694 29.48C219.601 29.48 221.057 29.9047 222.062 30.754C223.068 31.6033 223.57 32.8253 223.57 34.42V40.27C223.57 40.7033 223.596 41.1453 223.648 41.596C223.718 42.0293 223.822 42.4973 223.96 43H220.06ZM215.432 43.26C214.115 43.26 213.066 42.9307 212.286 42.272C211.506 41.596 211.116 40.7033 211.116 39.594C211.116 38.3633 211.576 37.3753 212.494 36.63C213.43 35.8673 214.73 35.3733 216.394 35.148L220.268 34.602V36.864L217.044 37.358C216.351 37.462 215.84 37.6527 215.51 37.93C215.181 38.2073 215.016 38.5887 215.016 39.074C215.016 39.5073 215.172 39.8367 215.484 40.062C215.796 40.2873 216.212 40.4 216.732 40.4C217.547 40.4 218.24 40.1833 218.812 39.75C219.384 39.2993 219.67 38.7793 219.67 38.19L220.034 40.27C219.653 41.258 219.072 42.0033 218.292 42.506C217.512 43.0087 216.559 43.26 215.432 43.26ZM226.568 43V29.74H230.39V32.86H230.468V43H226.568ZM235.486 43V34.576C235.486 33.9 235.304 33.406 234.94 33.094C234.593 32.7647 234.099 32.6 233.458 32.6C232.903 32.6 232.392 32.73 231.924 32.99C231.473 33.2327 231.118 33.588 230.858 34.056C230.598 34.5067 230.468 35.044 230.468 35.668L230.13 32.678C230.563 31.7073 231.187 30.936 232.002 30.364C232.834 29.7747 233.83 29.48 234.992 29.48C236.378 29.48 237.453 29.87 238.216 30.65C238.996 31.43 239.386 32.4093 239.386 33.588V43H235.486ZM244.404 43V34.576C244.404 33.9 244.222 33.406 243.858 33.094C243.511 32.7647 243.017 32.6 242.376 32.6C241.821 32.6 241.31 32.73 240.842 32.99C240.391 33.2327 240.036 33.588 239.776 34.056C239.516 34.5067 239.386 35.044 239.386 35.668L238.788 32.678C239.221 31.7073 239.862 30.936 240.712 30.364C241.578 29.7747 242.618 29.48 243.832 29.48C245.27 29.48 246.371 29.8873 247.134 30.702C247.914 31.4993 248.304 32.548 248.304 33.848V43H244.404ZM259.359 43.26C258.094 43.26 257.062 42.9653 256.265 42.376C255.485 41.7867 255.026 40.9807 254.887 39.958L255.095 39.932V43H251.273V24.28H255.173V32.678L254.939 32.626C255.13 31.6553 255.632 30.8927 256.447 30.338C257.279 29.766 258.319 29.48 259.567 29.48C260.763 29.48 261.794 29.766 262.661 30.338C263.545 30.8927 264.221 31.6813 264.689 32.704C265.174 33.7267 265.417 34.9313 265.417 36.318C265.417 37.722 265.166 38.944 264.663 39.984C264.16 41.024 263.458 41.83 262.557 42.402C261.656 42.974 260.59 43.26 259.359 43.26ZM258.267 40.14C259.186 40.14 259.931 39.8107 260.503 39.152C261.075 38.4933 261.361 37.5573 261.361 36.344C261.361 35.1307 261.066 34.2033 260.477 33.562C259.905 32.9207 259.151 32.6 258.215 32.6C257.314 32.6 256.568 32.9293 255.979 33.588C255.407 34.2293 255.121 35.1567 255.121 36.37C255.121 37.5833 255.407 38.5193 255.979 39.178C256.568 39.8193 257.331 40.14 258.267 40.14ZM275.894 43C275.79 42.6187 275.712 42.2113 275.66 41.778C275.626 41.3447 275.608 40.842 275.608 40.27H275.504V34.004C275.504 33.4667 275.322 33.0507 274.958 32.756C274.612 32.444 274.092 32.288 273.398 32.288C272.74 32.288 272.211 32.4007 271.812 32.626C271.431 32.8513 271.18 33.1807 271.058 33.614H267.34C267.514 32.418 268.129 31.43 269.186 30.65C270.244 29.87 271.691 29.48 273.528 29.48C275.435 29.48 276.891 29.9047 277.896 30.754C278.902 31.6033 279.404 32.8253 279.404 34.42V40.27C279.404 40.7033 279.43 41.1453 279.482 41.596C279.552 42.0293 279.656 42.4973 279.794 43H275.894ZM271.266 43.26C269.949 43.26 268.9 42.9307 268.12 42.272C267.34 41.596 266.95 40.7033 266.95 39.594C266.95 38.3633 267.41 37.3753 268.328 36.63C269.264 35.8673 270.564 35.3733 272.228 35.148L276.102 34.602V36.864L272.878 37.358C272.185 37.462 271.674 37.6527 271.344 37.93C271.015 38.2073 270.85 38.5887 270.85 39.074C270.85 39.5073 271.006 39.8367 271.318 40.062C271.63 40.2873 272.046 40.4 272.566 40.4C273.381 40.4 274.074 40.1833 274.646 39.75C275.218 39.2993 275.504 38.7793 275.504 38.19L275.868 40.27C275.487 41.258 274.906 42.0033 274.126 42.506C273.346 43.0087 272.393 43.26 271.266 43.26Z" fill="black"/>
<path d="M132.74 66.16C131.908 66.16 131.14 66.016 130.436 65.728C129.732 65.4293 129.119 65.0133 128.596 64.48C128.084 63.9467 127.684 63.3173 127.396 62.592C127.108 61.856 126.964 61.056 126.964 60.192C126.964 59.328 127.103 58.5387 127.38 57.824C127.668 57.1093 128.068 56.4907 128.58 55.968C129.103 55.4347 129.716 55.0293 130.42 54.752C131.124 54.464 131.898 54.32 132.74 54.32C133.69 54.32 134.543 54.5067 135.3 54.88C136.068 55.2427 136.692 55.76 137.172 56.432C137.663 57.0933 137.962 57.872 138.068 58.768H135.668C135.53 57.9467 135.194 57.328 134.66 56.912C134.127 56.4853 133.492 56.272 132.756 56.272C132.106 56.272 131.53 56.4267 131.028 56.736C130.538 57.0453 130.154 57.4933 129.876 58.08C129.599 58.656 129.46 59.3547 129.46 60.176C129.46 61.008 129.599 61.728 129.876 62.336C130.164 62.9333 130.559 63.3973 131.06 63.728C131.562 64.048 132.138 64.208 132.788 64.208C133.482 64.208 134.095 64 134.628 63.584C135.162 63.168 135.508 62.5493 135.668 61.728H138.1C137.962 62.624 137.647 63.408 137.156 64.08C136.666 64.7413 136.042 65.2533 135.284 65.616C134.527 65.9787 133.679 66.16 132.74 66.16ZM143.285 66.16C142.389 66.16 141.6 65.984 140.917 65.632C140.245 65.2693 139.717 64.768 139.333 64.128C138.96 63.4773 138.773 62.7307 138.773 61.888C138.773 61.0453 138.96 60.3093 139.333 59.68C139.717 59.0507 140.245 58.56 140.917 58.208C141.6 57.856 142.389 57.68 143.285 57.68C144.192 57.68 144.981 57.856 145.653 58.208C146.336 58.56 146.864 59.0507 147.237 59.68C147.61 60.3093 147.797 61.0453 147.797 61.888C147.797 62.7307 147.605 63.4773 147.221 64.128C146.848 64.768 146.32 65.2693 145.637 65.632C144.965 65.984 144.181 66.16 143.285 66.16ZM143.285 64.272C143.658 64.272 143.994 64.176 144.293 63.984C144.602 63.792 144.848 63.52 145.029 63.168C145.21 62.8053 145.301 62.3733 145.301 61.872C145.301 61.136 145.104 60.5707 144.709 60.176C144.325 59.7707 143.85 59.568 143.285 59.568C142.72 59.568 142.24 59.7707 141.845 60.176C141.461 60.5813 141.269 61.1467 141.269 61.872C141.269 62.3733 141.36 62.8053 141.541 63.168C141.722 63.52 141.962 63.792 142.261 63.984C142.57 64.176 142.912 64.272 143.285 64.272ZM148.804 62.608V60.688H154.66V62.608H148.804ZM161.49 66.16C160.658 66.16 159.89 66.016 159.186 65.728C158.482 65.4293 157.869 65.0133 157.346 64.48C156.834 63.9467 156.434 63.3173 156.146 62.592C155.858 61.856 155.714 61.056 155.714 60.192C155.714 59.328 155.853 58.5387 156.13 57.824C156.418 57.1093 156.818 56.4907 157.33 55.968C157.853 55.4347 158.466 55.0293 159.17 54.752C159.874 54.464 160.648 54.32 161.49 54.32C162.44 54.32 163.293 54.5067 164.05 54.88C164.818 55.2427 165.442 55.76 165.922 56.432C166.413 57.0933 166.712 57.872 166.818 58.768H164.418C164.28 57.9467 163.944 57.328 163.41 56.912C162.877 56.4853 162.242 56.272 161.506 56.272C160.856 56.272 160.28 56.4267 159.778 56.736C159.288 57.0453 158.904 57.4933 158.626 58.08C158.349 58.656 158.21 59.3547 158.21 60.176C158.21 61.008 158.349 61.728 158.626 62.336C158.914 62.9333 159.309 63.3973 159.81 63.728C160.312 64.048 160.888 64.208 161.538 64.208C162.232 64.208 162.845 64 163.378 63.584C163.912 63.168 164.258 62.5493 164.418 61.728H166.85C166.712 62.624 166.397 63.408 165.906 64.08C165.416 64.7413 164.792 65.2533 164.034 65.616C163.277 65.9787 162.429 66.16 161.49 66.16ZM172.035 66.16C171.139 66.16 170.35 65.984 169.667 65.632C168.995 65.2693 168.467 64.768 168.083 64.128C167.71 63.4773 167.523 62.7307 167.523 61.888C167.523 61.0453 167.71 60.3093 168.083 59.68C168.467 59.0507 168.995 58.56 169.667 58.208C170.35 57.856 171.139 57.68 172.035 57.68C172.942 57.68 173.731 57.856 174.403 58.208C175.086 58.56 175.614 59.0507 175.987 59.68C176.36 60.3093 176.547 61.0453 176.547 61.888C176.547 62.7307 176.355 63.4773 175.971 64.128C175.598 64.768 175.07 65.2693 174.387 65.632C173.715 65.984 172.931 66.16 172.035 66.16ZM172.035 64.272C172.408 64.272 172.744 64.176 173.043 63.984C173.352 63.792 173.598 63.52 173.779 63.168C173.96 62.8053 174.051 62.3733 174.051 61.872C174.051 61.136 173.854 60.5707 173.459 60.176C173.075 59.7707 172.6 59.568 172.035 59.568C171.47 59.568 170.99 59.7707 170.595 60.176C170.211 60.5813 170.019 61.1467 170.019 61.872C170.019 62.3733 170.11 62.8053 170.291 63.168C170.472 63.52 170.712 63.792 171.011 63.984C171.32 64.176 171.662 64.272 172.035 64.272ZM177.819 66V57.84H180.171V59.76H180.219V66H177.819ZM183.499 66V60.944C183.499 60.496 183.382 60.16 183.147 59.936C182.923 59.712 182.593 59.6 182.155 59.6C181.782 59.6 181.446 59.6853 181.147 59.856C180.859 60.0267 180.63 60.2613 180.459 60.56C180.299 60.8587 180.219 61.2107 180.219 61.616L180.011 59.648C180.278 59.0507 180.667 58.576 181.179 58.224C181.702 57.8613 182.342 57.68 183.099 57.68C184.006 57.68 184.699 57.936 185.179 58.448C185.659 58.9493 185.899 59.6267 185.899 60.48V66H183.499ZM189.606 66L186.39 57.84H188.966L191.478 65.456H190.134L192.63 57.84H195.142L191.926 66H189.606ZM199.659 66.16C198.753 66.16 197.963 65.984 197.291 65.632C196.619 65.2693 196.097 64.768 195.723 64.128C195.361 63.488 195.179 62.752 195.179 61.92C195.179 61.0773 195.361 60.3413 195.723 59.712C196.097 59.072 196.614 58.576 197.275 58.224C197.937 57.8613 198.705 57.68 199.579 57.68C200.422 57.68 201.153 57.8507 201.771 58.192C202.39 58.5333 202.87 59.008 203.211 59.616C203.553 60.224 203.723 60.9387 203.723 61.76C203.723 61.9307 203.718 62.0907 203.707 62.24C203.697 62.3787 203.681 62.512 203.659 62.64H196.587V61.056H201.723L201.307 61.344C201.307 60.6827 201.147 60.1973 200.827 59.888C200.518 59.568 200.091 59.408 199.547 59.408C198.918 59.408 198.427 59.6213 198.075 60.048C197.734 60.4747 197.563 61.1147 197.563 61.968C197.563 62.8 197.734 63.4187 198.075 63.824C198.427 64.2293 198.95 64.432 199.643 64.432C200.027 64.432 200.358 64.368 200.635 64.24C200.913 64.112 201.121 63.904 201.259 63.616H203.515C203.249 64.4053 202.79 65.0293 202.139 65.488C201.499 65.936 200.673 66.16 199.659 66.16ZM205.007 66V57.84H207.359V59.76H207.407V66H205.007ZM210.687 66V60.944C210.687 60.496 210.57 60.16 210.335 59.936C210.111 59.712 209.78 59.6 209.343 59.6C208.97 59.6 208.634 59.6853 208.335 59.856C208.047 60.0267 207.818 60.2613 207.647 60.56C207.487 60.8587 207.407 61.2107 207.407 61.616L207.199 59.648C207.466 59.0507 207.855 58.576 208.367 58.224C208.89 57.8613 209.53 57.68 210.287 57.68C211.194 57.68 211.887 57.936 212.367 58.448C212.847 58.9493 213.087 59.6267 213.087 60.48V66H210.687ZM218.753 66.16C217.846 66.16 217.057 65.984 216.385 65.632C215.713 65.2693 215.19 64.768 214.817 64.128C214.454 63.488 214.273 62.752 214.273 61.92C214.273 61.0773 214.454 60.3413 214.817 59.712C215.19 59.072 215.708 58.576 216.369 58.224C217.03 57.8613 217.798 57.68 218.673 57.68C219.516 57.68 220.246 57.8507 220.865 58.192C221.484 58.5333 221.964 59.008 222.305 59.616C222.646 60.224 222.817 60.9387 222.817 61.76C222.817 61.9307 222.812 62.0907 222.801 62.24C222.79 62.3787 222.774 62.512 222.753 62.64H215.681V61.056H220.817L220.401 61.344C220.401 60.6827 220.241 60.1973 219.921 59.888C219.612 59.568 219.185 59.408 218.641 59.408C218.012 59.408 217.521 59.6213 217.169 60.048C216.828 60.4747 216.657 61.1147 216.657 61.968C216.657 62.8 216.828 63.4187 217.169 63.824C217.521 64.2293 218.044 64.432 218.737 64.432C219.121 64.432 219.452 64.368 219.729 64.24C220.006 64.112 220.214 63.904 220.353 63.616H222.609C222.342 64.4053 221.884 65.0293 221.233 65.488C220.593 65.936 219.766 66.16 218.753 66.16ZM224.101 66V57.84H226.453V59.76H226.501V66H224.101ZM226.501 61.744L226.293 59.808C226.485 59.1147 226.799 58.5867 227.237 58.224C227.674 57.8613 228.218 57.68 228.869 57.68C229.071 57.68 229.221 57.7013 229.317 57.744V59.984C229.263 59.9627 229.189 59.952 229.093 59.952C228.997 59.9413 228.879 59.936 228.741 59.936C227.973 59.936 227.407 60.0747 227.045 60.352C226.682 60.6187 226.501 61.0827 226.501 61.744Z" fill="black"/>
<defs>
<filter id="filter0_d_40_67" x="0.667387" y="0.9" width="357.433" height="97.2" filterUnits="userSpaceOnUse" color-interpolation-filters="sRGB">
<feFlood flood-opacity="0" result="BackgroundImageFix"/>
<feColorMatrix in="SourceAlpha" type="matrix" values="0 0 0 0 0 0 0 0 0 0 0 0 0 0 0 0 0 0 127 0" result="hardAlpha"/>
<feOffset dy="4"/>
<feGaussianBlur stdDeviation="9.55"/>
<feComposite in2="hardAlpha" operator="out"/>
<feColorMatrix type="matrix" values="0 0 0 0 0.556863 0 0 0 0 0.411765 0 0 0 0 0.686275 0 0 0 0.7 0"/>
<feBlend mode="normal" in2="BackgroundImageFix" result="effect1_dropShadow_40_67"/>
<feBlend mode="normal" in="SourceGraphic" in2="effect1_dropShadow_40_67" result="shape"/>
</filter>
</defs>
</svg>
