<svg width="505" height="67" viewBox="0 0 505 67" fill="none" xmlns="http://www.w3.org/2000/svg">
<g filter="url(#filter0_d_23_23)">
<rect x="20" y="16" width="416" height="27" fill="#C28DEF" fill-opacity="0.72" shape-rendering="crispEdges"/>
</g>
<path d="M19 10.6667C16.0545 10.6667 13.6667 13.0545 13.6667 16C13.6667 18.9455 16.0545 21.3333 19 21.3333C21.9455 21.3333 24.3333 18.9455 24.3333 16C24.3333 13.0545 21.9455 10.6667 19 10.6667ZM18 16V43H20V16H18Z" fill="white"/>
<path d="M436 37.6667C433.054 37.6667 430.667 40.0545 430.667 43C430.667 45.9455 433.054 48.3333 436 48.3333C438.946 48.3333 441.333 45.9455 441.333 43C441.333 40.0545 438.946 37.6667 436 37.6667ZM435 16V43H437V16H435Z" fill="white"/>
<path d="M36.5838 38.24C35.3038 38.24 34.1198 38.024 33.0318 37.592C31.9598 37.16 31.0238 36.552 30.2238 35.768C29.4398 34.968 28.8238 34.024 28.3758 32.936C27.9438 31.832 27.7278 30.616 27.7278 29.288C27.7278 27.528 28.1038 25.992 28.8558 24.68C29.6078 23.352 30.6478 22.32 31.9758 21.584C33.3198 20.848 34.8478 20.48 36.5598 20.48C38.3038 20.48 39.8398 20.848 41.1678 21.584C42.4958 22.32 43.5358 23.352 44.2878 24.68C45.0558 26.008 45.4398 27.552 45.4398 29.312C45.4398 30.624 45.2158 31.832 44.7678 32.936C44.3358 34.024 43.7198 34.968 42.9198 35.768C42.1358 36.552 41.1998 37.16 40.1118 37.592C39.0398 38.024 37.8638 38.24 36.5838 38.24ZM36.5598 35.312C37.5678 35.312 38.4558 35.056 39.2238 34.544C39.9918 34.032 40.5918 33.328 41.0238 32.432C41.4718 31.52 41.6958 30.464 41.6958 29.264C41.6958 28.08 41.4798 27.048 41.0478 26.168C40.6158 25.288 40.0158 24.608 39.2478 24.128C38.4798 23.648 37.5838 23.408 36.5598 23.408C35.5518 23.408 34.6638 23.648 33.8958 24.128C33.1278 24.608 32.5278 25.288 32.0958 26.168C31.6798 27.032 31.4718 28.064 31.4718 29.264C31.4718 30.48 31.6878 31.544 32.1198 32.456C32.5518 33.352 33.1518 34.056 33.9198 34.568C34.6878 35.064 35.5678 35.312 36.5598 35.312ZM47.5963 38V25.76H51.1243V28.64H51.1963V38H47.5963ZM56.1163 38V30.416C56.1163 29.744 55.9403 29.24 55.5883 28.904C55.2523 28.568 54.7563 28.4 54.1003 28.4C53.5403 28.4 53.0363 28.528 52.5883 28.784C52.1563 29.04 51.8123 29.392 51.5563 29.84C51.3163 30.288 51.1963 30.816 51.1963 31.424L50.8843 28.472C51.2843 27.576 51.8683 26.864 52.6363 26.336C53.4203 25.792 54.3803 25.52 55.5163 25.52C56.8763 25.52 57.9163 25.904 58.6363 26.672C59.3563 27.424 59.7162 28.44 59.7162 29.72V38H56.1163ZM68.2156 38.24C66.8556 38.24 65.6716 37.976 64.6636 37.448C63.6556 36.904 62.8716 36.152 62.3116 35.192C61.7676 34.232 61.4956 33.128 61.4956 31.88C61.4956 30.616 61.7676 29.512 62.3116 28.568C62.8716 27.608 63.6476 26.864 64.6396 26.336C65.6316 25.792 66.7836 25.52 68.0956 25.52C69.3596 25.52 70.4556 25.776 71.3836 26.288C72.3116 26.8 73.0316 27.512 73.5436 28.424C74.0556 29.336 74.3116 30.408 74.3116 31.64C74.3116 31.896 74.3036 32.136 74.2876 32.36C74.2716 32.568 74.2476 32.768 74.2156 32.96H63.6076V30.584H71.3116L70.6876 31.016C70.6876 30.024 70.4476 29.296 69.9676 28.832C69.5036 28.352 68.8636 28.112 68.0476 28.112C67.1036 28.112 66.3676 28.432 65.8396 29.072C65.3276 29.712 65.0716 30.672 65.0716 31.952C65.0716 33.2 65.3276 34.128 65.8396 34.736C66.3676 35.344 67.1516 35.648 68.1916 35.648C68.7676 35.648 69.2636 35.552 69.6796 35.36C70.0956 35.168 70.4076 34.856 70.6156 34.424H73.9996C73.5996 35.608 72.9116 36.544 71.9356 37.232C70.9756 37.904 69.7356 38.24 68.2156 38.24ZM76.1431 38V25.76H79.7431V38H76.1431ZM76.0231 24.128V20.24H79.8631V24.128H76.0231ZM82.6119 38V25.76H86.1399V28.64H86.2119V38H82.6119ZM86.2119 31.616L85.8999 28.712C86.1879 27.672 86.6599 26.88 87.3159 26.336C87.9719 25.792 88.7879 25.52 89.7639 25.52C90.0679 25.52 90.2919 25.552 90.4359 25.616V28.976C90.3559 28.944 90.2439 28.928 90.0999 28.928C89.9559 28.912 89.7799 28.904 89.5719 28.904C88.4199 28.904 87.5719 29.112 87.0279 29.528C86.4839 29.928 86.2119 30.624 86.2119 31.616ZM97.7949 38.24C96.4509 38.24 95.2669 37.976 94.2429 37.448C93.2349 36.904 92.4429 36.152 91.8669 35.192C91.3069 34.216 91.0269 33.096 91.0269 31.832C91.0269 30.568 91.3069 29.464 91.8669 28.52C92.4429 27.576 93.2349 26.84 94.2429 26.312C95.2669 25.784 96.4509 25.52 97.7949 25.52C99.1549 25.52 100.339 25.784 101.347 26.312C102.371 26.84 103.163 27.576 103.723 28.52C104.283 29.464 104.563 30.568 104.563 31.832C104.563 33.096 104.275 34.216 103.699 35.192C103.139 36.152 102.347 36.904 101.323 37.448C100.315 37.976 99.1389 38.24 97.7949 38.24ZM97.7949 35.408C98.3549 35.408 98.8589 35.264 99.3069 34.976C99.7709 34.688 100.139 34.28 100.411 33.752C100.683 33.208 100.819 32.56 100.819 31.808C100.819 30.704 100.523 29.856 99.9309 29.264C99.3549 28.656 98.6429 28.352 97.7949 28.352C96.9469 28.352 96.2269 28.656 95.6349 29.264C95.0589 29.872 94.7709 30.72 94.7709 31.808C94.7709 32.56 94.9069 33.208 95.1789 33.752C95.4509 34.28 95.8109 34.688 96.2589 34.976C96.7229 35.264 97.2349 35.408 97.7949 35.408ZM111.486 38.24C109.694 38.24 108.27 37.88 107.214 37.16C106.158 36.44 105.582 35.448 105.486 34.184H108.702C108.782 34.728 109.054 35.144 109.518 35.432C109.998 35.704 110.654 35.84 111.486 35.84C112.238 35.84 112.782 35.736 113.118 35.528C113.47 35.304 113.646 34.992 113.646 34.592C113.646 34.288 113.542 34.056 113.334 33.896C113.142 33.72 112.782 33.576 112.254 33.464L110.286 33.056C108.83 32.752 107.758 32.296 107.07 31.688C106.382 31.064 106.038 30.264 106.038 29.288C106.038 28.104 106.494 27.184 107.406 26.528C108.318 25.856 109.59 25.52 111.222 25.52C112.838 25.52 114.126 25.848 115.086 26.504C116.046 27.144 116.574 28.04 116.67 29.192H113.454C113.39 28.776 113.166 28.464 112.782 28.256C112.398 28.032 111.854 27.92 111.15 27.92C110.51 27.92 110.03 28.016 109.71 28.208C109.406 28.384 109.254 28.64 109.254 28.976C109.254 29.264 109.382 29.496 109.638 29.672C109.894 29.832 110.318 29.976 110.91 30.104L113.118 30.56C114.35 30.816 115.278 31.296 115.902 32C116.542 32.688 116.862 33.504 116.862 34.448C116.862 35.648 116.39 36.584 115.446 37.256C114.518 37.912 113.198 38.24 111.486 38.24ZM122.366 38V35.12C123.95 33.824 125.27 32.712 126.326 31.784C127.398 30.84 128.246 30.008 128.87 29.288C129.51 28.568 129.966 27.912 130.238 27.32C130.51 26.728 130.646 26.136 130.646 25.544C130.646 24.84 130.454 24.296 130.07 23.912C129.702 23.512 129.182 23.312 128.51 23.312C127.806 23.312 127.222 23.528 126.758 23.96C126.294 24.392 126.006 24.984 125.894 25.736H122.198C122.374 24.104 123.038 22.824 124.19 21.896C125.342 20.952 126.83 20.48 128.654 20.48C130.51 20.48 131.958 20.96 132.998 21.92C134.038 22.864 134.558 24.184 134.558 25.88C134.558 26.68 134.422 27.448 134.15 28.184C133.894 28.92 133.462 29.68 132.854 30.464C132.246 31.248 131.414 32.112 130.358 33.056C129.318 33.984 128.014 35.048 126.446 36.248L125.558 35.168H134.894V38H122.366ZM143.426 38.24C141.986 38.24 140.698 37.864 139.562 37.112C138.442 36.344 137.562 35.288 136.922 33.944C136.282 32.584 135.962 31.032 135.962 29.288C135.962 27.544 136.282 26.016 136.922 24.704C137.562 23.376 138.442 22.344 139.562 21.608C140.698 20.856 141.986 20.48 143.426 20.48C144.882 20.48 146.17 20.856 147.29 21.608C148.41 22.344 149.29 23.376 149.93 24.704C150.57 26.016 150.89 27.544 150.89 29.288C150.89 31.048 150.57 32.6 149.93 33.944C149.29 35.288 148.402 36.344 147.266 37.112C146.146 37.864 144.866 38.24 143.426 38.24ZM143.426 35.168C144.242 35.168 144.914 34.896 145.442 34.352C145.97 33.808 146.362 33.088 146.618 32.192C146.874 31.296 147.002 30.32 147.002 29.264C147.002 28.208 146.874 27.248 146.618 26.384C146.362 25.52 145.97 24.832 145.442 24.32C144.914 23.808 144.242 23.552 143.426 23.552C142.61 23.552 141.938 23.816 141.41 24.344C140.882 24.856 140.49 25.544 140.234 26.408C139.978 27.272 139.85 28.224 139.85 29.264C139.85 30.336 139.978 31.32 140.234 32.216C140.49 33.112 140.882 33.832 141.41 34.376C141.954 34.904 142.626 35.168 143.426 35.168ZM152.038 38V35.12C153.622 33.824 154.942 32.712 155.998 31.784C157.07 30.84 157.918 30.008 158.542 29.288C159.182 28.568 159.638 27.912 159.91 27.32C160.182 26.728 160.318 26.136 160.318 25.544C160.318 24.84 160.126 24.296 159.742 23.912C159.374 23.512 158.854 23.312 158.182 23.312C157.478 23.312 156.894 23.528 156.43 23.96C155.966 24.392 155.678 24.984 155.566 25.736H151.87C152.046 24.104 152.71 22.824 153.862 21.896C155.014 20.952 156.502 20.48 158.326 20.48C160.182 20.48 161.63 20.96 162.67 21.92C163.71 22.864 164.23 24.184 164.23 25.88C164.23 26.68 164.094 27.448 163.822 28.184C163.566 28.92 163.134 29.68 162.526 30.464C161.918 31.248 161.086 32.112 160.03 33.056C158.99 33.984 157.686 35.048 156.118 36.248L155.23 35.168H164.566V38H152.038ZM171.97 38.24C170.194 38.24 168.738 37.784 167.602 36.872C166.466 35.96 165.762 34.68 165.49 33.032H169.162C169.29 33.768 169.61 34.352 170.122 34.784C170.634 35.2 171.218 35.408 171.874 35.408C172.626 35.408 173.226 35.152 173.674 34.64C174.138 34.112 174.37 33.32 174.37 32.264C174.37 31.256 174.154 30.488 173.722 29.96C173.29 29.416 172.698 29.144 171.946 29.144C171.514 29.144 171.106 29.248 170.722 29.456C170.338 29.648 170.018 29.968 169.762 30.416H166.402L167.29 20.72H177.226V23.552H168.586L170.554 23.288L170.122 28.688L168.922 28.52C169.338 27.864 169.842 27.368 170.434 27.032C171.042 26.68 171.81 26.504 172.738 26.504C173.842 26.504 174.81 26.744 175.642 27.224C176.474 27.704 177.122 28.376 177.586 29.24C178.05 30.104 178.282 31.128 178.282 32.312C178.282 33.56 178.018 34.624 177.49 35.504C176.962 36.384 176.226 37.064 175.282 37.544C174.338 38.008 173.234 38.24 171.97 38.24ZM184.963 38V25.76H188.563V38H184.963ZM184.843 24.128V20.24H188.683V24.128H184.843ZM196.306 38.24C194.514 38.24 193.09 37.88 192.034 37.16C190.978 36.44 190.402 35.448 190.306 34.184H193.522C193.602 34.728 193.874 35.144 194.338 35.432C194.818 35.704 195.474 35.84 196.306 35.84C197.058 35.84 197.602 35.736 197.938 35.528C198.29 35.304 198.466 34.992 198.466 34.592C198.466 34.288 198.362 34.056 198.154 33.896C197.962 33.72 197.602 33.576 197.074 33.464L195.106 33.056C193.65 32.752 192.578 32.296 191.89 31.688C191.202 31.064 190.858 30.264 190.858 29.288C190.858 28.104 191.314 27.184 192.226 26.528C193.138 25.856 194.41 25.52 196.042 25.52C197.658 25.52 198.946 25.848 199.906 26.504C200.866 27.144 201.394 28.04 201.49 29.192H198.274C198.21 28.776 197.986 28.464 197.602 28.256C197.218 28.032 196.674 27.92 195.97 27.92C195.33 27.92 194.85 28.016 194.53 28.208C194.226 28.384 194.074 28.64 194.074 28.976C194.074 29.264 194.202 29.496 194.458 29.672C194.714 29.832 195.138 29.976 195.73 30.104L197.938 30.56C199.17 30.816 200.098 31.296 200.722 32C201.362 32.688 201.682 33.504 201.682 34.448C201.682 35.648 201.21 36.584 200.266 37.256C199.338 37.912 198.018 38.24 196.306 38.24ZM213.57 38.24C212.29 38.24 211.162 37.968 210.186 37.424C209.21 36.88 208.442 36.128 207.882 35.168C207.338 34.208 207.066 33.112 207.066 31.88C207.066 30.648 207.338 29.552 207.882 28.592C208.442 27.632 209.21 26.88 210.186 26.336C211.162 25.792 212.29 25.52 213.57 25.52C214.642 25.52 215.602 25.72 216.45 26.12C217.314 26.504 218.018 27.04 218.562 27.728C219.122 28.416 219.482 29.224 219.642 30.152H216.162C215.986 29.56 215.666 29.112 215.202 28.808C214.754 28.504 214.226 28.352 213.618 28.352C213.042 28.352 212.538 28.496 212.106 28.784C211.69 29.072 211.37 29.48 211.146 30.008C210.922 30.536 210.81 31.16 210.81 31.88C210.81 32.6 210.922 33.224 211.146 33.752C211.37 34.28 211.69 34.688 212.106 34.976C212.538 35.264 213.042 35.408 213.618 35.408C214.226 35.408 214.754 35.256 215.202 34.952C215.666 34.648 215.986 34.2 216.162 33.608H219.642C219.482 34.536 219.122 35.344 218.562 36.032C218.018 36.72 217.314 37.264 216.45 37.664C215.602 38.048 214.642 38.24 213.57 38.24ZM227.24 38.24C225.896 38.24 224.712 37.976 223.688 37.448C222.68 36.904 221.888 36.152 221.312 35.192C220.752 34.216 220.472 33.096 220.472 31.832C220.472 30.568 220.752 29.464 221.312 28.52C221.888 27.576 222.68 26.84 223.688 26.312C224.712 25.784 225.896 25.52 227.24 25.52C228.6 25.52 229.784 25.784 230.792 26.312C231.816 26.84 232.608 27.576 233.168 28.52C233.728 29.464 234.008 30.568 234.008 31.832C234.008 33.096 233.72 34.216 233.144 35.192C232.584 36.152 231.792 36.904 230.768 37.448C229.76 37.976 228.584 38.24 227.24 38.24ZM227.24 35.408C227.8 35.408 228.304 35.264 228.752 34.976C229.216 34.688 229.584 34.28 229.856 33.752C230.128 33.208 230.264 32.56 230.264 31.808C230.264 30.704 229.968 29.856 229.376 29.264C228.8 28.656 228.088 28.352 227.24 28.352C226.392 28.352 225.672 28.656 225.08 29.264C224.504 29.872 224.216 30.72 224.216 31.808C224.216 32.56 224.352 33.208 224.624 33.752C224.896 34.28 225.256 34.688 225.704 34.976C226.168 35.264 226.68 35.408 227.24 35.408ZM235.917 38V25.76H239.445V28.64H239.517V38H235.917ZM244.149 38V30.224C244.149 29.6 243.981 29.144 243.645 28.856C243.325 28.552 242.869 28.4 242.277 28.4C241.765 28.4 241.293 28.52 240.861 28.76C240.445 28.984 240.117 29.312 239.877 29.744C239.637 30.16 239.517 30.656 239.517 31.232L239.205 28.472C239.605 27.576 240.181 26.864 240.933 26.336C241.701 25.792 242.621 25.52 243.693 25.52C244.973 25.52 245.965 25.88 246.669 26.6C247.389 27.32 247.749 28.224 247.749 29.312V38H244.149ZM252.381 38V30.224C252.381 29.6 252.213 29.144 251.877 28.856C251.557 28.552 251.101 28.4 250.509 28.4C249.997 28.4 249.525 28.52 249.093 28.76C248.677 28.984 248.349 29.312 248.109 29.744C247.869 30.16 247.749 30.656 247.749 31.232L247.197 28.472C247.597 27.576 248.189 26.864 248.973 26.336C249.773 25.792 250.733 25.52 251.853 25.52C253.181 25.52 254.197 25.896 254.901 26.648C255.621 27.384 255.981 28.352 255.981 29.552V38H252.381ZM258.581 38V25.76H262.181V38H258.581ZM258.461 24.128V20.24H262.301V24.128H258.461ZM265.049 38V25.76H268.577V28.64H268.649V38H265.049ZM273.569 38V30.416C273.569 29.744 273.393 29.24 273.041 28.904C272.705 28.568 272.209 28.4 271.553 28.4C270.993 28.4 270.489 28.528 270.041 28.784C269.609 29.04 269.265 29.392 269.009 29.84C268.769 30.288 268.649 30.816 268.649 31.424L268.337 28.472C268.737 27.576 269.321 26.864 270.089 26.336C270.873 25.792 271.833 25.52 272.969 25.52C274.329 25.52 275.369 25.904 276.089 26.672C276.809 27.424 277.169 28.44 277.169 29.72V38H273.569ZM285.502 43.16C283.806 43.16 282.422 42.8 281.35 42.08C280.294 41.36 279.67 40.384 279.478 39.152H282.886C283.014 39.456 283.286 39.688 283.702 39.848C284.134 40.008 284.678 40.088 285.334 40.088C286.422 40.088 287.214 39.88 287.71 39.464C288.206 39.048 288.454 38.4 288.454 37.52V34.856L288.646 34.904C288.486 35.8 288.022 36.512 287.254 37.04C286.486 37.552 285.534 37.808 284.398 37.808C283.31 37.808 282.358 37.56 281.542 37.064C280.742 36.552 280.118 35.84 279.67 34.928C279.222 34.016 278.998 32.944 278.998 31.712C278.998 30.464 279.23 29.376 279.694 28.448C280.158 27.52 280.806 26.8 281.638 26.288C282.486 25.776 283.47 25.52 284.59 25.52C285.742 25.52 286.678 25.792 287.398 26.336C288.134 26.88 288.566 27.624 288.694 28.568L288.526 28.592V25.76H292.054V37.472C292.054 39.232 291.47 40.616 290.302 41.624C289.134 42.648 287.534 43.16 285.502 43.16ZM285.646 35.048C286.494 35.048 287.182 34.76 287.71 34.184C288.238 33.592 288.502 32.752 288.502 31.664C288.502 30.576 288.23 29.744 287.686 29.168C287.158 28.576 286.462 28.28 285.598 28.28C284.766 28.28 284.078 28.576 283.534 29.168C283.006 29.76 282.742 30.6 282.742 31.688C282.742 32.776 283.006 33.608 283.534 34.184C284.078 34.76 284.782 35.048 285.646 35.048ZM304.447 38.24C302.655 38.24 301.231 37.88 300.175 37.16C299.119 36.44 298.543 35.448 298.447 34.184H301.663C301.743 34.728 302.015 35.144 302.479 35.432C302.959 35.704 303.615 35.84 304.447 35.84C305.199 35.84 305.743 35.736 306.079 35.528C306.431 35.304 306.607 34.992 306.607 34.592C306.607 34.288 306.503 34.056 306.295 33.896C306.103 33.72 305.743 33.576 305.215 33.464L303.247 33.056C301.791 32.752 300.719 32.296 300.031 31.688C299.343 31.064 298.999 30.264 298.999 29.288C298.999 28.104 299.455 27.184 300.367 26.528C301.279 25.856 302.551 25.52 304.183 25.52C305.799 25.52 307.087 25.848 308.047 26.504C309.007 27.144 309.535 28.04 309.631 29.192H306.415C306.351 28.776 306.127 28.464 305.743 28.256C305.359 28.032 304.815 27.92 304.111 27.92C303.471 27.92 302.991 28.016 302.671 28.208C302.367 28.384 302.215 28.64 302.215 28.976C302.215 29.264 302.343 29.496 302.599 29.672C302.855 29.832 303.279 29.976 303.871 30.104L306.079 30.56C307.311 30.816 308.239 31.296 308.863 32C309.503 32.688 309.823 33.504 309.823 34.448C309.823 35.648 309.351 36.584 308.407 37.256C307.479 37.912 306.159 38.24 304.447 38.24ZM317.803 38.24C316.459 38.24 315.275 37.976 314.251 37.448C313.243 36.904 312.451 36.152 311.875 35.192C311.315 34.216 311.035 33.096 311.035 31.832C311.035 30.568 311.315 29.464 311.875 28.52C312.451 27.576 313.243 26.84 314.251 26.312C315.275 25.784 316.459 25.52 317.803 25.52C319.163 25.52 320.347 25.784 321.355 26.312C322.379 26.84 323.171 27.576 323.731 28.52C324.291 29.464 324.571 30.568 324.571 31.832C324.571 33.096 324.283 34.216 323.707 35.192C323.147 36.152 322.355 36.904 321.331 37.448C320.323 37.976 319.147 38.24 317.803 38.24ZM317.803 35.408C318.363 35.408 318.867 35.264 319.315 34.976C319.779 34.688 320.147 34.28 320.419 33.752C320.691 33.208 320.827 32.56 320.827 31.808C320.827 30.704 320.531 29.856 319.939 29.264C319.363 28.656 318.651 28.352 317.803 28.352C316.955 28.352 316.235 28.656 315.643 29.264C315.067 29.872 314.779 30.72 314.779 31.808C314.779 32.56 314.915 33.208 315.187 33.752C315.459 34.28 315.819 34.688 316.267 34.976C316.731 35.264 317.243 35.408 317.803 35.408ZM332.287 38.24C330.943 38.24 329.759 37.976 328.735 37.448C327.727 36.904 326.935 36.152 326.359 35.192C325.799 34.216 325.519 33.096 325.519 31.832C325.519 30.568 325.799 29.464 326.359 28.52C326.935 27.576 327.727 26.84 328.735 26.312C329.759 25.784 330.943 25.52 332.287 25.52C333.647 25.52 334.831 25.784 335.839 26.312C336.863 26.84 337.655 27.576 338.215 28.52C338.775 29.464 339.055 30.568 339.055 31.832C339.055 33.096 338.767 34.216 338.191 35.192C337.631 36.152 336.839 36.904 335.815 37.448C334.807 37.976 333.631 38.24 332.287 38.24ZM332.287 35.408C332.847 35.408 333.351 35.264 333.799 34.976C334.263 34.688 334.631 34.28 334.903 33.752C335.175 33.208 335.311 32.56 335.311 31.808C335.311 30.704 335.015 29.856 334.423 29.264C333.847 28.656 333.135 28.352 332.287 28.352C331.439 28.352 330.719 28.656 330.127 29.264C329.551 29.872 329.263 30.72 329.263 31.808C329.263 32.56 329.399 33.208 329.671 33.752C329.943 34.28 330.303 34.688 330.751 34.976C331.215 35.264 331.727 35.408 332.287 35.408ZM340.963 38V25.76H344.491V28.64H344.563V38H340.963ZM349.483 38V30.416C349.483 29.744 349.307 29.24 348.955 28.904C348.619 28.568 348.123 28.4 347.467 28.4C346.907 28.4 346.403 28.528 345.955 28.784C345.523 29.04 345.179 29.392 344.923 29.84C344.683 30.288 344.563 30.816 344.563 31.424L344.251 28.472C344.651 27.576 345.235 26.864 346.003 26.336C346.787 25.792 347.747 25.52 348.883 25.52C350.243 25.52 351.283 25.904 352.003 26.672C352.723 27.424 353.083 28.44 353.083 29.72V38H349.483ZM360.393 38V25.76H363.993V38H360.393ZM360.273 24.128V20.24H364.113V24.128H360.273ZM366.862 38V25.76H370.39V28.64H370.462V38H366.862ZM375.382 38V30.416C375.382 29.744 375.206 29.24 374.854 28.904C374.518 28.568 374.022 28.4 373.366 28.4C372.806 28.4 372.302 28.528 371.854 28.784C371.422 29.04 371.078 29.392 370.822 29.84C370.582 30.288 370.462 30.816 370.462 31.424L370.15 28.472C370.55 27.576 371.134 26.864 371.902 26.336C372.686 25.792 373.646 25.52 374.782 25.52C376.142 25.52 377.182 25.904 377.902 26.672C378.622 27.424 378.982 28.44 378.982 29.72V38H375.382ZM386.052 38V20.72H389.748V38H386.052ZM387.78 31.304V28.472H397.692V31.304H387.78ZM387.78 23.552V20.72H398.244V23.552H387.78ZM405.856 38.24C404.496 38.24 403.312 37.976 402.304 37.448C401.296 36.904 400.512 36.152 399.952 35.192C399.408 34.232 399.136 33.128 399.136 31.88C399.136 30.616 399.408 29.512 399.952 28.568C400.512 27.608 401.288 26.864 402.28 26.336C403.272 25.792 404.424 25.52 405.736 25.52C407 25.52 408.096 25.776 409.024 26.288C409.952 26.8 410.672 27.512 411.184 28.424C411.696 29.336 411.952 30.408 411.952 31.64C411.952 31.896 411.944 32.136 411.928 32.36C411.912 32.568 411.888 32.768 411.856 32.96H401.248V30.584H408.952L408.328 31.016C408.328 30.024 408.088 29.296 407.608 28.832C407.144 28.352 406.504 28.112 405.688 28.112C404.744 28.112 404.008 28.432 403.48 29.072C402.968 29.712 402.712 30.672 402.712 31.952C402.712 33.2 402.968 34.128 403.48 34.736C404.008 35.344 404.792 35.648 405.832 35.648C406.408 35.648 406.904 35.552 407.32 35.36C407.736 35.168 408.048 34.856 408.256 34.424H411.64C411.24 35.608 410.552 36.544 409.576 37.232C408.616 37.904 407.376 38.24 405.856 38.24ZM421.342 38.24C420.174 38.24 419.222 37.968 418.486 37.424C417.766 36.88 417.342 36.136 417.214 35.192L417.406 35.168V38H413.878V20.72H417.478V28.472L417.262 28.424C417.438 27.528 417.902 26.824 418.654 26.312C419.422 25.784 420.382 25.52 421.534 25.52C422.638 25.52 423.59 25.784 424.39 26.312C425.206 26.824 425.83 27.552 426.262 28.496C426.71 29.44 426.934 30.552 426.934 31.832C426.934 33.128 426.702 34.256 426.238 35.216C425.774 36.176 425.126 36.92 424.294 37.448C423.462 37.976 422.478 38.24 421.342 38.24ZM420.334 35.36C421.182 35.36 421.87 35.056 422.398 34.448C422.926 33.84 423.19 32.976 423.19 31.856C423.19 30.736 422.918 29.88 422.374 29.288C421.846 28.696 421.15 28.4 420.286 28.4C419.454 28.4 418.766 28.704 418.222 29.312C417.694 29.904 417.43 30.76 417.43 31.88C417.43 33 417.694 33.864 418.222 34.472C418.766 35.064 419.47 35.36 420.334 35.36Z" fill="black"/>
<defs>
<filter id="filter0_d_23_23" x="0.9" y="0.9" width="454.2" height="65.2" filterUnits="userSpaceOnUse" color-interpolation-filters="sRGB">
<feFlood flood-opacity="0" result="BackgroundImageFix"/>
<feColorMatrix in="SourceAlpha" type="matrix" values="0 0 0 0 0 0 0 0 0 0 0 0 0 0 0 0 0 0 127 0" result="hardAlpha"/>
<feOffset dy="4"/>
<feGaussianBlur stdDeviation="9.55"/>
<feComposite in2="hardAlpha" operator="out"/>
<feColorMatrix type="matrix" values="0 0 0 0 0.556863 0 0 0 0 0.411765 0 0 0 0 0.686275 0 0 0 0.7 0"/>
<feBlend mode="normal" in2="BackgroundImageFix" result="effect1_dropShadow_23_23"/>
<feBlend mode="normal" in="SourceGraphic" in2="effect1_dropShadow_23_23" result="shape"/>
</filter>
</defs>
</svg>
