<svg width="359" height="99" viewBox="0 0 359 99" fill="none" xmlns="http://www.w3.org/2000/svg">
<g filter="url(#filter0_d_40_67)">
<rect x="19.7674" y="16" width="319.233" height="59" fill="#C28DEF" fill-opacity="0.72" shape-rendering="crispEdges"/>
</g>
<path d="M19 10.6667C16.0545 10.6667 13.6667 13.0545 13.6667 16C13.6667 18.9455 16.0545 21.3333 19 21.3333C21.9455 21.3333 24.3333 18.9455 24.3333 16C24.3333 13.0545 21.9455 10.6667 19 10.6667ZM18 16L18 75H20L20 16H18Z" fill="white"/>
<path d="M339 69.6667C336.054 69.6667 333.667 72.0545 333.667 75C333.667 77.9455 336.054 80.3333 339 80.3333C341.946 80.3333 344.333 77.9455 344.333 75C344.333 72.0545 341.946 69.6667 339 69.6667ZM338 16V75H340V16H338Z" fill="white"/>
<path d="M78.08 43.234C75.6533 43.234 73.712 42.6967 72.256 41.622C70.8 40.53 69.9507 38.996 69.708 37.02H73.556C73.6773 38.0253 74.1627 38.8227 75.012 39.412C75.8613 39.984 76.9447 40.27 78.262 40.27C79.3367 40.27 80.16 40.0793 80.732 39.698C81.3213 39.3167 81.616 38.8053 81.616 38.164C81.616 37.5573 81.4427 37.072 81.096 36.708C80.7493 36.3267 80.1513 36.0233 79.302 35.798L75.818 34.836C74.0327 34.3333 72.724 33.6487 71.892 32.782C71.0773 31.898 70.67 30.7973 70.67 29.48C70.67 28.3533 70.956 27.3827 71.528 26.568C72.1173 25.736 72.9407 25.1033 73.998 24.67C75.0553 24.2193 76.2947 23.994 77.716 23.994C79.9 23.994 81.642 24.514 82.942 25.554C84.242 26.5767 84.9787 27.9373 85.152 29.636H81.304C81.1307 28.7173 80.706 28.0413 80.03 27.608C79.3713 27.1747 78.522 26.958 77.482 26.958C76.5807 26.958 75.8613 27.1313 75.324 27.478C74.7867 27.8247 74.518 28.2927 74.518 28.882C74.518 29.3327 74.6653 29.7487 74.96 30.13C75.2547 30.494 75.87 30.806 76.806 31.066L80.29 32.028C82.1273 32.5307 83.4447 33.224 84.242 34.108C85.0567 34.9747 85.464 36.0753 85.464 37.41C85.464 39.282 84.814 40.7207 83.514 41.726C82.214 42.7313 80.4027 43.234 78.08 43.234ZM87.6049 43V24.28H91.5049V43H87.6049ZM96.8349 43V34.784C96.8349 34.056 96.6443 33.51 96.2629 33.146C95.8989 32.782 95.3616 32.6 94.6509 32.6C94.0443 32.6 93.4983 32.7387 93.0129 33.016C92.5449 33.2933 92.1723 33.6747 91.8949 34.16C91.6349 34.6453 91.5049 35.2173 91.5049 35.876L91.1669 32.678C91.6003 31.7073 92.2329 30.936 93.0649 30.364C93.9143 29.7747 94.9543 29.48 96.1849 29.48C97.6583 29.48 98.7849 29.896 99.5649 30.728C100.345 31.5427 100.735 32.6433 100.735 34.03V43H96.8349ZM103.55 43V29.74H107.45V43H103.55ZM103.42 27.972V23.76H107.58V27.972H103.42ZM113.944 43L108.718 29.74H112.904L116.986 42.116H114.802L118.858 29.74H122.94L117.714 43H113.944ZM132.056 43C131.952 42.6187 131.874 42.2113 131.822 41.778C131.788 41.3447 131.77 40.842 131.77 40.27H131.666V34.004C131.666 33.4667 131.484 33.0507 131.12 32.756C130.774 32.444 130.254 32.288 129.56 32.288C128.902 32.288 128.373 32.4007 127.974 32.626C127.593 32.8513 127.342 33.1807 127.22 33.614H123.502C123.676 32.418 124.291 31.43 125.348 30.65C126.406 29.87 127.853 29.48 129.69 29.48C131.597 29.48 133.053 29.9047 134.058 30.754C135.064 31.6033 135.566 32.8253 135.566 34.42V40.27C135.566 40.7033 135.592 41.1453 135.644 41.596C135.714 42.0293 135.818 42.4973 135.956 43H132.056ZM127.428 43.26C126.111 43.26 125.062 42.9307 124.282 42.272C123.502 41.596 123.112 40.7033 123.112 39.594C123.112 38.3633 123.572 37.3753 124.49 36.63C125.426 35.8673 126.726 35.3733 128.39 35.148L132.264 34.602V36.864L129.04 37.358C128.347 37.462 127.836 37.6527 127.506 37.93C127.177 38.2073 127.012 38.5887 127.012 39.074C127.012 39.5073 127.168 39.8367 127.48 40.062C127.792 40.2873 128.208 40.4 128.728 40.4C129.543 40.4 130.236 40.1833 130.808 39.75C131.38 39.2993 131.666 38.7793 131.666 38.19L132.03 40.27C131.649 41.258 131.068 42.0033 130.288 42.506C129.508 43.0087 128.555 43.26 127.428 43.26ZM138.564 43V29.74H142.386V32.86H142.464V43H138.564ZM147.482 43V34.576C147.482 33.9 147.3 33.406 146.936 33.094C146.589 32.7647 146.095 32.6 145.454 32.6C144.899 32.6 144.388 32.73 143.92 32.99C143.469 33.2327 143.114 33.588 142.854 34.056C142.594 34.5067 142.464 35.044 142.464 35.668L142.126 32.678C142.559 31.7073 143.183 30.936 143.998 30.364C144.83 29.7747 145.827 29.48 146.988 29.48C148.375 29.48 149.449 29.87 150.212 30.65C150.992 31.43 151.382 32.4093 151.382 33.588V43H147.482ZM156.4 43V34.576C156.4 33.9 156.218 33.406 155.854 33.094C155.507 32.7647 155.013 32.6 154.372 32.6C153.817 32.6 153.306 32.73 152.838 32.99C152.387 33.2327 152.032 33.588 151.772 34.056C151.512 34.5067 151.382 35.044 151.382 35.668L150.784 32.678C151.217 31.7073 151.859 30.936 152.708 30.364C153.575 29.7747 154.615 29.48 155.828 29.48C157.267 29.48 158.367 29.8873 159.13 30.702C159.91 31.4993 160.3 32.548 160.3 33.848V43H156.4ZM175.656 43.234C173.229 43.234 171.288 42.6967 169.832 41.622C168.376 40.53 167.527 38.996 167.284 37.02H171.132C171.253 38.0253 171.739 38.8227 172.588 39.412C173.437 39.984 174.521 40.27 175.838 40.27C176.913 40.27 177.736 40.0793 178.308 39.698C178.897 39.3167 179.192 38.8053 179.192 38.164C179.192 37.5573 179.019 37.072 178.672 36.708C178.325 36.3267 177.727 36.0233 176.878 35.798L173.394 34.836C171.609 34.3333 170.3 33.6487 169.468 32.782C168.653 31.898 168.246 30.7973 168.246 29.48C168.246 28.3533 168.532 27.3827 169.104 26.568C169.693 25.736 170.517 25.1033 171.574 24.67C172.631 24.2193 173.871 23.994 175.292 23.994C177.476 23.994 179.218 24.514 180.518 25.554C181.818 26.5767 182.555 27.9373 182.728 29.636H178.88C178.707 28.7173 178.282 28.0413 177.606 27.608C176.947 27.1747 176.098 26.958 175.058 26.958C174.157 26.958 173.437 27.1313 172.9 27.478C172.363 27.8247 172.094 28.2927 172.094 28.882C172.094 29.3327 172.241 29.7487 172.536 30.13C172.831 30.494 173.446 30.806 174.382 31.066L177.866 32.028C179.703 32.5307 181.021 33.224 181.818 34.108C182.633 34.9747 183.04 36.0753 183.04 37.41C183.04 39.282 182.39 40.7207 181.09 41.726C179.79 42.7313 177.979 43.234 175.656 43.234ZM185.181 43V24.28H189.081V43H185.181ZM194.411 43V34.784C194.411 34.056 194.22 33.51 193.839 33.146C193.475 32.782 192.938 32.6 192.227 32.6C191.62 32.6 191.074 32.7387 190.589 33.016C190.121 33.2933 189.748 33.6747 189.471 34.16C189.211 34.6453 189.081 35.2173 189.081 35.876L188.743 32.678C189.176 31.7073 189.809 30.936 190.641 30.364C191.49 29.7747 192.53 29.48 193.761 29.48C195.234 29.48 196.361 29.896 197.141 30.728C197.921 31.5427 198.311 32.6433 198.311 34.03V43H194.411ZM209.295 43C209.191 42.6187 209.113 42.2113 209.061 41.778C209.026 41.3447 209.009 40.842 209.009 40.27H208.905V34.004C208.905 33.4667 208.723 33.0507 208.359 32.756C208.012 32.444 207.492 32.288 206.799 32.288C206.14 32.288 205.611 32.4007 205.213 32.626C204.831 32.8513 204.58 33.1807 204.459 33.614H200.741C200.914 32.418 201.529 31.43 202.587 30.65C203.644 29.87 205.091 29.48 206.929 29.48C208.835 29.48 210.291 29.9047 211.297 30.754C212.302 31.6033 212.805 32.8253 212.805 34.42V40.27C212.805 40.7033 212.831 41.1453 212.883 41.596C212.952 42.0293 213.056 42.4973 213.195 43H209.295ZM204.667 43.26C203.349 43.26 202.301 42.9307 201.521 42.272C200.741 41.596 200.351 40.7033 200.351 39.594C200.351 38.3633 200.81 37.3753 201.729 36.63C202.665 35.8673 203.965 35.3733 205.629 35.148L209.503 34.602V36.864L206.279 37.358C205.585 37.462 205.074 37.6527 204.745 37.93C204.415 38.2073 204.251 38.5887 204.251 39.074C204.251 39.5073 204.407 39.8367 204.719 40.062C205.031 40.2873 205.447 40.4 205.967 40.4C206.781 40.4 207.475 40.1833 208.047 39.75C208.619 39.2993 208.905 38.7793 208.905 38.19L209.269 40.27C208.887 41.258 208.307 42.0033 207.527 42.506C206.747 43.0087 205.793 43.26 204.667 43.26ZM215.802 43V29.74H219.624V32.86H219.702V43H215.802ZM225.032 43V34.784C225.032 34.056 224.842 33.51 224.46 33.146C224.096 32.782 223.559 32.6 222.848 32.6C222.242 32.6 221.696 32.7387 221.21 33.016C220.742 33.2933 220.37 33.6747 220.092 34.16C219.832 34.6453 219.702 35.2173 219.702 35.876L219.364 32.678C219.798 31.7073 220.43 30.936 221.262 30.364C222.112 29.7747 223.152 29.48 224.382 29.48C225.856 29.48 226.982 29.896 227.762 30.728C228.542 31.5427 228.932 32.6433 228.932 34.03V43H225.032ZM241.286 43V40.062L241.546 40.114C241.373 41.0673 240.853 41.83 239.986 42.402C239.137 42.974 238.114 43.26 236.918 43.26C235.705 43.26 234.647 42.9827 233.746 42.428C232.862 41.856 232.177 41.0587 231.692 40.036C231.207 39.0133 230.964 37.8087 230.964 36.422C230.964 35.018 231.215 33.796 231.718 32.756C232.221 31.716 232.923 30.91 233.824 30.338C234.743 29.766 235.809 29.48 237.022 29.48C238.287 29.48 239.31 29.7747 240.09 30.364C240.887 30.9533 241.355 31.7593 241.494 32.782L241.208 32.808V24.28H245.108V43H241.286ZM238.166 40.14C239.085 40.14 239.83 39.8193 240.402 39.178C240.974 38.5193 241.26 37.5833 241.26 36.37C241.26 35.1567 240.965 34.2293 240.376 33.588C239.804 32.9293 239.05 32.6 238.114 32.6C237.213 32.6 236.467 32.9293 235.878 33.588C235.306 34.2467 235.02 35.1827 235.02 36.396C235.02 37.6093 235.306 38.5367 235.878 39.178C236.467 39.8193 237.23 40.14 238.166 40.14ZM248.226 43V29.74H252.126V43H248.226ZM248.096 27.972V23.76H252.256V27.972H248.096ZM255.234 43V24.28H259.134V43H255.234ZM262.918 48.33L266.584 40.218L267.26 39.1L270.692 29.74H274.852L266.818 48.33H262.918ZM265.726 42.74L260.63 29.74H264.842L269.028 41.596L265.726 42.74ZM283.969 43C283.865 42.6187 283.787 42.2113 283.735 41.778C283.7 41.3447 283.683 40.842 283.683 40.27H283.579V34.004C283.579 33.4667 283.397 33.0507 283.033 32.756C282.686 32.444 282.166 32.288 281.473 32.288C280.814 32.288 280.285 32.4007 279.887 32.626C279.505 32.8513 279.254 33.1807 279.133 33.614H275.415C275.588 32.418 276.203 31.43 277.261 30.65C278.318 29.87 279.765 29.48 281.603 29.48C283.509 29.48 284.965 29.9047 285.971 30.754C286.976 31.6033 287.479 32.8253 287.479 34.42V40.27C287.479 40.7033 287.505 41.1453 287.557 41.596C287.626 42.0293 287.73 42.4973 287.869 43H283.969ZM279.341 43.26C278.023 43.26 276.975 42.9307 276.195 42.272C275.415 41.596 275.025 40.7033 275.025 39.594C275.025 38.3633 275.484 37.3753 276.403 36.63C277.339 35.8673 278.639 35.3733 280.303 35.148L284.177 34.602V36.864L280.953 37.358C280.259 37.462 279.748 37.6527 279.419 37.93C279.089 38.2073 278.925 38.5887 278.925 39.074C278.925 39.5073 279.081 39.8367 279.393 40.062C279.705 40.2873 280.121 40.4 280.641 40.4C281.455 40.4 282.149 40.1833 282.721 39.75C283.293 39.2993 283.579 38.7793 283.579 38.19L283.943 40.27C283.561 41.258 282.981 42.0033 282.201 42.506C281.421 43.0087 280.467 43.26 279.341 43.26Z" fill="black"/>
<path d="M108.826 66.16C107.994 66.16 107.226 66.016 106.522 65.728C105.818 65.4293 105.205 65.0133 104.682 64.48C104.17 63.9467 103.77 63.3173 103.482 62.592C103.194 61.856 103.05 61.056 103.05 60.192C103.05 59.328 103.189 58.5387 103.466 57.824C103.754 57.1093 104.154 56.4907 104.666 55.968C105.189 55.4347 105.802 55.0293 106.506 54.752C107.21 54.464 107.984 54.32 108.826 54.32C109.776 54.32 110.629 54.5067 111.386 54.88C112.154 55.2427 112.778 55.76 113.258 56.432C113.749 57.0933 114.048 57.872 114.154 58.768H111.754C111.616 57.9467 111.28 57.328 110.746 56.912C110.213 56.4853 109.578 56.272 108.842 56.272C108.192 56.272 107.616 56.4267 107.114 56.736C106.624 57.0453 106.24 57.4933 105.962 58.08C105.685 58.656 105.546 59.3547 105.546 60.176C105.546 61.008 105.685 61.728 105.962 62.336C106.25 62.9333 106.645 63.3973 107.146 63.728C107.648 64.048 108.224 64.208 108.874 64.208C109.568 64.208 110.181 64 110.714 63.584C111.248 63.168 111.594 62.5493 111.754 61.728H114.186C114.048 62.624 113.733 63.408 113.242 64.08C112.752 64.7413 112.128 65.2533 111.37 65.616C110.613 65.9787 109.765 66.16 108.826 66.16ZM119.371 66.16C118.475 66.16 117.686 65.984 117.003 65.632C116.331 65.2693 115.803 64.768 115.419 64.128C115.046 63.4773 114.859 62.7307 114.859 61.888C114.859 61.0453 115.046 60.3093 115.419 59.68C115.803 59.0507 116.331 58.56 117.003 58.208C117.686 57.856 118.475 57.68 119.371 57.68C120.278 57.68 121.067 57.856 121.739 58.208C122.422 58.56 122.95 59.0507 123.323 59.68C123.696 60.3093 123.883 61.0453 123.883 61.888C123.883 62.7307 123.691 63.4773 123.307 64.128C122.934 64.768 122.406 65.2693 121.723 65.632C121.051 65.984 120.267 66.16 119.371 66.16ZM119.371 64.272C119.744 64.272 120.08 64.176 120.379 63.984C120.688 63.792 120.934 63.52 121.115 63.168C121.296 62.8053 121.387 62.3733 121.387 61.872C121.387 61.136 121.19 60.5707 120.795 60.176C120.411 59.7707 119.936 59.568 119.371 59.568C118.806 59.568 118.326 59.7707 117.931 60.176C117.547 60.5813 117.355 61.1467 117.355 61.872C117.355 62.3733 117.446 62.8053 117.627 63.168C117.808 63.52 118.048 63.792 118.347 63.984C118.656 64.176 118.998 64.272 119.371 64.272ZM125.155 66V57.84H127.507V59.76H127.555V66H125.155ZM130.835 66V60.944C130.835 60.496 130.718 60.16 130.483 59.936C130.259 59.712 129.929 59.6 129.491 59.6C129.118 59.6 128.782 59.6853 128.483 59.856C128.195 60.0267 127.966 60.2613 127.795 60.56C127.635 60.8587 127.555 61.2107 127.555 61.616L127.347 59.648C127.614 59.0507 128.003 58.576 128.515 58.224C129.038 57.8613 129.678 57.68 130.435 57.68C131.342 57.68 132.035 57.936 132.515 58.448C132.995 58.9493 133.235 59.6267 133.235 60.48V66H130.835ZM136.942 66L133.726 57.84H136.302L138.814 65.456H137.47L139.966 57.84H142.478L139.262 66H136.942ZM146.995 66.16C146.089 66.16 145.299 65.984 144.627 65.632C143.955 65.2693 143.433 64.768 143.059 64.128C142.697 63.488 142.515 62.752 142.515 61.92C142.515 61.0773 142.697 60.3413 143.059 59.712C143.433 59.072 143.95 58.576 144.611 58.224C145.273 57.8613 146.041 57.68 146.915 57.68C147.758 57.68 148.489 57.8507 149.107 58.192C149.726 58.5333 150.206 59.008 150.547 59.616C150.889 60.224 151.059 60.9387 151.059 61.76C151.059 61.9307 151.054 62.0907 151.043 62.24C151.033 62.3787 151.017 62.512 150.995 62.64H143.923V61.056H149.059L148.643 61.344C148.643 60.6827 148.483 60.1973 148.163 59.888C147.854 59.568 147.427 59.408 146.883 59.408C146.254 59.408 145.763 59.6213 145.411 60.048C145.07 60.4747 144.899 61.1147 144.899 61.968C144.899 62.8 145.07 63.4187 145.411 63.824C145.763 64.2293 146.286 64.432 146.979 64.432C147.363 64.432 147.694 64.368 147.971 64.24C148.249 64.112 148.457 63.904 148.595 63.616H150.851C150.585 64.4053 150.126 65.0293 149.475 65.488C148.835 65.936 148.009 66.16 146.995 66.16ZM152.343 66V57.84H154.695V59.76H154.743V66H152.343ZM158.023 66V60.944C158.023 60.496 157.905 60.16 157.671 59.936C157.447 59.712 157.116 59.6 156.679 59.6C156.305 59.6 155.969 59.6853 155.671 59.856C155.383 60.0267 155.153 60.2613 154.983 60.56C154.823 60.8587 154.743 61.2107 154.743 61.616L154.535 59.648C154.801 59.0507 155.191 58.576 155.703 58.224C156.225 57.8613 156.865 57.68 157.623 57.68C158.529 57.68 159.223 57.936 159.703 58.448C160.183 58.9493 160.423 59.6267 160.423 60.48V66H158.023ZM166.089 66.16C165.182 66.16 164.393 65.984 163.721 65.632C163.049 65.2693 162.526 64.768 162.153 64.128C161.79 63.488 161.609 62.752 161.609 61.92C161.609 61.0773 161.79 60.3413 162.153 59.712C162.526 59.072 163.044 58.576 163.705 58.224C164.366 57.8613 165.134 57.68 166.009 57.68C166.852 57.68 167.582 57.8507 168.201 58.192C168.82 58.5333 169.3 59.008 169.641 59.616C169.982 60.224 170.153 60.9387 170.153 61.76C170.153 61.9307 170.148 62.0907 170.137 62.24C170.126 62.3787 170.11 62.512 170.089 62.64H163.017V61.056H168.153L167.737 61.344C167.737 60.6827 167.577 60.1973 167.257 59.888C166.948 59.568 166.521 59.408 165.977 59.408C165.348 59.408 164.857 59.6213 164.505 60.048C164.164 60.4747 163.993 61.1147 163.993 61.968C163.993 62.8 164.164 63.4187 164.505 63.824C164.857 64.2293 165.38 64.432 166.073 64.432C166.457 64.432 166.788 64.368 167.065 64.24C167.342 64.112 167.55 63.904 167.689 63.616H169.945C169.678 64.4053 169.22 65.0293 168.569 65.488C167.929 65.936 167.102 66.16 166.089 66.16ZM171.437 66V57.84H173.789V59.76H173.837V66H171.437ZM173.837 61.744L173.629 59.808C173.821 59.1147 174.135 58.5867 174.573 58.224C175.01 57.8613 175.554 57.68 176.205 57.68C176.407 57.68 176.557 57.7013 176.653 57.744V59.984C176.599 59.9627 176.525 59.952 176.429 59.952C176.333 59.9413 176.215 59.936 176.077 59.936C175.309 59.936 174.743 60.0747 174.381 60.352C174.018 60.6187 173.837 61.0827 173.837 61.744ZM184.202 67.76C183.114 66.768 182.309 65.68 181.786 64.496C181.274 63.312 181.018 62.1067 181.018 60.88C181.018 59.6747 181.28 58.48 181.802 57.296C182.325 56.1013 183.125 55.0027 184.202 54H186.554C185.477 55.0027 184.666 56.08 184.122 57.232C183.589 58.3733 183.322 59.5893 183.322 60.88C183.322 62.1813 183.6 63.408 184.154 64.56C184.709 65.7013 185.509 66.768 186.554 67.76H184.202ZM187.995 66V54.48H190.459V66H187.995ZM189.147 61.536V59.648H195.755V61.536H189.147ZM189.147 56.368V54.48H196.123V56.368H189.147ZM197.499 66V57.84H199.899V66H197.499ZM197.419 56.752V54.16H199.979V56.752H197.419ZM201.812 66V57.84H204.164V59.76H204.212V66H201.812ZM207.492 66V60.944C207.492 60.496 207.374 60.16 207.14 59.936C206.916 59.712 206.585 59.6 206.148 59.6C205.774 59.6 205.438 59.6853 205.14 59.856C204.852 60.0267 204.622 60.2613 204.452 60.56C204.292 60.8587 204.212 61.2107 204.212 61.616L204.004 59.648C204.27 59.0507 204.66 58.576 205.172 58.224C205.694 57.8613 206.334 57.68 207.092 57.68C207.998 57.68 208.692 57.936 209.172 58.448C209.652 58.9493 209.892 59.6267 209.892 60.48V66H207.492ZM216.651 66C216.587 65.7653 216.539 65.5147 216.507 65.248C216.485 64.9813 216.475 64.672 216.475 64.32H216.411V60.464C216.411 60.1333 216.299 59.8773 216.075 59.696C215.861 59.504 215.541 59.408 215.115 59.408C214.709 59.408 214.384 59.4773 214.139 59.616C213.904 59.7547 213.749 59.9573 213.675 60.224H211.387C211.493 59.488 211.872 58.88 212.523 58.4C213.173 57.92 214.064 57.68 215.195 57.68C216.368 57.68 217.264 57.9413 217.883 58.464C218.501 58.9867 218.811 59.7387 218.811 60.72V64.32C218.811 64.5867 218.827 64.8587 218.859 65.136C218.901 65.4027 218.965 65.6907 219.051 66H216.651ZM213.803 66.16C212.992 66.16 212.347 65.9573 211.867 65.552C211.387 65.136 211.147 64.5867 211.147 63.904C211.147 63.1467 211.429 62.5387 211.995 62.08C212.571 61.6107 213.371 61.3067 214.395 61.168L216.779 60.832V62.224L214.795 62.528C214.368 62.592 214.053 62.7093 213.851 62.88C213.648 63.0507 213.547 63.2853 213.547 63.584C213.547 63.8507 213.643 64.0533 213.835 64.192C214.027 64.3307 214.283 64.4 214.603 64.4C215.104 64.4 215.531 64.2667 215.883 64C216.235 63.7227 216.411 63.4027 216.411 63.04L216.635 64.32C216.4 64.928 216.043 65.3867 215.563 65.696C215.083 66.0053 214.496 66.16 213.803 66.16ZM220.655 66V57.84H223.007V59.76H223.055V66H220.655ZM226.335 66V60.944C226.335 60.496 226.218 60.16 225.983 59.936C225.759 59.712 225.429 59.6 224.991 59.6C224.618 59.6 224.282 59.6853 223.983 59.856C223.695 60.0267 223.466 60.2613 223.295 60.56C223.135 60.8587 223.055 61.2107 223.055 61.616L222.847 59.648C223.114 59.0507 223.503 58.576 224.015 58.224C224.538 57.8613 225.178 57.68 225.935 57.68C226.842 57.68 227.535 57.936 228.015 58.448C228.495 58.9493 228.735 59.6267 228.735 60.48V66H226.335ZM234.258 66.16C233.404 66.16 232.652 65.9787 232.002 65.616C231.351 65.2533 230.839 64.752 230.466 64.112C230.103 63.472 229.922 62.7413 229.922 61.92C229.922 61.0987 230.103 60.368 230.466 59.728C230.839 59.088 231.351 58.5867 232.002 58.224C232.652 57.8613 233.404 57.68 234.258 57.68C234.972 57.68 235.612 57.8133 236.178 58.08C236.754 58.336 237.223 58.6933 237.586 59.152C237.959 59.6107 238.199 60.1493 238.306 60.768H235.986C235.868 60.3733 235.655 60.0747 235.346 59.872C235.047 59.6693 234.695 59.568 234.29 59.568C233.906 59.568 233.57 59.664 233.282 59.856C233.004 60.048 232.791 60.32 232.642 60.672C232.492 61.024 232.418 61.44 232.418 61.92C232.418 62.4 232.492 62.816 232.642 63.168C232.791 63.52 233.004 63.792 233.282 63.984C233.57 64.176 233.906 64.272 234.29 64.272C234.695 64.272 235.047 64.1707 235.346 63.968C235.655 63.7653 235.868 63.4667 235.986 63.072H238.306C238.199 63.6907 237.959 64.2293 237.586 64.688C237.223 65.1467 236.754 65.5093 236.178 65.776C235.612 66.032 234.972 66.16 234.258 66.16ZM243.339 66.16C242.432 66.16 241.643 65.984 240.971 65.632C240.299 65.2693 239.776 64.768 239.403 64.128C239.04 63.488 238.859 62.752 238.859 61.92C238.859 61.0773 239.04 60.3413 239.403 59.712C239.776 59.072 240.294 58.576 240.955 58.224C241.616 57.8613 242.384 57.68 243.259 57.68C244.102 57.68 244.832 57.8507 245.451 58.192C246.07 58.5333 246.55 59.008 246.891 59.616C247.232 60.224 247.403 60.9387 247.403 61.76C247.403 61.9307 247.398 62.0907 247.387 62.24C247.376 62.3787 247.36 62.512 247.339 62.64H240.267V61.056H245.403L244.987 61.344C244.987 60.6827 244.827 60.1973 244.507 59.888C244.198 59.568 243.771 59.408 243.227 59.408C242.598 59.408 242.107 59.6213 241.755 60.048C241.414 60.4747 241.243 61.1147 241.243 61.968C241.243 62.8 241.414 63.4187 241.755 63.824C242.107 64.2293 242.63 64.432 243.323 64.432C243.707 64.432 244.038 64.368 244.315 64.24C244.592 64.112 244.8 63.904 244.939 63.616H247.195C246.928 64.4053 246.47 65.0293 245.819 65.488C245.179 65.936 244.352 66.16 243.339 66.16ZM249.125 53.936C250.213 54.928 251.013 56.016 251.525 57.2C252.047 58.384 252.309 59.5893 252.309 60.816C252.309 62.0213 252.047 63.2213 251.525 64.416C251.002 65.6 250.202 66.6933 249.125 67.696H246.773C247.85 66.6933 248.655 65.6213 249.189 64.48C249.733 63.328 250.005 62.1067 250.005 60.816C250.005 59.5147 249.727 58.2933 249.173 57.152C248.618 56 247.818 54.928 246.773 53.936H249.125Z" fill="black"/>
<defs>
<filter id="filter0_d_40_67" x="0.667387" y="0.9" width="357.433" height="97.2" filterUnits="userSpaceOnUse" color-interpolation-filters="sRGB">
<feFlood flood-opacity="0" result="BackgroundImageFix"/>
<feColorMatrix in="SourceAlpha" type="matrix" values="0 0 0 0 0 0 0 0 0 0 0 0 0 0 0 0 0 0 127 0" result="hardAlpha"/>
<feOffset dy="4"/>
<feGaussianBlur stdDeviation="9.55"/>
<feComposite in2="hardAlpha" operator="out"/>
<feColorMatrix type="matrix" values="0 0 0 0 0.556863 0 0 0 0 0.411765 0 0 0 0 0.686275 0 0 0 0.7 0"/>
<feBlend mode="normal" in2="BackgroundImageFix" result="effect1_dropShadow_40_67"/>
<feBlend mode="normal" in="SourceGraphic" in2="effect1_dropShadow_40_67" result="shape"/>
</filter>
</defs>
</svg>
