<svg width="359" height="99" viewBox="0 0 359 99" fill="none" xmlns="http://www.w3.org/2000/svg">
<g filter="url(#filter0_d_40_67)">
<rect x="19.7674" y="16" width="319.233" height="59" fill="#C28DEF" fill-opacity="0.72" shape-rendering="crispEdges"/>
</g>
<path d="M19 10.6667C16.0545 10.6667 13.6667 13.0545 13.6667 16C13.6667 18.9455 16.0545 21.3333 19 21.3333C21.9455 21.3333 24.3333 18.9455 24.3333 16C24.3333 13.0545 21.9455 10.6667 19 10.6667ZM18 16L18 75H20L20 16H18Z" fill="white"/>
<path d="M339 69.6667C336.054 69.6667 333.667 72.0545 333.667 75C333.667 77.9455 336.054 80.3333 339 80.3333C341.946 80.3333 344.333 77.9455 344.333 75C344.333 72.0545 341.946 69.6667 339 69.6667ZM338 16V75H340V16H338Z" fill="white"/>
<path d="M78.08 43.234C75.6533 43.234 73.712 42.6967 72.256 41.622C70.8 40.53 69.9507 38.996 69.708 37.02H73.556C73.6773 38.0253 74.1627 38.8227 75.012 39.412C75.8613 39.984 76.9447 40.27 78.262 40.27C79.3367 40.27 80.16 40.0793 80.732 39.698C81.3213 39.3167 81.616 38.8053 81.616 38.164C81.616 37.5573 81.4427 37.072 81.096 36.708C80.7493 36.3267 80.1513 36.0233 79.302 35.798L75.818 34.836C74.0327 34.3333 72.724 33.6487 71.892 32.782C71.0773 31.898 70.67 30.7973 70.67 29.48C70.67 28.3533 70.956 27.3827 71.528 26.568C72.1173 25.736 72.9407 25.1033 73.998 24.67C75.0553 24.2193 76.2947 23.994 77.716 23.994C79.9 23.994 81.642 24.514 82.942 25.554C84.242 26.5767 84.9787 27.9373 85.152 29.636H81.304C81.1307 28.7173 80.706 28.0413 80.03 27.608C79.3713 27.1747 78.522 26.958 77.482 26.958C76.5807 26.958 75.8613 27.1313 75.324 27.478C74.7867 27.8247 74.518 28.2927 74.518 28.882C74.518 29.3327 74.6653 29.7487 74.96 30.13C75.2547 30.494 75.87 30.806 76.806 31.066L80.29 32.028C82.1273 32.5307 83.4447 33.224 84.242 34.108C85.0567 34.9747 85.464 36.0753 85.464 37.41C85.464 39.282 84.814 40.7207 83.514 41.726C82.214 42.7313 80.4027 43.234 78.08 43.234ZM87.6049 43V24.28H91.5049V43H87.6049ZM96.8349 43V34.784C96.8349 34.056 96.6443 33.51 96.2629 33.146C95.8989 32.782 95.3616 32.6 94.6509 32.6C94.0443 32.6 93.4983 32.7387 93.0129 33.016C92.5449 33.2933 92.1723 33.6747 91.8949 34.16C91.6349 34.6453 91.5049 35.2173 91.5049 35.876L91.1669 32.678C91.6003 31.7073 92.2329 30.936 93.0649 30.364C93.9143 29.7747 94.9543 29.48 96.1849 29.48C97.6583 29.48 98.7849 29.896 99.5649 30.728C100.345 31.5427 100.735 32.6433 100.735 34.03V43H96.8349ZM103.55 43V29.74H107.45V43H103.55ZM103.42 27.972V23.76H107.58V27.972H103.42ZM113.944 43L108.718 29.74H112.904L116.986 42.116H114.802L118.858 29.74H122.94L117.714 43H113.944ZM132.056 43C131.952 42.6187 131.874 42.2113 131.822 41.778C131.788 41.3447 131.77 40.842 131.77 40.27H131.666V34.004C131.666 33.4667 131.484 33.0507 131.12 32.756C130.774 32.444 130.254 32.288 129.56 32.288C128.902 32.288 128.373 32.4007 127.974 32.626C127.593 32.8513 127.342 33.1807 127.22 33.614H123.502C123.676 32.418 124.291 31.43 125.348 30.65C126.406 29.87 127.853 29.48 129.69 29.48C131.597 29.48 133.053 29.9047 134.058 30.754C135.064 31.6033 135.566 32.8253 135.566 34.42V40.27C135.566 40.7033 135.592 41.1453 135.644 41.596C135.714 42.0293 135.818 42.4973 135.956 43H132.056ZM127.428 43.26C126.111 43.26 125.062 42.9307 124.282 42.272C123.502 41.596 123.112 40.7033 123.112 39.594C123.112 38.3633 123.572 37.3753 124.49 36.63C125.426 35.8673 126.726 35.3733 128.39 35.148L132.264 34.602V36.864L129.04 37.358C128.347 37.462 127.836 37.6527 127.506 37.93C127.177 38.2073 127.012 38.5887 127.012 39.074C127.012 39.5073 127.168 39.8367 127.48 40.062C127.792 40.2873 128.208 40.4 128.728 40.4C129.543 40.4 130.236 40.1833 130.808 39.75C131.38 39.2993 131.666 38.7793 131.666 38.19L132.03 40.27C131.649 41.258 131.068 42.0033 130.288 42.506C129.508 43.0087 128.555 43.26 127.428 43.26ZM138.564 43V29.74H142.386V32.86H142.464V43H138.564ZM147.482 43V34.576C147.482 33.9 147.3 33.406 146.936 33.094C146.589 32.7647 146.095 32.6 145.454 32.6C144.899 32.6 144.388 32.73 143.92 32.99C143.469 33.2327 143.114 33.588 142.854 34.056C142.594 34.5067 142.464 35.044 142.464 35.668L142.126 32.678C142.559 31.7073 143.183 30.936 143.998 30.364C144.83 29.7747 145.827 29.48 146.988 29.48C148.375 29.48 149.449 29.87 150.212 30.65C150.992 31.43 151.382 32.4093 151.382 33.588V43H147.482ZM156.4 43V34.576C156.4 33.9 156.218 33.406 155.854 33.094C155.507 32.7647 155.013 32.6 154.372 32.6C153.817 32.6 153.306 32.73 152.838 32.99C152.387 33.2327 152.032 33.588 151.772 34.056C151.512 34.5067 151.382 35.044 151.382 35.668L150.784 32.678C151.217 31.7073 151.859 30.936 152.708 30.364C153.575 29.7747 154.615 29.48 155.828 29.48C157.267 29.48 158.367 29.8873 159.13 30.702C159.91 31.4993 160.3 32.548 160.3 33.848V43H156.4ZM175.656 43.234C173.229 43.234 171.288 42.6967 169.832 41.622C168.376 40.53 167.527 38.996 167.284 37.02H171.132C171.253 38.0253 171.739 38.8227 172.588 39.412C173.437 39.984 174.521 40.27 175.838 40.27C176.913 40.27 177.736 40.0793 178.308 39.698C178.897 39.3167 179.192 38.8053 179.192 38.164C179.192 37.5573 179.019 37.072 178.672 36.708C178.325 36.3267 177.727 36.0233 176.878 35.798L173.394 34.836C171.609 34.3333 170.3 33.6487 169.468 32.782C168.653 31.898 168.246 30.7973 168.246 29.48C168.246 28.3533 168.532 27.3827 169.104 26.568C169.693 25.736 170.517 25.1033 171.574 24.67C172.631 24.2193 173.871 23.994 175.292 23.994C177.476 23.994 179.218 24.514 180.518 25.554C181.818 26.5767 182.555 27.9373 182.728 29.636H178.88C178.707 28.7173 178.282 28.0413 177.606 27.608C176.947 27.1747 176.098 26.958 175.058 26.958C174.157 26.958 173.437 27.1313 172.9 27.478C172.363 27.8247 172.094 28.2927 172.094 28.882C172.094 29.3327 172.241 29.7487 172.536 30.13C172.831 30.494 173.446 30.806 174.382 31.066L177.866 32.028C179.703 32.5307 181.021 33.224 181.818 34.108C182.633 34.9747 183.04 36.0753 183.04 37.41C183.04 39.282 182.39 40.7207 181.09 41.726C179.79 42.7313 177.979 43.234 175.656 43.234ZM185.181 43V24.28H189.081V43H185.181ZM194.411 43V34.784C194.411 34.056 194.22 33.51 193.839 33.146C193.475 32.782 192.938 32.6 192.227 32.6C191.62 32.6 191.074 32.7387 190.589 33.016C190.121 33.2933 189.748 33.6747 189.471 34.16C189.211 34.6453 189.081 35.2173 189.081 35.876L188.743 32.678C189.176 31.7073 189.809 30.936 190.641 30.364C191.49 29.7747 192.53 29.48 193.761 29.48C195.234 29.48 196.361 29.896 197.141 30.728C197.921 31.5427 198.311 32.6433 198.311 34.03V43H194.411ZM209.295 43C209.191 42.6187 209.113 42.2113 209.061 41.778C209.026 41.3447 209.009 40.842 209.009 40.27H208.905V34.004C208.905 33.4667 208.723 33.0507 208.359 32.756C208.012 32.444 207.492 32.288 206.799 32.288C206.14 32.288 205.611 32.4007 205.213 32.626C204.831 32.8513 204.58 33.1807 204.459 33.614H200.741C200.914 32.418 201.529 31.43 202.587 30.65C203.644 29.87 205.091 29.48 206.929 29.48C208.835 29.48 210.291 29.9047 211.297 30.754C212.302 31.6033 212.805 32.8253 212.805 34.42V40.27C212.805 40.7033 212.831 41.1453 212.883 41.596C212.952 42.0293 213.056 42.4973 213.195 43H209.295ZM204.667 43.26C203.349 43.26 202.301 42.9307 201.521 42.272C200.741 41.596 200.351 40.7033 200.351 39.594C200.351 38.3633 200.81 37.3753 201.729 36.63C202.665 35.8673 203.965 35.3733 205.629 35.148L209.503 34.602V36.864L206.279 37.358C205.585 37.462 205.074 37.6527 204.745 37.93C204.415 38.2073 204.251 38.5887 204.251 39.074C204.251 39.5073 204.407 39.8367 204.719 40.062C205.031 40.2873 205.447 40.4 205.967 40.4C206.781 40.4 207.475 40.1833 208.047 39.75C208.619 39.2993 208.905 38.7793 208.905 38.19L209.269 40.27C208.887 41.258 208.307 42.0033 207.527 42.506C206.747 43.0087 205.793 43.26 204.667 43.26ZM215.802 43V29.74H219.624V32.86H219.702V43H215.802ZM225.032 43V34.784C225.032 34.056 224.842 33.51 224.46 33.146C224.096 32.782 223.559 32.6 222.848 32.6C222.242 32.6 221.696 32.7387 221.21 33.016C220.742 33.2933 220.37 33.6747 220.092 34.16C219.832 34.6453 219.702 35.2173 219.702 35.876L219.364 32.678C219.798 31.7073 220.43 30.936 221.262 30.364C222.112 29.7747 223.152 29.48 224.382 29.48C225.856 29.48 226.982 29.896 227.762 30.728C228.542 31.5427 228.932 32.6433 228.932 34.03V43H225.032ZM241.286 43V40.062L241.546 40.114C241.373 41.0673 240.853 41.83 239.986 42.402C239.137 42.974 238.114 43.26 236.918 43.26C235.705 43.26 234.647 42.9827 233.746 42.428C232.862 41.856 232.177 41.0587 231.692 40.036C231.207 39.0133 230.964 37.8087 230.964 36.422C230.964 35.018 231.215 33.796 231.718 32.756C232.221 31.716 232.923 30.91 233.824 30.338C234.743 29.766 235.809 29.48 237.022 29.48C238.287 29.48 239.31 29.7747 240.09 30.364C240.887 30.9533 241.355 31.7593 241.494 32.782L241.208 32.808V24.28H245.108V43H241.286ZM238.166 40.14C239.085 40.14 239.83 39.8193 240.402 39.178C240.974 38.5193 241.26 37.5833 241.26 36.37C241.26 35.1567 240.965 34.2293 240.376 33.588C239.804 32.9293 239.05 32.6 238.114 32.6C237.213 32.6 236.467 32.9293 235.878 33.588C235.306 34.2467 235.02 35.1827 235.02 36.396C235.02 37.6093 235.306 38.5367 235.878 39.178C236.467 39.8193 237.23 40.14 238.166 40.14ZM248.226 43V29.74H252.126V43H248.226ZM248.096 27.972V23.76H252.256V27.972H248.096ZM255.234 43V24.28H259.134V43H255.234ZM262.918 48.33L266.584 40.218L267.26 39.1L270.692 29.74H274.852L266.818 48.33H262.918ZM265.726 42.74L260.63 29.74H264.842L269.028 41.596L265.726 42.74ZM283.969 43C283.865 42.6187 283.787 42.2113 283.735 41.778C283.7 41.3447 283.683 40.842 283.683 40.27H283.579V34.004C283.579 33.4667 283.397 33.0507 283.033 32.756C282.686 32.444 282.166 32.288 281.473 32.288C280.814 32.288 280.285 32.4007 279.887 32.626C279.505 32.8513 279.254 33.1807 279.133 33.614H275.415C275.588 32.418 276.203 31.43 277.261 30.65C278.318 29.87 279.765 29.48 281.603 29.48C283.509 29.48 284.965 29.9047 285.971 30.754C286.976 31.6033 287.479 32.8253 287.479 34.42V40.27C287.479 40.7033 287.505 41.1453 287.557 41.596C287.626 42.0293 287.73 42.4973 287.869 43H283.969ZM279.341 43.26C278.023 43.26 276.975 42.9307 276.195 42.272C275.415 41.596 275.025 40.7033 275.025 39.594C275.025 38.3633 275.484 37.3753 276.403 36.63C277.339 35.8673 278.639 35.3733 280.303 35.148L284.177 34.602V36.864L280.953 37.358C280.259 37.462 279.748 37.6527 279.419 37.93C279.089 38.2073 278.925 38.5887 278.925 39.074C278.925 39.5073 279.081 39.8367 279.393 40.062C279.705 40.2873 280.121 40.4 280.641 40.4C281.455 40.4 282.149 40.1833 282.721 39.75C283.293 39.2993 283.579 38.7793 283.579 38.19L283.943 40.27C283.561 41.258 282.981 42.0033 282.201 42.506C281.421 43.0087 280.467 43.26 279.341 43.26Z" fill="black"/>
<path d="M132.74 66.16C131.908 66.16 131.14 66.016 130.436 65.728C129.732 65.4293 129.119 65.0133 128.596 64.48C128.084 63.9467 127.684 63.3173 127.396 62.592C127.108 61.856 126.964 61.056 126.964 60.192C126.964 59.328 127.103 58.5387 127.38 57.824C127.668 57.1093 128.068 56.4907 128.58 55.968C129.103 55.4347 129.716 55.0293 130.42 54.752C131.124 54.464 131.898 54.32 132.74 54.32C133.69 54.32 134.543 54.5067 135.3 54.88C136.068 55.2427 136.692 55.76 137.172 56.432C137.663 57.0933 137.962 57.872 138.068 58.768H135.668C135.53 57.9467 135.194 57.328 134.66 56.912C134.127 56.4853 133.492 56.272 132.756 56.272C132.106 56.272 131.53 56.4267 131.028 56.736C130.538 57.0453 130.154 57.4933 129.876 58.08C129.599 58.656 129.46 59.3547 129.46 60.176C129.46 61.008 129.599 61.728 129.876 62.336C130.164 62.9333 130.559 63.3973 131.06 63.728C131.562 64.048 132.138 64.208 132.788 64.208C133.482 64.208 134.095 64 134.628 63.584C135.162 63.168 135.508 62.5493 135.668 61.728H138.1C137.962 62.624 137.647 63.408 137.156 64.08C136.666 64.7413 136.042 65.2533 135.284 65.616C134.527 65.9787 133.679 66.16 132.74 66.16ZM143.285 66.16C142.389 66.16 141.6 65.984 140.917 65.632C140.245 65.2693 139.717 64.768 139.333 64.128C138.96 63.4773 138.773 62.7307 138.773 61.888C138.773 61.0453 138.96 60.3093 139.333 59.68C139.717 59.0507 140.245 58.56 140.917 58.208C141.6 57.856 142.389 57.68 143.285 57.68C144.192 57.68 144.981 57.856 145.653 58.208C146.336 58.56 146.864 59.0507 147.237 59.68C147.61 60.3093 147.797 61.0453 147.797 61.888C147.797 62.7307 147.605 63.4773 147.221 64.128C146.848 64.768 146.32 65.2693 145.637 65.632C144.965 65.984 144.181 66.16 143.285 66.16ZM143.285 64.272C143.658 64.272 143.994 64.176 144.293 63.984C144.602 63.792 144.848 63.52 145.029 63.168C145.21 62.8053 145.301 62.3733 145.301 61.872C145.301 61.136 145.104 60.5707 144.709 60.176C144.325 59.7707 143.85 59.568 143.285 59.568C142.72 59.568 142.24 59.7707 141.845 60.176C141.461 60.5813 141.269 61.1467 141.269 61.872C141.269 62.3733 141.36 62.8053 141.541 63.168C141.722 63.52 141.962 63.792 142.261 63.984C142.57 64.176 142.912 64.272 143.285 64.272ZM148.804 62.608V60.688H154.66V62.608H148.804ZM161.49 66.16C160.658 66.16 159.89 66.016 159.186 65.728C158.482 65.4293 157.869 65.0133 157.346 64.48C156.834 63.9467 156.434 63.3173 156.146 62.592C155.858 61.856 155.714 61.056 155.714 60.192C155.714 59.328 155.853 58.5387 156.13 57.824C156.418 57.1093 156.818 56.4907 157.33 55.968C157.853 55.4347 158.466 55.0293 159.17 54.752C159.874 54.464 160.648 54.32 161.49 54.32C162.44 54.32 163.293 54.5067 164.05 54.88C164.818 55.2427 165.442 55.76 165.922 56.432C166.413 57.0933 166.712 57.872 166.818 58.768H164.418C164.28 57.9467 163.944 57.328 163.41 56.912C162.877 56.4853 162.242 56.272 161.506 56.272C160.856 56.272 160.28 56.4267 159.778 56.736C159.288 57.0453 158.904 57.4933 158.626 58.08C158.349 58.656 158.21 59.3547 158.21 60.176C158.21 61.008 158.349 61.728 158.626 62.336C158.914 62.9333 159.309 63.3973 159.81 63.728C160.312 64.048 160.888 64.208 161.538 64.208C162.232 64.208 162.845 64 163.378 63.584C163.912 63.168 164.258 62.5493 164.418 61.728H166.85C166.712 62.624 166.397 63.408 165.906 64.08C165.416 64.7413 164.792 65.2533 164.034 65.616C163.277 65.9787 162.429 66.16 161.49 66.16ZM172.035 66.16C171.139 66.16 170.35 65.984 169.667 65.632C168.995 65.2693 168.467 64.768 168.083 64.128C167.71 63.4773 167.523 62.7307 167.523 61.888C167.523 61.0453 167.71 60.3093 168.083 59.68C168.467 59.0507 168.995 58.56 169.667 58.208C170.35 57.856 171.139 57.68 172.035 57.68C172.942 57.68 173.731 57.856 174.403 58.208C175.086 58.56 175.614 59.0507 175.987 59.68C176.36 60.3093 176.547 61.0453 176.547 61.888C176.547 62.7307 176.355 63.4773 175.971 64.128C175.598 64.768 175.07 65.2693 174.387 65.632C173.715 65.984 172.931 66.16 172.035 66.16ZM172.035 64.272C172.408 64.272 172.744 64.176 173.043 63.984C173.352 63.792 173.598 63.52 173.779 63.168C173.96 62.8053 174.051 62.3733 174.051 61.872C174.051 61.136 173.854 60.5707 173.459 60.176C173.075 59.7707 172.6 59.568 172.035 59.568C171.47 59.568 170.99 59.7707 170.595 60.176C170.211 60.5813 170.019 61.1467 170.019 61.872C170.019 62.3733 170.11 62.8053 170.291 63.168C170.472 63.52 170.712 63.792 171.011 63.984C171.32 64.176 171.662 64.272 172.035 64.272ZM177.819 66V57.84H180.171V59.76H180.219V66H177.819ZM183.499 66V60.944C183.499 60.496 183.382 60.16 183.147 59.936C182.923 59.712 182.593 59.6 182.155 59.6C181.782 59.6 181.446 59.6853 181.147 59.856C180.859 60.0267 180.63 60.2613 180.459 60.56C180.299 60.8587 180.219 61.2107 180.219 61.616L180.011 59.648C180.278 59.0507 180.667 58.576 181.179 58.224C181.702 57.8613 182.342 57.68 183.099 57.68C184.006 57.68 184.699 57.936 185.179 58.448C185.659 58.9493 185.899 59.6267 185.899 60.48V66H183.499ZM189.606 66L186.39 57.84H188.966L191.478 65.456H190.134L192.63 57.84H195.142L191.926 66H189.606ZM199.659 66.16C198.753 66.16 197.963 65.984 197.291 65.632C196.619 65.2693 196.097 64.768 195.723 64.128C195.361 63.488 195.179 62.752 195.179 61.92C195.179 61.0773 195.361 60.3413 195.723 59.712C196.097 59.072 196.614 58.576 197.275 58.224C197.937 57.8613 198.705 57.68 199.579 57.68C200.422 57.68 201.153 57.8507 201.771 58.192C202.39 58.5333 202.87 59.008 203.211 59.616C203.553 60.224 203.723 60.9387 203.723 61.76C203.723 61.9307 203.718 62.0907 203.707 62.24C203.697 62.3787 203.681 62.512 203.659 62.64H196.587V61.056H201.723L201.307 61.344C201.307 60.6827 201.147 60.1973 200.827 59.888C200.518 59.568 200.091 59.408 199.547 59.408C198.918 59.408 198.427 59.6213 198.075 60.048C197.734 60.4747 197.563 61.1147 197.563 61.968C197.563 62.8 197.734 63.4187 198.075 63.824C198.427 64.2293 198.95 64.432 199.643 64.432C200.027 64.432 200.358 64.368 200.635 64.24C200.913 64.112 201.121 63.904 201.259 63.616H203.515C203.249 64.4053 202.79 65.0293 202.139 65.488C201.499 65.936 200.673 66.16 199.659 66.16ZM205.007 66V57.84H207.359V59.76H207.407V66H205.007ZM210.687 66V60.944C210.687 60.496 210.57 60.16 210.335 59.936C210.111 59.712 209.78 59.6 209.343 59.6C208.97 59.6 208.634 59.6853 208.335 59.856C208.047 60.0267 207.818 60.2613 207.647 60.56C207.487 60.8587 207.407 61.2107 207.407 61.616L207.199 59.648C207.466 59.0507 207.855 58.576 208.367 58.224C208.89 57.8613 209.53 57.68 210.287 57.68C211.194 57.68 211.887 57.936 212.367 58.448C212.847 58.9493 213.087 59.6267 213.087 60.48V66H210.687ZM218.753 66.16C217.846 66.16 217.057 65.984 216.385 65.632C215.713 65.2693 215.19 64.768 214.817 64.128C214.454 63.488 214.273 62.752 214.273 61.92C214.273 61.0773 214.454 60.3413 214.817 59.712C215.19 59.072 215.708 58.576 216.369 58.224C217.03 57.8613 217.798 57.68 218.673 57.68C219.516 57.68 220.246 57.8507 220.865 58.192C221.484 58.5333 221.964 59.008 222.305 59.616C222.646 60.224 222.817 60.9387 222.817 61.76C222.817 61.9307 222.812 62.0907 222.801 62.24C222.79 62.3787 222.774 62.512 222.753 62.64H215.681V61.056H220.817L220.401 61.344C220.401 60.6827 220.241 60.1973 219.921 59.888C219.612 59.568 219.185 59.408 218.641 59.408C218.012 59.408 217.521 59.6213 217.169 60.048C216.828 60.4747 216.657 61.1147 216.657 61.968C216.657 62.8 216.828 63.4187 217.169 63.824C217.521 64.2293 218.044 64.432 218.737 64.432C219.121 64.432 219.452 64.368 219.729 64.24C220.006 64.112 220.214 63.904 220.353 63.616H222.609C222.342 64.4053 221.884 65.0293 221.233 65.488C220.593 65.936 219.766 66.16 218.753 66.16ZM224.101 66V57.84H226.453V59.76H226.501V66H224.101ZM226.501 61.744L226.293 59.808C226.485 59.1147 226.799 58.5867 227.237 58.224C227.674 57.8613 228.218 57.68 228.869 57.68C229.071 57.68 229.221 57.7013 229.317 57.744V59.984C229.263 59.9627 229.189 59.952 229.093 59.952C228.997 59.9413 228.879 59.936 228.741 59.936C227.973 59.936 227.407 60.0747 227.045 60.352C226.682 60.6187 226.501 61.0827 226.501 61.744Z" fill="black"/>
<defs>
<filter id="filter0_d_40_67" x="0.667387" y="0.9" width="357.433" height="97.2" filterUnits="userSpaceOnUse" color-interpolation-filters="sRGB">
<feFlood flood-opacity="0" result="BackgroundImageFix"/>
<feColorMatrix in="SourceAlpha" type="matrix" values="0 0 0 0 0 0 0 0 0 0 0 0 0 0 0 0 0 0 127 0" result="hardAlpha"/>
<feOffset dy="4"/>
<feGaussianBlur stdDeviation="9.55"/>
<feComposite in2="hardAlpha" operator="out"/>
<feColorMatrix type="matrix" values="0 0 0 0 0.556863 0 0 0 0 0.411765 0 0 0 0 0.686275 0 0 0 0.7 0"/>
<feBlend mode="normal" in2="BackgroundImageFix" result="effect1_dropShadow_40_67"/>
<feBlend mode="normal" in="SourceGraphic" in2="effect1_dropShadow_40_67" result="shape"/>
</filter>
</defs>
</svg>
