<svg width="359" height="99" viewBox="0 0 359 99" fill="none" xmlns="http://www.w3.org/2000/svg">
<g filter="url(#filter0_d_40_67)">
<rect x="19.7674" y="16" width="319.233" height="59" fill="#C28DEF" fill-opacity="0.72" shape-rendering="crispEdges"/>
</g>
<path d="M19 10.6667C16.0545 10.6667 13.6667 13.0545 13.6667 16C13.6667 18.9455 16.0545 21.3333 19 21.3333C21.9455 21.3333 24.3333 18.9455 24.3333 16C24.3333 13.0545 21.9455 10.6667 19 10.6667ZM18 16L18 75H20L20 16H18Z" fill="white"/>
<path d="M339 69.6667C336.054 69.6667 333.667 72.0545 333.667 75C333.667 77.9455 336.054 80.3333 339 80.3333C341.946 80.3333 344.333 77.9455 344.333 75C344.333 72.0545 341.946 69.6667 339 69.6667ZM338 16V75H340V16H338Z" fill="white"/>
<path d="M111.75 43.26C109.08 43.26 107.078 42.532 105.744 41.076C104.426 39.6027 103.768 37.462 103.768 34.654V24.28H107.772V35.356C107.772 36.9853 108.127 38.1813 108.838 38.944C109.548 39.7067 110.528 40.088 111.776 40.088C113.024 40.088 114.003 39.7067 114.714 38.944C115.424 38.1813 115.78 36.994 115.78 35.382V24.28H119.784V34.706C119.784 37.4793 119.116 39.6027 117.782 41.076C116.447 42.532 114.436 43.26 111.75 43.26ZM131.827 43V40.062L132.087 40.114C131.914 41.0673 131.394 41.83 130.527 42.402C129.678 42.974 128.655 43.26 127.459 43.26C126.246 43.26 125.188 42.9827 124.287 42.428C123.403 41.856 122.718 41.0587 122.233 40.036C121.748 39.0133 121.505 37.8087 121.505 36.422C121.505 35.018 121.756 33.796 122.259 32.756C122.762 31.716 123.464 30.91 124.365 30.338C125.284 29.766 126.35 29.48 127.563 29.48C128.828 29.48 129.851 29.7747 130.631 30.364C131.428 30.9533 131.896 31.7593 132.035 32.782L131.749 32.808V24.28H135.649V43H131.827ZM128.707 40.14C129.626 40.14 130.371 39.8193 130.943 39.178C131.515 38.5193 131.801 37.5833 131.801 36.37C131.801 35.1567 131.506 34.2293 130.917 33.588C130.345 32.9293 129.591 32.6 128.655 32.6C127.754 32.6 127.008 32.9293 126.419 33.588C125.847 34.2467 125.561 35.1827 125.561 36.396C125.561 37.6093 125.847 38.5367 126.419 39.178C127.008 39.8193 127.771 40.14 128.707 40.14ZM138.767 43V29.74H142.667V43H138.767ZM138.637 27.972V23.76H142.797V27.972H138.637ZM151.864 43.286C150.165 43.286 148.9 42.8787 148.068 42.064C147.253 41.232 146.846 39.9753 146.846 38.294V26.776L150.746 25.32V38.424C150.746 39.0133 150.91 39.4553 151.24 39.75C151.569 40.0447 152.08 40.192 152.774 40.192C153.034 40.192 153.276 40.166 153.502 40.114C153.727 40.062 153.952 40.0013 154.178 39.932V42.896C153.952 43.0173 153.632 43.1127 153.216 43.182C152.817 43.2513 152.366 43.286 151.864 43.286ZM144.376 32.704V29.74H154.178V32.704H144.376ZM164.607 43C164.503 42.6187 164.425 42.2113 164.373 41.778C164.339 41.3447 164.321 40.842 164.321 40.27H164.217V34.004C164.217 33.4667 164.035 33.0507 163.671 32.756C163.325 32.444 162.805 32.288 162.111 32.288C161.453 32.288 160.924 32.4007 160.525 32.626C160.144 32.8513 159.893 33.1807 159.771 33.614H156.053C156.227 32.418 156.842 31.43 157.899 30.65C158.957 29.87 160.404 29.48 162.241 29.48C164.148 29.48 165.604 29.9047 166.609 30.754C167.615 31.6033 168.117 32.8253 168.117 34.42V40.27C168.117 40.7033 168.143 41.1453 168.195 41.596C168.265 42.0293 168.369 42.4973 168.507 43H164.607ZM159.979 43.26C158.662 43.26 157.613 42.9307 156.833 42.272C156.053 41.596 155.663 40.7033 155.663 39.594C155.663 38.3633 156.123 37.3753 157.041 36.63C157.977 35.8673 159.277 35.3733 160.941 35.148L164.815 34.602V36.864L161.591 37.358C160.898 37.462 160.387 37.6527 160.057 37.93C159.728 38.2073 159.563 38.5887 159.563 39.074C159.563 39.5073 159.719 39.8367 160.031 40.062C160.343 40.2873 160.759 40.4 161.279 40.4C162.094 40.4 162.787 40.1833 163.359 39.75C163.931 39.2993 164.217 38.7793 164.217 38.19L164.581 40.27C164.2 41.258 163.619 42.0033 162.839 42.506C162.059 43.0087 161.106 43.26 159.979 43.26ZM175.702 43V24.28H184.074C185.426 24.28 186.605 24.514 187.61 24.982C188.615 25.4327 189.395 26.074 189.95 26.906C190.505 27.738 190.782 28.7087 190.782 29.818C190.782 30.91 190.505 31.872 189.95 32.704C189.395 33.5187 188.615 34.16 187.61 34.628C186.605 35.0787 185.426 35.304 184.074 35.304H178.874V32.366H183.97C184.923 32.366 185.651 32.1493 186.154 31.716C186.674 31.2653 186.934 30.6413 186.934 29.844C186.934 29.0293 186.683 28.414 186.18 27.998C185.677 27.5647 184.941 27.348 183.97 27.348H179.706V43H175.702ZM186.258 43L178.744 33.276H182.982L191.666 43H186.258ZM201.043 43C200.939 42.6187 200.861 42.2113 200.809 41.778C200.774 41.3447 200.757 40.842 200.757 40.27H200.653V34.004C200.653 33.4667 200.471 33.0507 200.107 32.756C199.76 32.444 199.24 32.288 198.547 32.288C197.888 32.288 197.359 32.4007 196.961 32.626C196.579 32.8513 196.328 33.1807 196.207 33.614H192.489C192.662 32.418 193.277 31.43 194.335 30.65C195.392 29.87 196.839 29.48 198.677 29.48C200.583 29.48 202.039 29.9047 203.045 30.754C204.05 31.6033 204.553 32.8253 204.553 34.42V40.27C204.553 40.7033 204.579 41.1453 204.631 41.596C204.7 42.0293 204.804 42.4973 204.943 43H201.043ZM196.415 43.26C195.097 43.26 194.049 42.9307 193.269 42.272C192.489 41.596 192.099 40.7033 192.099 39.594C192.099 38.3633 192.558 37.3753 193.477 36.63C194.413 35.8673 195.713 35.3733 197.377 35.148L201.251 34.602V36.864L198.027 37.358C197.333 37.462 196.822 37.6527 196.493 37.93C196.163 38.2073 195.999 38.5887 195.999 39.074C195.999 39.5073 196.155 39.8367 196.467 40.062C196.779 40.2873 197.195 40.4 197.715 40.4C198.529 40.4 199.223 40.1833 199.795 39.75C200.367 39.2993 200.653 38.7793 200.653 38.19L201.017 40.27C200.635 41.258 200.055 42.0033 199.275 42.506C198.495 43.0087 197.541 43.26 196.415 43.26ZM206.238 48.59C205.944 48.59 205.666 48.564 205.406 48.512C205.146 48.4773 204.886 48.4253 204.626 48.356V45.366C204.765 45.418 204.912 45.4527 205.068 45.47C205.224 45.5047 205.389 45.522 205.562 45.522C206.013 45.522 206.36 45.4093 206.602 45.184C206.845 44.976 206.966 44.6553 206.966 44.222V29.74H210.866V44.274C210.866 45.6087 210.485 46.6573 209.722 47.42C208.977 48.2 207.816 48.59 206.238 48.59ZM206.836 27.972V23.76H210.996V27.972H206.836ZM222.06 43.26C220.795 43.26 219.781 42.9653 219.018 42.376C218.255 41.7867 217.805 40.9807 217.666 39.958L217.874 39.932V48.33H213.974V29.74H217.796V32.678L217.562 32.626C217.753 31.6553 218.273 30.8927 219.122 30.338C219.971 29.766 221.02 29.48 222.268 29.48C223.464 29.48 224.495 29.766 225.362 30.338C226.246 30.8927 226.922 31.6813 227.39 32.704C227.875 33.7267 228.118 34.9313 228.118 36.318C228.118 37.722 227.867 38.944 227.364 39.984C226.861 41.024 226.159 41.83 225.258 42.402C224.357 42.974 223.291 43.26 222.06 43.26ZM220.968 40.14C221.887 40.14 222.632 39.8107 223.204 39.152C223.776 38.4933 224.062 37.5573 224.062 36.344C224.062 35.1307 223.767 34.2033 223.178 33.562C222.606 32.9207 221.852 32.6 220.916 32.6C220.015 32.6 219.269 32.9293 218.68 33.588C218.108 34.2293 217.822 35.1567 217.822 36.37C217.822 37.5833 218.108 38.5193 218.68 39.178C219.269 39.8193 220.032 40.14 220.968 40.14ZM234.59 43.26C233.654 43.26 232.848 43.0607 232.172 42.662C231.514 42.246 231.011 41.7 230.664 41.024C230.318 40.3307 230.144 39.5593 230.144 38.71V29.74H234.044V37.956C234.044 38.684 234.226 39.23 234.59 39.594C234.954 39.958 235.466 40.14 236.124 40.14C236.714 40.14 237.234 40.0013 237.684 39.724C238.135 39.4467 238.49 39.0653 238.75 38.58C239.028 38.0773 239.166 37.5053 239.166 36.864L239.504 40.062C239.071 41.0153 238.438 41.7867 237.606 42.376C236.774 42.9653 235.769 43.26 234.59 43.26ZM239.244 43V39.88H239.166V29.74H243.066V43H239.244ZM252.233 43.286C250.534 43.286 249.269 42.8787 248.437 42.064C247.622 41.232 247.215 39.9753 247.215 38.294V26.776L251.115 25.32V38.424C251.115 39.0133 251.28 39.4553 251.609 39.75C251.938 40.0447 252.45 40.192 253.143 40.192C253.403 40.192 253.646 40.166 253.871 40.114C254.096 40.062 254.322 40.0013 254.547 39.932V42.896C254.322 43.0173 254.001 43.1127 253.585 43.182C253.186 43.2513 252.736 43.286 252.233 43.286ZM244.745 32.704V29.74H254.547V32.704H244.745Z" fill="black"/>
<path d="M132.74 66.16C131.908 66.16 131.14 66.016 130.436 65.728C129.732 65.4293 129.119 65.0133 128.596 64.48C128.084 63.9467 127.684 63.3173 127.396 62.592C127.108 61.856 126.964 61.056 126.964 60.192C126.964 59.328 127.103 58.5387 127.38 57.824C127.668 57.1093 128.068 56.4907 128.58 55.968C129.103 55.4347 129.716 55.0293 130.42 54.752C131.124 54.464 131.898 54.32 132.74 54.32C133.69 54.32 134.543 54.5067 135.3 54.88C136.068 55.2427 136.692 55.76 137.172 56.432C137.663 57.0933 137.962 57.872 138.068 58.768H135.668C135.53 57.9467 135.194 57.328 134.66 56.912C134.127 56.4853 133.492 56.272 132.756 56.272C132.106 56.272 131.53 56.4267 131.028 56.736C130.538 57.0453 130.154 57.4933 129.876 58.08C129.599 58.656 129.46 59.3547 129.46 60.176C129.46 61.008 129.599 61.728 129.876 62.336C130.164 62.9333 130.559 63.3973 131.06 63.728C131.562 64.048 132.138 64.208 132.788 64.208C133.482 64.208 134.095 64 134.628 63.584C135.162 63.168 135.508 62.5493 135.668 61.728H138.1C137.962 62.624 137.647 63.408 137.156 64.08C136.666 64.7413 136.042 65.2533 135.284 65.616C134.527 65.9787 133.679 66.16 132.74 66.16ZM143.285 66.16C142.389 66.16 141.6 65.984 140.917 65.632C140.245 65.2693 139.717 64.768 139.333 64.128C138.96 63.4773 138.773 62.7307 138.773 61.888C138.773 61.0453 138.96 60.3093 139.333 59.68C139.717 59.0507 140.245 58.56 140.917 58.208C141.6 57.856 142.389 57.68 143.285 57.68C144.192 57.68 144.981 57.856 145.653 58.208C146.336 58.56 146.864 59.0507 147.237 59.68C147.61 60.3093 147.797 61.0453 147.797 61.888C147.797 62.7307 147.605 63.4773 147.221 64.128C146.848 64.768 146.32 65.2693 145.637 65.632C144.965 65.984 144.181 66.16 143.285 66.16ZM143.285 64.272C143.658 64.272 143.994 64.176 144.293 63.984C144.602 63.792 144.848 63.52 145.029 63.168C145.21 62.8053 145.301 62.3733 145.301 61.872C145.301 61.136 145.104 60.5707 144.709 60.176C144.325 59.7707 143.85 59.568 143.285 59.568C142.72 59.568 142.24 59.7707 141.845 60.176C141.461 60.5813 141.269 61.1467 141.269 61.872C141.269 62.3733 141.36 62.8053 141.541 63.168C141.722 63.52 141.962 63.792 142.261 63.984C142.57 64.176 142.912 64.272 143.285 64.272ZM148.804 62.608V60.688H154.66V62.608H148.804ZM161.49 66.16C160.658 66.16 159.89 66.016 159.186 65.728C158.482 65.4293 157.869 65.0133 157.346 64.48C156.834 63.9467 156.434 63.3173 156.146 62.592C155.858 61.856 155.714 61.056 155.714 60.192C155.714 59.328 155.853 58.5387 156.13 57.824C156.418 57.1093 156.818 56.4907 157.33 55.968C157.853 55.4347 158.466 55.0293 159.17 54.752C159.874 54.464 160.648 54.32 161.49 54.32C162.44 54.32 163.293 54.5067 164.05 54.88C164.818 55.2427 165.442 55.76 165.922 56.432C166.413 57.0933 166.712 57.872 166.818 58.768H164.418C164.28 57.9467 163.944 57.328 163.41 56.912C162.877 56.4853 162.242 56.272 161.506 56.272C160.856 56.272 160.28 56.4267 159.778 56.736C159.288 57.0453 158.904 57.4933 158.626 58.08C158.349 58.656 158.21 59.3547 158.21 60.176C158.21 61.008 158.349 61.728 158.626 62.336C158.914 62.9333 159.309 63.3973 159.81 63.728C160.312 64.048 160.888 64.208 161.538 64.208C162.232 64.208 162.845 64 163.378 63.584C163.912 63.168 164.258 62.5493 164.418 61.728H166.85C166.712 62.624 166.397 63.408 165.906 64.08C165.416 64.7413 164.792 65.2533 164.034 65.616C163.277 65.9787 162.429 66.16 161.49 66.16ZM172.035 66.16C171.139 66.16 170.35 65.984 169.667 65.632C168.995 65.2693 168.467 64.768 168.083 64.128C167.71 63.4773 167.523 62.7307 167.523 61.888C167.523 61.0453 167.71 60.3093 168.083 59.68C168.467 59.0507 168.995 58.56 169.667 58.208C170.35 57.856 171.139 57.68 172.035 57.68C172.942 57.68 173.731 57.856 174.403 58.208C175.086 58.56 175.614 59.0507 175.987 59.68C176.36 60.3093 176.547 61.0453 176.547 61.888C176.547 62.7307 176.355 63.4773 175.971 64.128C175.598 64.768 175.07 65.2693 174.387 65.632C173.715 65.984 172.931 66.16 172.035 66.16ZM172.035 64.272C172.408 64.272 172.744 64.176 173.043 63.984C173.352 63.792 173.598 63.52 173.779 63.168C173.96 62.8053 174.051 62.3733 174.051 61.872C174.051 61.136 173.854 60.5707 173.459 60.176C173.075 59.7707 172.6 59.568 172.035 59.568C171.47 59.568 170.99 59.7707 170.595 60.176C170.211 60.5813 170.019 61.1467 170.019 61.872C170.019 62.3733 170.11 62.8053 170.291 63.168C170.472 63.52 170.712 63.792 171.011 63.984C171.32 64.176 171.662 64.272 172.035 64.272ZM177.819 66V57.84H180.171V59.76H180.219V66H177.819ZM183.499 66V60.944C183.499 60.496 183.382 60.16 183.147 59.936C182.923 59.712 182.593 59.6 182.155 59.6C181.782 59.6 181.446 59.6853 181.147 59.856C180.859 60.0267 180.63 60.2613 180.459 60.56C180.299 60.8587 180.219 61.2107 180.219 61.616L180.011 59.648C180.278 59.0507 180.667 58.576 181.179 58.224C181.702 57.8613 182.342 57.68 183.099 57.68C184.006 57.68 184.699 57.936 185.179 58.448C185.659 58.9493 185.899 59.6267 185.899 60.48V66H183.499ZM189.606 66L186.39 57.84H188.966L191.478 65.456H190.134L192.63 57.84H195.142L191.926 66H189.606ZM199.659 66.16C198.753 66.16 197.963 65.984 197.291 65.632C196.619 65.2693 196.097 64.768 195.723 64.128C195.361 63.488 195.179 62.752 195.179 61.92C195.179 61.0773 195.361 60.3413 195.723 59.712C196.097 59.072 196.614 58.576 197.275 58.224C197.937 57.8613 198.705 57.68 199.579 57.68C200.422 57.68 201.153 57.8507 201.771 58.192C202.39 58.5333 202.87 59.008 203.211 59.616C203.553 60.224 203.723 60.9387 203.723 61.76C203.723 61.9307 203.718 62.0907 203.707 62.24C203.697 62.3787 203.681 62.512 203.659 62.64H196.587V61.056H201.723L201.307 61.344C201.307 60.6827 201.147 60.1973 200.827 59.888C200.518 59.568 200.091 59.408 199.547 59.408C198.918 59.408 198.427 59.6213 198.075 60.048C197.734 60.4747 197.563 61.1147 197.563 61.968C197.563 62.8 197.734 63.4187 198.075 63.824C198.427 64.2293 198.95 64.432 199.643 64.432C200.027 64.432 200.358 64.368 200.635 64.24C200.913 64.112 201.121 63.904 201.259 63.616H203.515C203.249 64.4053 202.79 65.0293 202.139 65.488C201.499 65.936 200.673 66.16 199.659 66.16ZM205.007 66V57.84H207.359V59.76H207.407V66H205.007ZM210.687 66V60.944C210.687 60.496 210.57 60.16 210.335 59.936C210.111 59.712 209.78 59.6 209.343 59.6C208.97 59.6 208.634 59.6853 208.335 59.856C208.047 60.0267 207.818 60.2613 207.647 60.56C207.487 60.8587 207.407 61.2107 207.407 61.616L207.199 59.648C207.466 59.0507 207.855 58.576 208.367 58.224C208.89 57.8613 209.53 57.68 210.287 57.68C211.194 57.68 211.887 57.936 212.367 58.448C212.847 58.9493 213.087 59.6267 213.087 60.48V66H210.687ZM218.753 66.16C217.846 66.16 217.057 65.984 216.385 65.632C215.713 65.2693 215.19 64.768 214.817 64.128C214.454 63.488 214.273 62.752 214.273 61.92C214.273 61.0773 214.454 60.3413 214.817 59.712C215.19 59.072 215.708 58.576 216.369 58.224C217.03 57.8613 217.798 57.68 218.673 57.68C219.516 57.68 220.246 57.8507 220.865 58.192C221.484 58.5333 221.964 59.008 222.305 59.616C222.646 60.224 222.817 60.9387 222.817 61.76C222.817 61.9307 222.812 62.0907 222.801 62.24C222.79 62.3787 222.774 62.512 222.753 62.64H215.681V61.056H220.817L220.401 61.344C220.401 60.6827 220.241 60.1973 219.921 59.888C219.612 59.568 219.185 59.408 218.641 59.408C218.012 59.408 217.521 59.6213 217.169 60.048C216.828 60.4747 216.657 61.1147 216.657 61.968C216.657 62.8 216.828 63.4187 217.169 63.824C217.521 64.2293 218.044 64.432 218.737 64.432C219.121 64.432 219.452 64.368 219.729 64.24C220.006 64.112 220.214 63.904 220.353 63.616H222.609C222.342 64.4053 221.884 65.0293 221.233 65.488C220.593 65.936 219.766 66.16 218.753 66.16ZM224.101 66V57.84H226.453V59.76H226.501V66H224.101ZM226.501 61.744L226.293 59.808C226.485 59.1147 226.799 58.5867 227.237 58.224C227.674 57.8613 228.218 57.68 228.869 57.68C229.071 57.68 229.221 57.7013 229.317 57.744V59.984C229.263 59.9627 229.189 59.952 229.093 59.952C228.997 59.9413 228.879 59.936 228.741 59.936C227.973 59.936 227.407 60.0747 227.045 60.352C226.682 60.6187 226.501 61.0827 226.501 61.744Z" fill="black"/>
<defs>
<filter id="filter0_d_40_67" x="0.667387" y="0.9" width="357.433" height="97.2" filterUnits="userSpaceOnUse" color-interpolation-filters="sRGB">
<feFlood flood-opacity="0" result="BackgroundImageFix"/>
<feColorMatrix in="SourceAlpha" type="matrix" values="0 0 0 0 0 0 0 0 0 0 0 0 0 0 0 0 0 0 127 0" result="hardAlpha"/>
<feOffset dy="4"/>
<feGaussianBlur stdDeviation="9.55"/>
<feComposite in2="hardAlpha" operator="out"/>
<feColorMatrix type="matrix" values="0 0 0 0 0.556863 0 0 0 0 0.411765 0 0 0 0 0.686275 0 0 0 0.7 0"/>
<feBlend mode="normal" in2="BackgroundImageFix" result="effect1_dropShadow_40_67"/>
<feBlend mode="normal" in="SourceGraphic" in2="effect1_dropShadow_40_67" result="shape"/>
</filter>
</defs>
</svg>
